<svg width="20" height="20" viewBox="0 0 20 20" fill="none" xmlns="http://www.w3.org/2000/svg">
<path d="M2.91602 16.2503C2.91602 16.4805 3.10256 16.667 3.33268 16.667H16.6659C16.896 16.667 17.0826 16.4805 17.0826 16.2503C17.0826 16.1602 17.0533 16.0725 16.9992 16.0003L16.6659 15.5559V8.33366C16.6659 4.65176 13.6811 1.66699 9.99922 1.66699C6.31732 1.66699 3.33268 4.65176 3.33268 8.33366V15.5559L2.99935 16.0003C2.94526 16.0725 2.91602 16.1602 2.91602 16.2503Z" fill="#3457FD"/>
<path d="M7.91602 17.5003C7.91602 18.6509 8.84872 19.5837 9.99938 19.5837C11.15 19.5837 12.0826 18.6509 12.0826 17.5003H7.91602Z" fill="#3457FD"/>
</svg>
