<svg width="20" height="20" viewBox="0 0 20 20" fill="none" xmlns="http://www.w3.org/2000/svg">
<path d="M15.4891 16.6666H3.33428C3.10416 16.6666 2.91762 16.4801 2.91762 16.2499C2.91762 16.1598 2.94686 16.0721 3.00095 15.9999L3.33428 15.5555V8.33327C3.33428 7.22512 3.60467 6.1801 4.08307 5.2606L1.16211 2.33965L2.34063 1.16113L18.8398 17.6603L17.6612 18.8388L15.4891 16.6666ZM16.6677 13.1548L6.30014 2.78732C7.3589 2.07942 8.63173 1.66663 10.001 1.66663C13.6828 1.66663 16.6677 4.65141 16.6677 8.33327V13.1548ZM7.91762 17.4999H12.0843C12.0843 18.6505 11.1516 19.5833 10.001 19.5833C8.85032 19.5833 7.91762 18.6505 7.91762 17.4999Z" fill="#3457FD"/>
</svg>
