<svg width="32" height="32" viewBox="0 0 32 32" fill="none" xmlns="http://www.w3.org/2000/svg">
<rect width="32" height="32" rx="16" fill="#5270FF"/>
<path d="M16 11.5C16 10.3475 16.4333 9.29613 17.1458 8.5H11.5C11.0858 8.5 10.75 8.83579 10.75 9.25V22.75C10.75 23.1642 11.0858 23.5 11.5 23.5H20.5C20.9142 23.5 21.25 23.1642 21.25 22.75V15.9377C21.0061 15.9787 20.7555 16 20.5 16C18.0147 16 16 13.9853 16 11.5ZM16 19.75C16.4142 19.75 16.75 20.0858 16.75 20.5C16.75 20.9142 16.4142 21.25 16 21.25C15.5858 21.25 15.25 20.9142 15.25 20.5C15.25 20.0858 15.5858 19.75 16 19.75ZM23.5 11.5H21.25V8.5H19.75V11.5H17.5L20.5 14.5L23.5 11.5Z" fill="#F6F6F6"/>
</svg>
