<svg width="28" height="28" viewBox="0 0 28 28" fill="none" xmlns="http://www.w3.org/2000/svg">
<path d="M4.66602 1.1665V4.6665H1.16602V6.99984H4.66602V10.4998H6.99935V6.99984H10.4993V4.6665H6.99935V1.1665H4.66602ZM12.8327 5.83317C12.8327 9.69917 9.69868 12.8332 5.83268 12.8332C5.01453 12.8332 4.22917 12.6928 3.49935 12.4349V23.3409C3.49935 23.9808 4.02078 24.4998 4.66399 24.4998H16.3327V17.4998C16.3327 16.8582 16.8577 16.3332 17.4993 16.3332H24.4994V4.66475C24.4994 4.02191 23.9804 3.49984 23.3404 3.49984H12.4344C12.6923 4.22966 12.8327 5.01502 12.8327 5.83317ZM24.4994 18.6665L18.666 24.4963V18.6665H24.4994Z" fill="#E3E4E5"/>
</svg>
