<svg width="64" height="64" viewBox="0 0 64 64" fill="none" xmlns="http://www.w3.org/2000/svg">
<path fill-rule="evenodd" clip-rule="evenodd" d="M53.5851 62.2191L32 40.6341L10.4148 62.2191C8.04046 64.5936 4.15515 64.5936 1.78078 62.2191C-0.59359 59.8451 -0.59359 55.9598 1.78078 53.5852L23.366 32.0001L1.78078 10.4149C-0.593595 8.04048 -0.59359 4.15515 1.78078 1.78077C4.15515 -0.593592 8.04046 -0.593592 10.4148 1.78078L32 23.3659L53.5851 1.78078C55.9597 -0.593592 59.845 -0.593592 62.2195 1.78077C64.5935 4.15515 64.5935 8.04048 62.2195 10.4149L40.6341 32.0001L62.2195 53.5852C64.5935 55.9598 64.5935 59.8451 62.2195 62.2191C59.845 64.5936 55.9597 64.5936 53.5851 62.2191Z" fill="current"/>
</svg>
