<svg width="36" height="36" viewBox="0 0 36 36" fill="#707374" xmlns="http://www.w3.org/2000/svg">
<path d="M18 8C16.9 8 16 9 16 10.2222C16 11.4444 16.9 12.4444 18 12.4444C19.1 12.4444 20 11.4444 20 10.2222C20 9 19.1 8 18 8ZM18 23.5556C16.9 23.5556 16 24.5556 16 25.7778C16 27 16.9 28 18 28C19.1 28 20 27 20 25.7778C20 24.5556 19.1 23.5556 18 23.5556ZM18 15.7778C16.9 15.7778 16 16.7778 16 18C16 19.2222 16.9 20.2222 18 20.2222C19.1 20.2222 20 19.2222 20 18C20 16.7778 19.1 15.7778 18 15.7778Z" />
</svg>
