<svg width="12" height="12" viewBox="0 0 12 12" fill="none" xmlns="http://www.w3.org/2000/svg">
<path d="M5.99935 11.8337C2.77769 11.8337 0.166016 9.22196 0.166016 6.00033C0.166016 2.77866 2.77769 0.166992 5.99935 0.166992C9.22098 0.166992 11.8327 2.77866 11.8327 6.00033C11.8327 9.22196 9.22098 11.8337 5.99935 11.8337ZM5.41602 7.75033V8.91699H6.58268V7.75033H5.41602ZM6.58268 6.7908C7.42601 6.53979 8.04102 5.75853 8.04102 4.83366C8.04102 3.70608 7.12693 2.79199 5.99935 2.79199C5.00885 2.79199 4.18307 3.49735 3.99695 4.43318L5.14115 4.66202C5.22095 4.26096 5.57486 3.95866 5.99935 3.95866C6.48258 3.95866 6.87435 4.35041 6.87435 4.83366C6.87435 5.31689 6.48258 5.70866 5.99935 5.70866C5.67717 5.70866 5.41602 5.96982 5.41602 6.29199V7.16699H6.58268V6.7908Z" fill="#707374"/>
</svg>
