<svg width="24" height="24" viewBox="0 0 24 24" fill="#FF0000" fill-rule="evenodd" clip-rule="evenodd"  xmlns="http://www.w3.org/2000/svg">
<path d="M14 2C18.4183 2 22 5.58172 22 10C22 13.2448 20.0672 16.0359 17.291 17.291C16.0359 20.0672 13.2448 22 10 22C5.58172 22 2 18.4183 2 14C2 10.738 3.90813 7.9533 6.70801 6.70801C6.72288 6.70128 6.69309 6.71464 6.70801 6.70801C7.96318 3.93208 10.7554 2 14 2ZM9 10C7.61929 10 6.5 11.1193 6.5 12.5C6.5 13.8807 7.61929 15 9 15H11C11.28 15 11.5 15.2583 11.5 15.5C11.5 15.7761 11.2761 16 11 16H7V18H9V19H11V18C12.3807 18 13.5 16.8807 13.5 15.5C13.5 14.2057 12.38 13 11 13H9C8.72386 13 8.5 12.7761 8.5 12.5C8.5 12.2239 8.72386 12 9 12H13V10H11V9H9V10ZM14 4C12.2157 4 10.6137 4.77929 9.51465 6.01562C9.53451 6.01429 9.49475 6.01682 9.51465 6.01562C9.69477 6.00351 9.81681 6 10 6C14.4183 6 18 9.58172 18 14C18 14.1624 17.9929 14.3234 17.9834 14.4834C19.2195 13.3844 20 11.7841 20 10C20 6.68629 17.3137 4 14 4Z" />
</svg>
