<svg width="36" height="36" viewBox="0 0 36 36" fill="none" xmlns="http://www.w3.org/2000/svg">
<path d="M18 6.0498C24.5997 6.0498 29.9502 11.4002 29.9502 18C29.9502 24.5997 24.5997 29.9502 18 29.9502C11.4002 29.9502 6.0498 24.5997 6.0498 18C6.0498 11.4002 11.4002 6.0498 18 6.0498ZM18 8.34961C12.6705 8.34961 8.34961 12.6705 8.34961 18C8.34961 23.3296 12.6705 27.6504 18 27.6504C23.3296 27.6504 27.6504 23.3296 27.6504 18C27.6504 12.6705 23.3296 8.34961 18 8.34961ZM19.1504 21.6504V23.9502H16.8496V21.6504H19.1504ZM18 11.4502C20.2919 11.4502 22.1502 13.3078 22.1504 15.5996C22.1504 17.4795 20.8998 19.0679 19.1855 19.5781L19.1504 19.5889V20.3496H16.8496V18.5996C16.8498 17.9646 17.365 17.4502 18 17.4502C19.0217 17.4502 19.8496 16.6213 19.8496 15.5996C19.8494 14.5781 19.0216 13.75 18 13.75C17.1198 13.75 16.3846 14.365 16.1973 15.1885L13.9404 14.7373C14.3375 12.8594 16.0039 11.4502 18 11.4502Z" fill="#707374" stroke="#101010" stroke-width="0.1"/>
</svg>
