<svg width="14" height="15" viewBox="0 0 14 15" fill="none" xmlns="http://www.w3.org/2000/svg">
<path d="M6.99935 13.3332C3.77769 13.3332 1.16602 10.7215 1.16602 7.49984C1.16602 4.27817 3.77769 1.6665 6.99935 1.6665C10.221 1.6665 12.8327 4.27817 12.8327 7.49984C12.8327 10.7215 10.221 13.3332 6.99935 13.3332ZM6.41602 9.24984V10.4165H7.58268V9.24984H6.41602ZM7.58268 8.29031C8.42601 8.0393 9.04102 7.25805 9.04102 6.33317C9.04102 5.20559 8.12693 4.2915 6.99935 4.2915C6.00885 4.2915 5.18307 4.99687 4.99695 5.93269L6.14115 6.16154C6.22095 5.76047 6.57486 5.45817 6.99935 5.45817C7.48258 5.45817 7.87435 5.84992 7.87435 6.33317C7.87435 6.8164 7.48258 7.20817 6.99935 7.20817C6.67717 7.20817 6.41602 7.46933 6.41602 7.7915V8.6665H7.58268V8.29031Z" fill="#707374"/>
</svg>
