<svg width="36" height="37" viewBox="0 0 36 37" fill="white" xmlns="http://www.w3.org/2000/svg">
<path d="M24.2217 23.6143L29.0897 28.4822L27.4822 30.0897L22.6143 25.2217C20.8639 26.6221 18.6442 27.4598 16.2299 27.4598C10.583 27.4598 6 22.8768 6 17.2299C6 11.583 10.583 7 16.2299 7C21.8768 7 26.4598 11.583 26.4598 17.2299C26.4598 19.6442 25.6221 21.8639 24.2217 23.6143ZM21.9413 22.7709C23.3312 21.3385 24.1865 19.3846 24.1865 17.2299C24.1865 12.8339 20.6259 9.27331 16.2299 9.27331C11.8339 9.27331 8.27331 12.8339 8.27331 17.2299C8.27331 21.6259 11.8339 25.1865 16.2299 25.1865C18.3846 25.1865 20.3385 24.3312 21.7709 22.9413L21.9413 22.7709Z" />
</svg>
