<svg width="24" height="24" viewBox="0 0 24 24" fill="none" xmlns="http://www.w3.org/2000/svg">
<path d="M2.66732 11.9999C2.66732 6.84526 6.84599 2.66659 12.0007 2.66659C17.1553 2.66659 21.334 6.84526 21.334 11.9999C21.334 17.1546 17.1553 21.3333 12.0007 21.3333C6.84599 21.3333 2.66732 17.1546 2.66732 11.9999ZM12.0007 0.333252C5.55733 0.333252 0.333984 5.55659 0.333984 11.9999C0.333984 18.4432 5.55733 23.6666 12.0007 23.6666C18.4439 23.6666 23.6673 18.4432 23.6673 11.9999C23.6673 5.55659 18.4439 0.333252 12.0007 0.333252ZM18.3673 9.03321L16.7174 7.38329L10.834 13.2667L7.57561 10.0083L5.92569 11.6582L10.834 16.5665L18.3673 9.03321Z" fill="#303033"/>
</svg>
