<svg width="24" height="25" viewBox="0 0 24 25" fill="none" xmlns="http://www.w3.org/2000/svg">
<path d="M12 22.5C6.47715 22.5 2 18.0228 2 12.5C2 6.97715 6.47715 2.5 12 2.5C17.5228 2.5 22 6.97715 22 12.5C22 18.0228 17.5228 22.5 12 22.5ZM11 15.5V17.5H13V15.5H11ZM13 13.8551C14.4457 13.4248 15.5 12.0855 15.5 10.5C15.5 8.567 13.933 7 12 7C10.302 7 8.88637 8.20919 8.56731 9.81346L10.5288 10.2058C10.6656 9.51823 11.2723 9 12 9C12.8284 9 13.5 9.67157 13.5 10.5C13.5 11.3284 12.8284 12 12 12C11.4477 12 11 12.4477 11 13V14.5H13V13.8551Z" fill="white"/>
</svg>
