<svg width="403" height="60" viewBox="0 0 403 60" fill="none" xmlns="http://www.w3.org/2000/svg">
<path d="M15.625 21.7344C15.6055 27.4766 18.5742 33.6289 24.5312 36.1094L21.8359 40.0156C17.6562 38.2383 14.7656 34.7031 13.1641 30.4062C11.5625 35.0742 8.61328 38.9805 4.41406 40.9141L1.5625 36.9688C7.46094 34.332 10.5078 27.75 10.5078 21.7344V19.5469H2.96875V15.4844H23.0469V19.5469H15.625V21.7344ZM26.5625 47.5938V12.0469H31.6016V47.5938H26.5625ZM66.0781 13.6484V16.5C66.0977 19.2734 66.0977 22.3398 65.2383 26.4219H69.9453V30.4453H37.4062V26.4219H60.2188C60.9805 22.8867 61.0781 20.1328 61.1172 17.6328H41.3906V13.6484H66.0781ZM41.2734 47.2031V34.1953H65.9609V47.2031H41.2734ZM46.1562 43.2188H61V38.1016H46.1562V43.2188ZM102.375 14.8984V32.0469H84.9922V14.8984H102.375ZM89.1328 46.8125V35.0156H94.1719V42.7891H113.898V46.8125H89.1328ZM89.9141 28.1016H97.4141V18.8438H89.9141V28.1016ZM107.961 37.3594V12.0859H112.961V37.3594H107.961ZM148.531 12.0859V32.125H143.531V12.0859H148.531ZM118.648 27.5938C124.605 25.7969 127.203 21.2461 127.203 16.8125V13.375H132.398V16.8125C132.359 21.1289 134.977 25.2695 140.719 27.0469L138.297 30.8359C134.234 29.625 131.422 27.1641 129.82 23.9805C128.199 27.4375 125.309 30.1719 121.07 31.5L118.648 27.5938ZM124.703 47.2031V33.7656H148.531V47.2031H124.703ZM129.625 43.2188H143.648V37.7109H129.625V43.2188ZM278.336 28.1797V32.2031H264.586V34.8398C270.758 35.2891 274.43 37.5156 274.469 41.1875C274.43 45.3086 269.762 47.6133 262.086 47.5938C254.293 47.6133 249.625 45.3086 249.625 41.1875C249.625 37.4961 253.316 35.2695 259.625 34.8203V32.2031H245.914V28.1797H278.336ZM247.359 22.9453C253.941 22.3594 257.574 19.9375 258.473 17.4766H248.883V13.5703H275.406V17.4766H265.738C266.598 19.957 270.211 22.3594 276.969 22.9453L275.211 26.8516C268.492 26.207 263.98 23.6875 262.086 20.2305C260.211 23.668 255.738 26.2266 249 26.8516L247.359 22.9453ZM254.703 41.1875C254.684 42.9062 257.164 43.8438 262.086 43.8438C266.91 43.8438 269.449 42.9062 269.469 41.1875C269.449 39.3906 266.91 38.5312 262.086 38.4922C257.164 38.5312 254.684 39.3906 254.703 41.1875ZM311.25 12.0859V37.6328H306.25V12.0859H311.25ZM282.031 23.2969C282.031 18.082 286.289 14.332 291.758 14.3516C297.207 14.332 301.465 18.082 301.484 23.2969C301.465 28.5898 297.207 32.3203 291.758 32.3203C286.289 32.3203 282.031 28.5898 282.031 23.2969ZM286.914 23.2969C286.875 26.2656 288.965 27.9844 291.758 27.9844C294.453 27.9844 296.543 26.2656 296.562 23.2969C296.543 20.4062 294.453 18.668 291.758 18.6875C288.965 18.668 286.875 20.4062 286.914 23.2969ZM287.422 46.9688V35.0547H292.461V42.9844H312.188V46.9688H287.422Z" fill="#F0F0F1"/>
<path d="M194.828 34.4297V47.6328H189.945V38.4531H169.594V34.4297H194.828ZM165.141 31.6172V14.625H174.438V18.6094H169.984V27.5938C171.508 27.5352 172.973 27.3789 174.672 27.0469L175.102 31.0312C172.152 31.6562 169.848 31.6172 166.859 31.6172H165.141ZM176.156 31.6172V14.625H186.156V18.6094H181.117V27.6133C183.617 27.5742 185.199 27.4375 186.977 27.0078L187.406 30.9922C184.848 31.5586 182.777 31.6172 178.109 31.6172H176.156ZM184.867 24.8203V20.8359H189.945V12.0469H194.828V32.9453H189.945V24.8203H184.867ZM213.094 17.6328C213.074 21.9492 215.594 26.0898 221.219 27.8281L218.562 31.6953C214.793 30.4453 212.156 28.0234 210.633 24.918C209.09 28.4922 206.336 31.3047 202.273 32.6719L199.578 28.7656C205.516 26.793 208.055 22.0664 208.094 17.1641V13.9219H213.094V17.6328ZM204.5 40.7188C204.48 36.4023 209.188 33.8438 216.688 33.8438C224.051 33.8438 228.66 36.4023 228.68 40.7188C228.66 45.0742 224.051 47.6133 216.688 47.5938C209.188 47.6133 204.48 45.0742 204.5 40.7188ZM209.5 40.7188C209.461 42.7305 212.02 43.6875 216.688 43.6875C221.297 43.6875 223.758 42.7305 223.758 40.7188C223.758 38.7852 221.297 37.75 216.688 37.75C212.02 37.75 209.461 38.7852 209.5 40.7188ZM223.328 33.1406V12.0469H228.328V20.3672H233.133V24.5078H228.328V33.1406H223.328Z" fill="#FD4821"/>
<path d="M394.991 40.4197H402.744V46.9161H366.339V40.4197H374.092V34.4717H367.982V28.0176H373.459V19.4964H368.361V13H400.721V19.4964H395.623V28.0176H401.101V34.4717H394.991V40.4197ZM380.58 19.4964V28.0176H388.502V19.4964H380.58ZM381.212 34.4717V40.4197H387.87V34.4717H381.212Z" fill="#F0F0F1"/>
<path d="M361.757 46.9162V13.0001H354.6V46.9162H361.757Z" fill="#FD4821"/>
<path fill-rule="evenodd" clip-rule="evenodd" d="M329.763 13.0001H351.885V19.4597H351.841L351.859 19.4843L332.971 29.2359L329 23.7206L337.253 19.4597H329.763V13.0001ZM351.121 47H329V40.5404H329.044L329.026 40.5157L347.914 30.7641L351.885 36.2794L343.632 40.5404H351.121V47ZM347.888 22.3665L329 32.1181L332.971 37.6335L351.859 27.8819L347.888 22.3665Z" fill="#FD4821"/>
</svg>
