<svg width="28" height="46" viewBox="0 0 28 46" fill="none" xmlns="http://www.w3.org/2000/svg">
<path d="M19.2502 3.5C22.794 3.5 25.6668 6.41667 25.6668 10.5C25.6668 18.2321 17.8233 22.8268 14.5131 24.7791C14.195 24.9667 13.8053 24.9667 13.4872 24.7791C10.1771 22.8268 2.3335 18.2321 2.3335 10.5C2.3335 6.41667 5.25016 3.5 8.75016 3.5C10.5047 3.5 12.0915 4.26273 13.2515 5.17148C13.6862 5.51208 14.3141 5.51208 14.7489 5.17148C15.9088 4.26273 17.4956 3.5 19.2502 3.5Z" fill="#525658"/>
<path d="M9.89844 32.2344V32.8672C9.88672 33.5938 9.88672 34.6367 9.64062 35.9844L8.35156 35.8672C8.55664 34.7715 8.59766 33.9629 8.62109 33.3125H4.49609V32.2344H9.89844ZM7.22656 34.6484V36.7578C8.32227 36.7168 9.44727 36.6348 10.4727 36.4883L10.543 37.4258C8.33984 37.8242 5.84375 37.8594 3.98047 37.8711L3.86328 36.8281C4.49023 36.8223 5.19336 36.8164 5.9375 36.8047V34.6484H7.22656ZM12.4297 31.4492V34.7539H13.8008V35.8438H12.4297V39.3828H11.0938V31.4492H12.4297ZM12.7695 40.7773V41.832H5.44531V38.6797H6.75781V40.7773H12.7695ZM23.1758 31.4609V37.4492H21.8633V31.4609H23.1758ZM23.1758 37.9766V41.9141H16.1445V37.9766H23.1758ZM17.4336 39.0078V40.8594H21.8984V39.0078H17.4336ZM18.3008 32.8906C18.3008 34.2383 19.2031 35.5039 20.8555 36.0312L20.2227 37.0273C18.998 36.6465 18.1191 35.8672 17.6445 34.8477C17.1582 35.9434 16.2676 36.8164 14.9961 37.2383L14.3516 36.207C16.0742 35.6562 16.9531 34.2852 16.9531 32.8906V31.8594H18.3008V32.8906Z" fill="#525658"/>
</svg>
