<svg width="25" height="49" viewBox="0 0 25 49" fill="none" xmlns="http://www.w3.org/2000/svg">
<path d="M12.5 28.0004L11.05 26.7004C9.36667 25.1837 7.975 23.8754 6.875 22.7754C5.775 21.6754 4.9 20.6879 4.25 19.8129C3.6 18.9379 3.14583 18.1337 2.8875 17.4004C2.62917 16.6671 2.5 15.9171 2.5 15.1504C2.5 13.5837 3.025 12.2754 4.075 11.2254C5.125 10.1754 6.43333 9.65039 8 9.65039C8.86667 9.65039 9.69167 9.83372 10.475 10.2004C11.2583 10.5671 11.9333 11.0837 12.5 11.7504C13.0667 11.0837 13.7417 10.5671 14.525 10.2004C15.3083 9.83372 16.1333 9.65039 17 9.65039C18.5667 9.65039 19.875 10.1754 20.925 11.2254C21.975 12.2754 22.5 13.5837 22.5 15.1504C22.5 15.9171 22.3708 16.6671 22.1125 17.4004C21.8542 18.1337 21.4 18.9379 20.75 19.8129C20.1 20.6879 19.225 21.6754 18.125 22.7754C17.025 23.8754 15.6333 25.1837 13.95 26.7004L12.5 28.0004ZM12.5 25.3004C14.1 23.8671 15.4167 22.6379 16.45 21.6129C17.4833 20.5879 18.3 19.6962 18.9 18.9379C19.5 18.1796 19.9167 17.5046 20.15 16.9129C20.3833 16.3212 20.5 15.7337 20.5 15.1504C20.5 14.1504 20.1667 13.3171 19.5 12.6504C18.8333 11.9837 18 11.6504 17 11.6504C16.2167 11.6504 15.4917 11.8712 14.825 12.3129C14.1583 12.7546 13.7 13.3171 13.45 14.0004H11.55C11.3 13.3171 10.8417 12.7546 10.175 12.3129C9.50833 11.8712 8.78333 11.6504 8 11.6504C7 11.6504 6.16667 11.9837 5.5 12.6504C4.83333 13.3171 4.5 14.1504 4.5 15.1504C4.5 15.7337 4.61667 16.3212 4.85 16.9129C5.08333 17.5046 5.5 18.1796 6.1 18.9379C6.7 19.6962 7.51667 20.5879 8.55 21.6129C9.58333 22.6379 10.9 23.8671 12.5 25.3004Z" fill="#1F1F1F"/>
<path d="M3.91078 31.37H7.90078V32.22H3.91078V31.37ZM5.18078 33.46H6.21078V35.74H5.18078V33.46ZM7.48078 31.37H8.51078V31.9C8.51078 32.2067 8.50078 32.5867 8.48078 33.04C8.46745 33.4867 8.40411 34.0067 8.29078 34.6L7.26078 34.48C7.37411 33.9 7.43745 33.4033 7.45078 32.99C7.47078 32.57 7.48078 32.2067 7.48078 31.9V31.37ZM9.60078 30.68H10.6508V37.55H9.60078V30.68ZM10.2108 33.58H11.8608V34.44H10.2108V33.58ZM4.73078 38.79H10.9508V39.64H4.73078V38.79ZM4.73078 36.93H5.78078V39.05H4.73078V36.93ZM3.47078 36.2L3.36078 35.35C3.90078 35.35 4.49078 35.3467 5.13078 35.34C5.77745 35.3267 6.43745 35.3 7.11078 35.26C7.78411 35.2133 8.42745 35.1467 9.04078 35.06L9.11078 35.82C8.47745 35.9267 7.82745 36.01 7.16078 36.07C6.49411 36.1233 5.84411 36.1567 5.21078 36.17C4.58411 36.1833 4.00411 36.1933 3.47078 36.2ZM19.74 30.69H20.79V35.87H19.74V30.69ZM14.82 36.34H20.79V39.71H14.82V36.34ZM19.77 37.18H15.84V38.88H19.77V37.18ZM15.53 31.04H16.4V31.92C16.4 32.4867 16.2967 33.02 16.09 33.52C15.89 34.02 15.5933 34.4567 15.2 34.83C14.8133 35.2033 14.3433 35.4833 13.79 35.67L13.28 34.85C13.64 34.73 13.96 34.57 14.24 34.37C14.52 34.1633 14.7567 33.93 14.95 33.67C15.1433 33.41 15.2867 33.13 15.38 32.83C15.48 32.53 15.53 32.2267 15.53 31.92V31.04ZM15.74 31.04H16.59V31.92C16.59 32.22 16.64 32.5133 16.74 32.8C16.84 33.08 16.9833 33.3433 17.17 33.59C17.3633 33.83 17.5967 34.0467 17.87 34.24C18.15 34.4267 18.4667 34.5767 18.82 34.69L18.31 35.5C17.9033 35.3667 17.54 35.1867 17.22 34.96C16.9067 34.7267 16.6367 34.4533 16.41 34.14C16.19 33.8267 16.0233 33.4833 15.91 33.11C15.7967 32.73 15.74 32.3333 15.74 31.92V31.04Z" fill="black"/>
</svg>
