<svg width="15" height="18" viewBox="0 0 15 18" fill="none" xmlns="http://www.w3.org/2000/svg">
<path d="M7.5 11.3C8.35 10.5167 9.0375 9.87083 9.5625 9.3625C10.0875 8.85417 10.4917 8.41667 10.775 8.05C11.0583 7.68333 11.25 7.3625 11.35 7.0875C11.45 6.8125 11.5 6.51667 11.5 6.2C11.5 5.6 11.2833 5.08333 10.85 4.65C10.4167 4.21667 9.9 4 9.3 4C8.95 4 8.6125 4.07083 8.2875 4.2125C7.9625 4.35417 7.7 4.55 7.5 4.8C7.3 4.55 7.04167 4.35417 6.725 4.2125C6.40833 4.07083 6.06667 4 5.7 4C5.1 4 4.58333 4.21667 4.15 4.65C3.71667 5.08333 3.5 5.6 3.5 6.2C3.5 6.51667 3.54583 6.80833 3.6375 7.075C3.72917 7.34167 3.91667 7.65833 4.2 8.025C4.48333 8.39167 4.88333 8.82917 5.4 9.3375C5.91667 9.84583 6.61667 10.5 7.5 11.3ZM0.5 18V2C0.5 1.45 0.695833 0.979167 1.0875 0.5875C1.47917 0.195833 1.95 0 2.5 0H12.5C13.05 0 13.5208 0.195833 13.9125 0.5875C14.3042 0.979167 14.5 1.45 14.5 2V18L7.5 15L0.5 18ZM2.5 14.95L7.5 12.8L12.5 14.95V2H2.5V14.95Z" fill="#1F1F1F"/>
</svg>
