<svg width="28" height="46" viewBox="0 0 28 46" fill="none" xmlns="http://www.w3.org/2000/svg">
<path d="M24.5 23.3332C24.5 23.9776 23.9777 24.4999 23.3333 24.4999H4.66667C4.02234 24.4999 3.5 23.9776 3.5 23.3332V11.0705C3.5 10.7104 3.66622 10.3706 3.9504 10.1496L13.2838 2.89028C13.7051 2.56261 14.2949 2.56261 14.7162 2.89028L24.0495 10.1496C24.3337 10.3706 24.5 10.7104 24.5 11.0705V23.3332ZM14 15.1665C13.3557 15.1665 12.8333 15.6889 12.8333 16.3332V20.9999C12.8333 21.6442 13.3557 22.1665 14 22.1665C14.6443 22.1665 15.1667 21.6442 15.1667 20.9999V16.3332C15.1667 15.6889 14.6443 15.1665 14 15.1665Z" fill="#525658"/>
<path d="M17.6504 38.832V41.9141H10.3027V38.832H17.6504ZM11.5918 39.8164V40.9297H16.3848V39.8164H11.5918ZM18.2949 32.2578V33.2422H9.64648V32.2578H13.3379V31.332H14.6387V32.2578H18.2949ZM13.9824 33.5703C16.2441 33.5703 17.5098 34.0742 17.5098 35.0703C17.5098 35.9668 16.4902 36.4707 14.6387 36.5586V37.1797H18.8223V38.2109H9.16602V37.1797H13.3379V36.5586C11.498 36.4766 10.4668 35.9668 10.4668 35.0703C10.4668 34.0742 11.7441 33.5703 13.9824 33.5703ZM13.9824 34.4492C12.5762 34.4609 11.8613 34.6367 11.8613 35.0703C11.8613 35.4922 12.5762 35.6914 13.9824 35.6914C15.4004 35.6914 16.1152 35.4922 16.1152 35.0703C16.1152 34.6367 15.4004 34.4609 13.9824 34.4492Z" fill="#525658"/>
</svg>
