<svg width="24" height="49" viewBox="0 0 24 49" fill="none" xmlns="http://www.w3.org/2000/svg">
<path d="M6 26H9V20H15V26H18V17L12 12.5L6 17V26ZM4 28V16L12 10L20 16V28H13V22H11V28H4Z" fill="#1F1F1F"/>
<path d="M8.85039 37.08H15.1204V39.71H8.85039V37.08ZM14.0904 37.86H9.87039V38.93H14.0904V37.86ZM8.27039 31.39H15.6604V32.19H8.27039V31.39ZM11.9904 32.49C12.9504 32.49 13.6871 32.6 14.2004 32.82C14.7204 33.04 14.9804 33.3633 14.9804 33.79C14.9804 34.2167 14.7204 34.54 14.2004 34.76C13.6871 34.98 12.9504 35.09 11.9904 35.09C11.0304 35.09 10.2904 34.98 9.77039 34.76C9.25039 34.54 8.99039 34.2167 8.99039 33.79C8.99039 33.3633 9.25039 33.04 9.77039 32.82C10.2904 32.6 11.0304 32.49 11.9904 32.49ZM11.9904 33.21C11.3704 33.21 10.9004 33.26 10.5804 33.36C10.2671 33.4533 10.1104 33.5967 10.1104 33.79C10.1104 33.9833 10.2671 34.13 10.5804 34.23C10.9004 34.3233 11.3704 34.37 11.9904 34.37C12.6104 34.37 13.0771 34.3233 13.3904 34.23C13.7104 34.13 13.8704 33.9833 13.8704 33.79C13.8704 33.5967 13.7104 33.4533 13.3904 33.36C13.0771 33.26 12.6104 33.21 11.9904 33.21ZM11.4704 30.58H12.5104V31.94H11.4704V30.58ZM7.86039 35.67H16.1204V36.48H7.86039V35.67ZM11.4704 34.84H12.5104V36.11H11.4704V34.84Z" fill="black"/>
</svg>
