<svg width="20" height="18" viewBox="0 0 20 18" fill="none" xmlns="http://www.w3.org/2000/svg">
<path d="M2.99994 18C2.14994 18 1.54577 17.6208 1.18744 16.8625C0.829107 16.1042 0.916607 15.4 1.44994 14.75L6.99994 8V2H5.99994C5.71661 2 5.47911 1.90417 5.28744 1.7125C5.09577 1.52083 4.99994 1.28333 4.99994 1C4.99994 0.716667 5.09577 0.479167 5.28744 0.2875C5.47911 0.0958333 5.71661 0 5.99994 0H13.9999C14.2833 0 14.5208 0.0958333 14.7124 0.2875C14.9041 0.479167 14.9999 0.716667 14.9999 1C14.9999 1.28333 14.9041 1.52083 14.7124 1.7125C14.5208 1.90417 14.2833 2 13.9999 2H12.9999V8L18.5499 14.75C19.0833 15.4 19.1708 16.1042 18.8124 16.8625C18.4541 17.6208 17.8499 18 16.9999 18H2.99994ZM2.99994 16H16.9999L10.9999 8.7V2H8.99994V8.7L2.99994 16Z" fill="#1F1F1F"/>
</svg>
