<svg width="33" height="46" viewBox="0 0 33 46" fill="none" xmlns="http://www.w3.org/2000/svg">
<path d="M21.166 2.33301V4.66634H19.9993V8.44974C19.9993 9.80027 20.2924 11.1347 20.8583 12.361L25.8532 23.183C26.2581 24.0605 25.8751 25.1003 24.9975 25.5052C24.7676 25.6114 24.5175 25.6663 24.2642 25.6663H8.73438C7.76787 25.6663 6.98438 24.8828 6.98438 23.9163C6.98438 23.6631 7.03933 23.4129 7.14545 23.183L12.1402 12.361C12.7062 11.1347 12.9993 9.80027 12.9993 8.44974V4.66634H11.8326V2.33301H21.166ZM17.666 4.66634H15.3326V9.33301H17.666V4.66634Z" fill="#525658"/>
<path d="M10.0957 31.4492V36.8516H8.80664V31.4492H10.0957ZM10.1191 37.3438V40.0977H4.38867V40.918H10.4355V41.9492H3.11133V39.125H8.81836V38.3516H3.08789V37.3438H10.1191ZM5.24414 32.5273C5.24414 33.875 6.13477 35.1406 7.81055 35.6445L7.17773 36.6523C5.94727 36.2773 5.06836 35.4863 4.58789 34.4727C4.10742 35.5742 3.20508 36.4355 1.93945 36.8398L1.2832 35.8203C2.99414 35.2695 3.89648 33.9102 3.89648 32.5273V31.707H5.24414V32.5273ZM20.5371 31.4492V37.8594H19.2363V35.668H17.7246V34.5898H19.2363V31.4492H20.5371ZM20.5371 38.3398V41.9141H13.4941V38.3398H20.5371ZM14.7949 39.3711V40.8594H19.2598V39.3711H14.7949ZM17.9004 32.4336V33.4883H11.6895V32.4336H14.1504V31.3672H15.4395V32.4336H17.9004ZM14.7949 33.8984C16.2715 33.8984 17.3027 34.6836 17.3145 35.7969C17.3027 36.9453 16.2715 37.6953 14.7949 37.6953C13.3301 37.6953 12.2871 36.9453 12.2871 35.7969C12.2871 34.6836 13.3301 33.8984 14.7949 33.8984ZM14.7949 34.8828C14.0332 34.8828 13.5293 35.2344 13.5293 35.7969C13.5293 36.3828 14.0332 36.7227 14.7949 36.7227C15.5566 36.7227 16.0605 36.3828 16.0605 35.7969C16.0605 35.2344 15.5566 34.8828 14.7949 34.8828ZM30.8379 31.4492V36.8516H29.5488V31.4492H30.8379ZM30.8613 37.3438V40.0977H25.1309V40.918H31.1777V41.9492H23.8535V39.125H29.5605V38.3516H23.8301V37.3438H30.8613ZM25.9863 32.5273C25.9863 33.875 26.877 35.1406 28.5527 35.6445L27.9199 36.6523C26.6895 36.2773 25.8105 35.4863 25.3301 34.4727C24.8496 35.5742 23.9473 36.4355 22.6816 36.8398L22.0254 35.8203C23.7363 35.2695 24.6387 33.9102 24.6387 32.5273V31.707H25.9863V32.5273Z" fill="#525658"/>
</svg>
