<svg width="30" height="49" viewBox="0 0 30 49" fill="none" xmlns="http://www.w3.org/2000/svg">
<path d="M7.99994 25C7.14994 25 6.54577 24.6208 6.18744 23.8625C5.82911 23.1042 5.91661 22.4 6.44994 21.75L11.9999 15V9H10.9999C10.7166 9 10.4791 8.90417 10.2874 8.7125C10.0958 8.52083 9.99994 8.28333 9.99994 8C9.99994 7.71667 10.0958 7.47917 10.2874 7.2875C10.4791 7.09583 10.7166 7 10.9999 7H18.9999C19.2833 7 19.5208 7.09583 19.7124 7.2875C19.9041 7.47917 19.9999 7.71667 19.9999 8C19.9999 8.28333 19.9041 8.52083 19.7124 8.7125C19.5208 8.90417 19.2833 9 18.9999 9H17.9999V15L23.5499 21.75C24.0833 22.4 24.1708 23.1042 23.8124 23.8625C23.4541 24.6208 22.8499 25 21.9999 25H7.99994ZM7.99994 23H21.9999L15.9999 15.7V9H13.9999V15.7L7.99994 23Z" fill="#1F1F1F"/>
<path d="M7.54117 30.69H8.59117V35.36H7.54117V30.69ZM2.60117 35.8H8.59117V38.12H3.65117V39.23H2.62117V37.36H7.56117V36.62H2.60117V35.8ZM2.62117 38.92H8.87117V39.74H2.62117V38.92ZM3.33117 30.93H4.20117V31.62C4.20117 32.18 4.09784 32.71 3.89117 33.21C3.69117 33.7033 3.39451 34.1367 3.00117 34.51C2.6145 34.8767 2.1445 35.1533 1.59117 35.34L1.07117 34.51C1.43784 34.39 1.76117 34.23 2.04117 34.03C2.32117 33.83 2.5545 33.6033 2.74117 33.35C2.9345 33.09 3.08117 32.8133 3.18117 32.52C3.28117 32.2267 3.33117 31.9267 3.33117 31.62V30.93ZM3.54117 30.93H4.39117V31.62C4.39117 31.9133 4.44117 32.2 4.54117 32.48C4.64784 32.76 4.79451 33.0233 4.98117 33.27C5.1745 33.51 5.40784 33.7233 5.68117 33.91C5.95451 34.09 6.26784 34.2367 6.62117 34.35L6.11117 35.17C5.7045 35.0367 5.34117 34.8567 5.02117 34.63C4.70784 34.3967 4.43784 34.1233 4.21117 33.81C3.99117 33.4967 3.8245 33.1567 3.71117 32.79C3.59784 32.4233 3.54117 32.0333 3.54117 31.62V30.93ZM17.3804 30.69H18.4304V36.21H17.3804V30.69ZM16.0304 33.41H17.8304V34.27H16.0304V33.41ZM12.4304 36.65H18.4304V39.71H12.4304V36.65ZM17.4104 37.49H13.4604V38.88H17.4104V37.49ZM10.8804 31.57H16.1904V32.4H10.8804V31.57ZM13.5304 32.8C13.9504 32.8 14.3204 32.87 14.6404 33.01C14.9671 33.1433 15.2204 33.3333 15.4004 33.58C15.5871 33.8267 15.6804 34.11 15.6804 34.43C15.6804 34.7567 15.5871 35.0433 15.4004 35.29C15.2204 35.53 14.9671 35.72 14.6404 35.86C14.3204 35.9933 13.9504 36.06 13.5304 36.06C13.1171 36.06 12.7471 35.9933 12.4204 35.86C12.1004 35.72 11.8471 35.53 11.6604 35.29C11.4804 35.0433 11.3904 34.7567 11.3904 34.43C11.3904 34.11 11.4804 33.8267 11.6604 33.58C11.8471 33.3333 12.1004 33.1433 12.4204 33.01C12.7471 32.87 13.1171 32.8 13.5304 32.8ZM13.5404 33.58C13.3137 33.58 13.1137 33.6167 12.9404 33.69C12.7671 33.7567 12.6304 33.8533 12.5304 33.98C12.4371 34.1067 12.3904 34.2567 12.3904 34.43C12.3904 34.6033 12.4371 34.7567 12.5304 34.89C12.6304 35.0167 12.7671 35.1133 12.9404 35.18C13.1137 35.2467 13.3104 35.28 13.5304 35.28C13.7571 35.28 13.9571 35.2467 14.1304 35.18C14.3037 35.1133 14.4371 35.0167 14.5304 34.89C14.6304 34.7567 14.6804 34.6033 14.6804 34.43C14.6804 34.2567 14.6304 34.1067 14.5304 33.98C14.4371 33.8533 14.3037 33.7567 14.1304 33.69C13.9571 33.6167 13.7604 33.58 13.5404 33.58ZM13.0104 30.6H14.0604V32.16H13.0104V30.6ZM27.1396 30.69H28.1896V35.36H27.1396V30.69ZM22.1996 35.8H28.1896V38.12H23.2496V39.23H22.2196V37.36H27.1596V36.62H22.1996V35.8ZM22.2196 38.92H28.4696V39.74H22.2196V38.92ZM22.9296 30.93H23.7996V31.62C23.7996 32.18 23.6963 32.71 23.4896 33.21C23.2896 33.7033 22.9929 34.1367 22.5996 34.51C22.2129 34.8767 21.7429 35.1533 21.1896 35.34L20.6696 34.51C21.0363 34.39 21.3596 34.23 21.6396 34.03C21.9196 33.83 22.1529 33.6033 22.3396 33.35C22.5329 33.09 22.6796 32.8133 22.7796 32.52C22.8796 32.2267 22.9296 31.9267 22.9296 31.62V30.93ZM23.1396 30.93H23.9896V31.62C23.9896 31.9133 24.0396 32.2 24.1396 32.48C24.2463 32.76 24.3929 33.0233 24.5796 33.27C24.7729 33.51 25.0063 33.7233 25.2796 33.91C25.5529 34.09 25.8663 34.2367 26.2196 34.35L25.7096 35.17C25.3029 35.0367 24.9396 34.8567 24.6196 34.63C24.3063 34.3967 24.0363 34.1233 23.8096 33.81C23.5896 33.4967 23.4229 33.1567 23.3096 32.79C23.1963 32.4233 23.1396 32.0333 23.1396 31.62V30.93Z" fill="black"/>
</svg>
