<svg width="24" height="49" viewBox="0 0 24 49" fill="none" xmlns="http://www.w3.org/2000/svg">
<path d="M5.85 24.1C6.7 23.45 7.65 22.9375 8.7 22.5625C9.75 22.1875 10.85 22 12 22C13.15 22 14.25 22.1875 15.3 22.5625C16.35 22.9375 17.3 23.45 18.15 24.1C18.7333 23.4167 19.1875 22.6417 19.5125 21.775C19.8375 20.9083 20 19.9833 20 19C20 16.7833 19.2208 14.8958 17.6625 13.3375C16.1042 11.7792 14.2167 11 12 11C9.78333 11 7.89583 11.7792 6.3375 13.3375C4.77917 14.8958 4 16.7833 4 19C4 19.9833 4.1625 20.9083 4.4875 21.775C4.8125 22.6417 5.26667 23.4167 5.85 24.1ZM12 20C11.0167 20 10.1875 19.6625 9.5125 18.9875C8.8375 18.3125 8.5 17.4833 8.5 16.5C8.5 15.5167 8.8375 14.6875 9.5125 14.0125C10.1875 13.3375 11.0167 13 12 13C12.9833 13 13.8125 13.3375 14.4875 14.0125C15.1625 14.6875 15.5 15.5167 15.5 16.5C15.5 17.4833 15.1625 18.3125 14.4875 18.9875C13.8125 19.6625 12.9833 20 12 20ZM12 29C10.6167 29 9.31667 28.7375 8.1 28.2125C6.88333 27.6875 5.825 26.975 4.925 26.075C4.025 25.175 3.3125 24.1167 2.7875 22.9C2.2625 21.6833 2 20.3833 2 19C2 17.6167 2.2625 16.3167 2.7875 15.1C3.3125 13.8833 4.025 12.825 4.925 11.925C5.825 11.025 6.88333 10.3125 8.1 9.7875C9.31667 9.2625 10.6167 9 12 9C13.3833 9 14.6833 9.2625 15.9 9.7875C17.1167 10.3125 18.175 11.025 19.075 11.925C19.975 12.825 20.6875 13.8833 21.2125 15.1C21.7375 16.3167 22 17.6167 22 19C22 20.3833 21.7375 21.6833 21.2125 22.9C20.6875 24.1167 19.975 25.175 19.075 26.075C18.175 26.975 17.1167 27.6875 15.9 28.2125C14.6833 28.7375 13.3833 29 12 29ZM12 27C12.8833 27 13.7167 26.8708 14.5 26.6125C15.2833 26.3542 16 25.9833 16.65 25.5C16 25.0167 15.2833 24.6458 14.5 24.3875C13.7167 24.1292 12.8833 24 12 24C11.1167 24 10.2833 24.1292 9.5 24.3875C8.71667 24.6458 8 25.0167 7.35 25.5C8 25.9833 8.71667 26.3542 9.5 26.6125C10.2833 26.8708 11.1167 27 12 27ZM12 18C12.4333 18 12.7917 17.8583 13.075 17.575C13.3583 17.2917 13.5 16.9333 13.5 16.5C13.5 16.0667 13.3583 15.7083 13.075 15.425C12.7917 15.1417 12.4333 15 12 15C11.5667 15 11.2083 15.1417 10.925 15.425C10.6417 15.7083 10.5 16.0667 10.5 16.5C10.5 16.9333 10.6417 17.2917 10.925 17.575C11.2083 17.8583 11.5667 18 12 18Z" fill="#1F1F1F"/>
<path d="M5.79988 39V31.63H7.13988L8.47988 35.36C8.56655 35.6 8.64988 35.8467 8.72988 36.1C8.80988 36.3467 8.88988 36.5933 8.96988 36.84H9.01988C9.10655 36.5933 9.18655 36.3467 9.25988 36.1C9.33988 35.8467 9.41988 35.6 9.49988 35.36L10.8199 31.63H12.1699V39H11.0899V35.36C11.0899 35.14 11.0965 34.8967 11.1099 34.63C11.1299 34.3633 11.1499 34.0933 11.1699 33.82C11.1965 33.5467 11.2232 33.3 11.2499 33.08H11.1999L10.6099 34.78L9.32988 38.29H8.60988L7.31988 34.78L6.72988 33.08H6.68988C6.71655 33.3 6.73988 33.5467 6.75988 33.82C6.78655 34.0933 6.80655 34.3633 6.81988 34.63C6.83988 34.8967 6.84988 35.14 6.84988 35.36V39H5.79988ZM14.8607 41.3C14.714 41.3 14.584 41.29 14.4707 41.27C14.364 41.25 14.2607 41.2233 14.1607 41.19L14.3807 40.29C14.434 40.3033 14.4973 40.32 14.5707 40.34C14.644 40.36 14.7173 40.37 14.7907 40.37C15.0907 40.37 15.3307 40.27 15.5107 40.07C15.6907 39.8767 15.8307 39.6333 15.9307 39.34L16.0507 38.96L13.8707 33.49H15.0407L16.0507 36.33C16.1373 36.5767 16.2207 36.8333 16.3007 37.1C16.3873 37.36 16.474 37.62 16.5607 37.88H16.6107C16.6773 37.6267 16.7473 37.3667 16.8207 37.1C16.894 36.8333 16.9673 36.5767 17.0407 36.33L17.9307 33.49H19.0407L17.0207 39.33C16.8807 39.7233 16.714 40.0667 16.5207 40.36C16.334 40.66 16.1073 40.89 15.8407 41.05C15.574 41.2167 15.2473 41.3 14.8607 41.3Z" fill="black"/>
</svg>
