<svg width="28" height="46" viewBox="0 0 28 46" fill="none" xmlns="http://www.w3.org/2000/svg">
<path d="M14 16.4307C16.3962 16.4307 18.7158 17.1094 20.5303 18.3213V18.3223C22.4352 19.5959 23.6735 21.3599 24.1582 23.4521L24.2451 23.875C24.3041 24.2022 24.2384 24.5026 24.0918 24.7275L24.0244 24.8193L24.0234 24.8203C23.937 24.9242 23.8282 25.0071 23.7061 25.0635C23.6144 25.1057 23.5168 25.1327 23.417 25.1426L23.3164 25.1465H4.68262C4.54843 25.1482 4.41504 25.1198 4.29297 25.0635C4.20147 25.0212 4.11749 24.9643 4.04492 24.8945L3.97656 24.8203H3.97559C3.8067 24.6178 3.7131 24.3331 3.7373 24.0146L3.75488 23.876C4.13873 21.7405 5.2817 19.9218 7.09766 18.583L7.46973 18.3223C9.28418 17.1098 11.6034 16.4307 14 16.4307ZM14 2.85352C15.305 2.85352 16.4756 3.32383 17.3447 4.1709L17.5146 4.3457C18.353 5.25358 18.7995 6.46563 18.7646 7.7998L18.751 8.06836C18.5334 11.0253 16.3124 13.2666 14 13.2666C11.7593 13.2666 9.60179 11.1627 9.27441 8.34375L9.24902 8.06836C9.15054 6.70082 9.53794 5.45851 10.3164 4.51953L10.4766 4.33496C11.3534 3.38704 12.5964 2.85352 14 2.85352Z" fill="#525658" stroke="#525658" stroke-width="1.46683"/>
<path d="M9.37109 32.4805V39.418H4.35547V32.4805H9.37109ZM5.63281 33.5V38.375H8.07031V33.5H5.63281ZM12.2773 31.4492V35.5156H13.9062V36.6172H12.2773V42.043H10.9766V31.4492H12.2773ZM23.1641 31.4492V42.0547H21.8516V31.4492H23.1641ZM17.457 32.2227C19.0508 32.2227 20.2109 33.6758 20.2227 35.9609C20.2109 38.2695 19.0508 39.7109 17.457 39.7109C15.8516 39.7109 14.6914 38.2695 14.6914 35.9609C14.6914 33.6758 15.8516 32.2227 17.457 32.2227ZM17.457 33.3945C16.5547 33.3945 15.9453 34.3438 15.9453 35.9609C15.9453 37.5898 16.5547 38.5391 17.457 38.5391C18.3477 38.5391 18.957 37.5898 18.957 35.9609C18.957 34.3438 18.3477 33.3945 17.457 33.3945Z" fill="#525658"/>
</svg>
