<svg width="28" height="46" viewBox="0 0 28 46" fill="none" xmlns="http://www.w3.org/2000/svg">
<path d="M21.8159 18.056C21.9589 18.2543 21.892 18.5334 21.6747 18.6454L17.7196 20.6849C17.3468 20.8771 17.4835 21.4404 17.9029 21.4404H21.1483C21.3693 21.4404 21.5483 21.6195 21.5483 21.8404V25.6C21.5483 25.8209 21.3693 26 21.1483 26H6.3126C6.09168 26 5.9126 25.8209 5.9126 25.6V21.4507C5.9126 21.445 5.91718 21.4404 5.92284 21.4404H5.92927C5.93494 21.4404 5.93823 21.434 5.93491 21.4294C5.93242 21.426 5.93358 21.4211 5.93736 21.4191L18.9745 14.697C19.1505 14.6062 19.3665 14.6579 19.4823 14.8186L21.8159 18.056ZM21.7973 12.1282C21.9403 12.3266 21.8735 12.6056 21.6562 12.7177L9.02455 19.2307C8.84852 19.3215 8.63257 19.2698 8.51675 19.1091L6.18312 15.8718C6.04016 15.6734 6.10699 15.3944 6.32429 15.2823L18.9559 8.76926C19.132 8.67849 19.3479 8.73021 19.4637 8.89088L21.7973 12.1282ZM22.0874 6.54875C22.0874 6.55473 22.0826 6.55957 22.0766 6.55957H22.0696C22.0636 6.55957 22.0602 6.56639 22.0638 6.57122C22.0664 6.57484 22.0652 6.57999 22.0612 6.58206L9.02455 13.304C8.84852 13.3948 8.63257 13.343 8.51675 13.1824L6.18312 9.94499C6.04015 9.74667 6.10698 9.46762 6.32428 9.35557L10.2814 7.31509C10.6542 7.12287 10.5175 6.55957 10.0981 6.55957H6.85166C6.63075 6.55957 6.45166 6.38048 6.45166 6.15957V2.4C6.45166 2.17909 6.63075 2 6.85166 2H21.6874C21.9083 2 22.0874 2.17909 22.0874 2.4V6.54875Z" fill="#525658"/>
<path d="M13.6367 36.6523V37.6953H3.98047V36.6523H6.53516V35.3867H7.82422V36.6523H9.79297V35.3867H11.0703V36.6523H13.6367ZM9.45312 38.5039C9.45312 39.6992 10.7305 40.7188 12.9336 40.9883L12.4648 41.9961C10.7363 41.75 9.42383 41.0527 8.78516 40.0273C8.13477 41.0527 6.82812 41.75 5.11719 41.9961L4.64844 40.9883C6.83984 40.7188 8.11719 39.6992 8.11719 38.5039V38.2695H9.45312V38.5039ZM9.45312 31.9648C9.45312 33.207 10.8828 34.3086 13.1094 34.5664L12.6172 35.5625C10.8594 35.3223 9.45898 34.5898 8.78516 33.5117C8.10547 34.5781 6.72266 35.3223 4.97656 35.5625L4.48438 34.5664C6.69922 34.2969 8.12891 33.1836 8.12891 31.9648V31.5664H9.45312V31.9648ZM24.0195 37.5078V38.5625H21.7461V42.043H20.4453V38.5625H17.9375V42.043H16.6016V38.5625H14.3398V37.5078H24.0195ZM16.8008 31.8594V33.125H21.5352V31.8594H22.8477V36.4297H15.5117V31.8594H16.8008ZM16.8008 35.3867H21.5352V34.1445H16.8008V35.3867Z" fill="#525658"/>
</svg>
