<svg width="26" height="13" viewBox="0 0 26 13" fill="none" xmlns="http://www.w3.org/2000/svg">
<path d="M0.497682 6.20813H12.0309V7.381H0.497682V6.20813ZM5.49633 8.10706H6.75298V8.41424C6.75298 8.97275 6.63197 9.48472 6.38995 9.95014C6.14793 10.4156 5.80817 10.8298 5.37067 11.1928C4.93317 11.5465 4.41655 11.8444 3.82081 12.0864C3.22506 12.3285 2.56416 12.5007 1.8381 12.6031L1.32148 11.4721C1.95446 11.3883 2.52693 11.2533 3.0389 11.0672C3.55086 10.881 3.98836 10.6529 4.35139 10.383C4.72373 10.113 5.00764 9.81051 5.20312 9.47541C5.39859 9.1403 5.49633 8.78658 5.49633 8.41424V8.10706ZM5.74766 8.10706H6.99034V8.41424C6.99034 8.78658 7.08808 9.1403 7.28356 9.47541C7.47904 9.81051 7.75829 10.113 8.12132 10.383C8.49366 10.6529 8.93581 10.881 9.44778 11.0672C9.95975 11.2533 10.5369 11.3883 11.1792 11.4721L10.6486 12.6031C9.93182 12.5007 9.27092 12.3285 8.66587 12.0864C8.07013 11.8444 7.55351 11.5465 7.11601 11.1928C6.67851 10.8298 6.33875 10.4156 6.09673 9.95014C5.86402 9.48472 5.74766 8.97275 5.74766 8.41424V8.10706ZM5.49633 0.0226517H6.76694V0.511346C6.76694 0.967462 6.68316 1.39565 6.51561 1.79592C6.34806 2.19618 6.11069 2.56387 5.80351 2.89897C5.49633 3.22477 5.12865 3.52264 4.70046 3.79258C4.28158 4.05322 3.8115 4.27197 3.29022 4.44883C2.77826 4.62569 2.22906 4.75601 1.64262 4.83979L1.11204 3.69484C1.62401 3.62969 2.10339 3.52729 2.5502 3.38766C2.99701 3.24804 3.40193 3.08049 3.76496 2.88501C4.12799 2.68022 4.43982 2.45216 4.70046 2.20083C4.9611 1.94951 5.15657 1.67956 5.28689 1.391C5.42652 1.10243 5.49633 0.809217 5.49633 0.511346V0.0226517ZM5.7337 0.0226517H6.99034V0.511346C6.99034 0.818526 7.06016 1.1164 7.19978 1.40496C7.33941 1.69352 7.53954 1.96347 7.80018 2.2148C8.06082 2.46613 8.368 2.69418 8.72172 2.89897C9.08475 3.09445 9.48967 3.262 9.93647 3.40163C10.3833 3.53195 10.8627 3.62969 11.3746 3.69484L10.8441 4.83979C10.2669 4.7467 9.72238 4.61638 9.21041 4.44883C8.69845 4.27197 8.22837 4.05322 7.80018 3.79258C7.37199 3.53195 7.00431 3.23407 6.69713 2.89897C6.38995 2.56387 6.15258 2.20083 5.98503 1.80988C5.81747 1.40961 5.7337 0.97677 5.7337 0.511346V0.0226517ZM3.56948 4.64431H5.03556V6.99004H3.56948V4.64431ZM7.493 4.64431H8.94512V6.99004H7.493V4.64431ZM16.6929 7.43685H18.159V12.6589H16.6929V7.43685ZM21.2587 7.43685H22.7248V12.6589H21.2587V7.43685ZM13.9423 7.24137H25.5034V8.4282H13.9423V7.24137ZM15.3246 0.371719H16.7907V1.94951H22.6271V0.371719H24.0653V5.87303H15.3246V0.371719ZM16.7907 3.10841V4.6862H22.6271V3.10841H16.7907Z" fill="black"/>
</svg>
