<svg width="24" height="49" viewBox="0 0 24 49" fill="none" xmlns="http://www.w3.org/2000/svg">
<g clip-path="url(#clip0_238_559)">
<mask id="path-1-inside-1_238_559" fill="white">
<path d="M18.897 21.3242L13.4038 23.5801H18.3882V27H3.6665V23.5801H3.69678L3.68506 23.5674L16.2544 18.4043L18.897 21.3242ZM18.8784 16.8789L6.30908 22.041L3.6665 19.1211L16.2358 13.959L18.8784 16.8789ZM18.895 12.4199H18.8667L18.8784 12.4326L6.30908 17.5957L3.6665 14.6758L9.15967 12.4199H4.17334V9H18.895V12.4199Z"/>
</mask>
<path d="M18.897 21.3242L19.2769 22.2493L20.5935 21.7085L19.6384 20.6532L18.897 21.3242ZM13.4038 23.5801L13.0239 22.655L13.4038 24.5801V23.5801ZM18.3882 23.5801H19.3882V22.5801H18.3882V23.5801ZM18.3882 27V28H19.3882V27H18.3882ZM3.6665 27H2.6665V28H3.6665V27ZM3.6665 23.5801V22.5801H2.6665V23.5801H3.6665ZM3.69678 23.5801V24.5801H5.98076L4.43158 22.9018L3.69678 23.5801ZM3.68506 23.5674L3.3051 22.6424L1.97474 23.1889L2.95026 24.2457L3.68506 23.5674ZM16.2544 18.4043L16.9958 17.7333L16.5244 17.2123L15.8744 17.4793L16.2544 18.4043ZM18.8784 16.8789L19.2583 17.8039L20.5749 17.2632L19.6199 16.2079L18.8784 16.8789ZM6.30908 22.041L5.56764 22.712L6.03908 23.233L6.68898 22.966L6.30908 22.041ZM3.6665 19.1211L3.2866 18.1961L1.96998 18.7368L2.92506 19.7921L3.6665 19.1211ZM16.2358 13.959L16.9773 13.288L16.5058 12.767L15.8559 13.034L16.2358 13.959ZM18.895 12.4199V13.4199H19.895V12.4199H18.895ZM18.8667 12.4199V11.4199H16.5827L18.1319 13.0982L18.8667 12.4199ZM18.8784 12.4326L19.2584 13.3576L20.5887 12.8111L19.6132 11.7543L18.8784 12.4326ZM6.30908 17.5957L5.56764 18.2667L6.03911 18.7877L6.68904 18.5207L6.30908 17.5957ZM3.6665 14.6758L3.28662 13.7507L1.96996 14.2915L2.92506 15.3468L3.6665 14.6758ZM9.15967 12.4199L9.53955 13.345L9.15967 11.4199V12.4199ZM4.17334 12.4199H3.17334V13.4199H4.17334V12.4199ZM4.17334 9V8H3.17334V9H4.17334ZM18.895 9H19.895V8H18.895V9ZM18.897 21.3242L18.5171 20.3992L13.0239 22.655L13.4038 23.5801L13.7837 24.5051L19.2769 22.2493L18.897 21.3242ZM13.4038 23.5801V24.5801H18.3882V23.5801V22.5801H13.4038V23.5801ZM18.3882 23.5801H17.3882V27H18.3882H19.3882V23.5801H18.3882ZM18.3882 27V26H3.6665V27V28H18.3882V27ZM3.6665 27H4.6665V23.5801H3.6665H2.6665V27H3.6665ZM3.6665 23.5801V24.5801H3.69678V23.5801V22.5801H3.6665V23.5801ZM3.69678 23.5801L4.43158 22.9018L4.41986 22.8891L3.68506 23.5674L2.95026 24.2457L2.96197 24.2584L3.69678 23.5801ZM3.68506 23.5674L4.06502 24.4924L16.6344 19.3293L16.2544 18.4043L15.8744 17.4793L3.3051 22.6424L3.68506 23.5674ZM16.2544 18.4043L15.513 19.0753L18.1555 21.9952L18.897 21.3242L19.6384 20.6532L16.9958 17.7333L16.2544 18.4043ZM18.8784 16.8789L18.4985 15.9539L5.92918 21.116L6.30908 22.041L6.68898 22.966L19.2583 17.8039L18.8784 16.8789ZM6.30908 22.041L7.05052 21.37L4.40795 18.4501L3.6665 19.1211L2.92506 19.7921L5.56764 22.712L6.30908 22.041ZM3.6665 19.1211L4.0464 20.0461L16.6157 14.884L16.2358 13.959L15.8559 13.034L3.2866 18.1961L3.6665 19.1211ZM16.2358 13.959L15.4944 14.63L18.137 17.5499L18.8784 16.8789L19.6199 16.2079L16.9773 13.288L16.2358 13.959ZM18.895 12.4199V11.4199H18.8667V12.4199V13.4199H18.895V12.4199ZM18.8667 12.4199L18.1319 13.0982L18.1436 13.1109L18.8784 12.4326L19.6132 11.7543L19.6015 11.7416L18.8667 12.4199ZM18.8784 12.4326L18.4985 11.5076L5.92912 16.6707L6.30908 17.5957L6.68904 18.5207L19.2584 13.3576L18.8784 12.4326ZM6.30908 17.5957L7.05052 16.9247L4.40795 14.0048L3.6665 14.6758L2.92506 15.3468L5.56764 18.2667L6.30908 17.5957ZM3.6665 14.6758L4.04639 15.6008L9.53955 13.345L9.15967 12.4199L8.77979 11.4949L3.28662 13.7507L3.6665 14.6758ZM9.15967 12.4199V11.4199H4.17334V12.4199V13.4199H9.15967V12.4199ZM4.17334 12.4199H5.17334V9H4.17334H3.17334V12.4199H4.17334ZM4.17334 9V10H18.895V9V8H4.17334V9ZM18.895 9H17.895V12.4199H18.895H19.895V9H18.895Z" fill="black" mask="url(#path-1-inside-1_238_559)"/>
</g>
<path d="M2.96078 35.21H11.2208V36.05H2.96078V35.21ZM6.54078 36.57H7.44078V36.79C7.44078 37.19 7.35411 37.5567 7.18078 37.89C7.00745 38.2233 6.76411 38.52 6.45078 38.78C6.13745 39.0333 5.76745 39.2467 5.34078 39.42C4.91411 39.5933 4.44078 39.7167 3.92078 39.79L3.55078 38.98C4.00411 38.92 4.41411 38.8233 4.78078 38.69C5.14745 38.5567 5.46078 38.3933 5.72078 38.2C5.98745 38.0067 6.19078 37.79 6.33078 37.55C6.47078 37.31 6.54078 37.0567 6.54078 36.79V36.57ZM6.72078 36.57H7.61078V36.79C7.61078 37.0567 7.68078 37.31 7.82078 37.55C7.96078 37.79 8.16078 38.0067 8.42078 38.2C8.68745 38.3933 9.00411 38.5567 9.37078 38.69C9.73745 38.8233 10.1508 38.92 10.6108 38.98L10.2308 39.79C9.71745 39.7167 9.24411 39.5933 8.81078 39.42C8.38411 39.2467 8.01411 39.0333 7.70078 38.78C7.38745 38.52 7.14411 38.2233 6.97078 37.89C6.80411 37.5567 6.72078 37.19 6.72078 36.79V36.57ZM6.54078 30.78H7.45078V31.13C7.45078 31.4567 7.39078 31.7633 7.27078 32.05C7.15078 32.3367 6.98078 32.6 6.76078 32.84C6.54078 33.0733 6.27745 33.2867 5.97078 33.48C5.67078 33.6667 5.33411 33.8233 4.96078 33.95C4.59411 34.0767 4.20078 34.17 3.78078 34.23L3.40078 33.41C3.76745 33.3633 4.11078 33.29 4.43078 33.19C4.75078 33.09 5.04078 32.97 5.30078 32.83C5.56078 32.6833 5.78411 32.52 5.97078 32.34C6.15745 32.16 6.29745 31.9667 6.39078 31.76C6.49078 31.5533 6.54078 31.3433 6.54078 31.13V30.78ZM6.71078 30.78H7.61078V31.13C7.61078 31.35 7.66078 31.5633 7.76078 31.77C7.86078 31.9767 8.00411 32.17 8.19078 32.35C8.37745 32.53 8.59745 32.6933 8.85078 32.84C9.11078 32.98 9.40078 33.1 9.72078 33.2C10.0408 33.2933 10.3841 33.3633 10.7508 33.41L10.3708 34.23C9.95745 34.1633 9.56745 34.07 9.20078 33.95C8.83411 33.8233 8.49745 33.6667 8.19078 33.48C7.88411 33.2933 7.62078 33.08 7.40078 32.84C7.18078 32.6 7.01078 32.34 6.89078 32.06C6.77078 31.7733 6.71078 31.4633 6.71078 31.13V30.78ZM5.16078 34.09H6.21078V35.77H5.16078V34.09ZM7.97078 34.09H9.01078V35.77H7.97078V34.09ZM14.73 36.09H15.78V39.83H14.73V36.09ZM18 36.09H19.05V39.83H18V36.09ZM12.76 35.95H21.04V36.8H12.76V35.95ZM13.75 31.03H14.8V32.16H18.98V31.03H20.01V34.97H13.75V31.03ZM14.8 32.99V34.12H18.98V32.99H14.8Z" fill="black"/>
<defs>
<clipPath id="clip0_238_559">
<rect width="24" height="24" fill="white" transform="translate(0 7)"/>
</clipPath>
</defs>
</svg>
