<svg width="24" height="24" viewBox="0 0 24 24" fill="none" xmlns="http://www.w3.org/2000/svg">
<g clip-path="url(#clip0_217_1633)">
<mask id="path-1-inside-1_217_1633" fill="white">
<path d="M18.897 14.3242L13.4038 16.5801H18.3882V20H3.6665V16.5801H3.69678L3.68506 16.5674L16.2544 11.4043L18.897 14.3242ZM18.8784 9.87891L6.30908 15.041L3.6665 12.1211L16.2358 6.95898L18.8784 9.87891ZM18.895 5.41992H18.8667L18.8784 5.43262L6.30908 10.5957L3.6665 7.67578L9.15967 5.41992H4.17334V2H18.895V5.41992Z"/>
</mask>
<path d="M18.897 14.3242L19.2769 15.2493L20.5935 14.7085L19.6384 13.6532L18.897 14.3242ZM13.4038 16.5801L13.0239 15.655L13.4038 17.5801V16.5801ZM18.3882 16.5801H19.3882V15.5801H18.3882V16.5801ZM18.3882 20V21H19.3882V20H18.3882ZM3.6665 20H2.6665V21H3.6665V20ZM3.6665 16.5801V15.5801H2.6665V16.5801H3.6665ZM3.69678 16.5801V17.5801H5.98076L4.43158 15.9018L3.69678 16.5801ZM3.68506 16.5674L3.3051 15.6424L1.97474 16.1889L2.95026 17.2457L3.68506 16.5674ZM16.2544 11.4043L16.9958 10.7333L16.5244 10.2123L15.8744 10.4793L16.2544 11.4043ZM18.8784 9.87891L19.2583 10.8039L20.5749 10.2632L19.6199 9.20789L18.8784 9.87891ZM6.30908 15.041L5.56764 15.712L6.03908 16.233L6.68898 15.966L6.30908 15.041ZM3.6665 12.1211L3.2866 11.1961L1.96998 11.7368L2.92506 12.7921L3.6665 12.1211ZM16.2358 6.95898L16.9773 6.28797L16.5058 5.76705L15.8559 6.03396L16.2358 6.95898ZM18.895 5.41992V6.41992H19.895V5.41992H18.895ZM18.8667 5.41992V4.41992H16.5827L18.1319 6.0982L18.8667 5.41992ZM18.8784 5.43262L19.2584 6.35762L20.5887 5.81115L19.6132 4.75434L18.8784 5.43262ZM6.30908 10.5957L5.56764 11.2667L6.03911 11.7877L6.68904 11.5207L6.30908 10.5957ZM3.6665 7.67578L3.28662 6.75075L1.96996 7.29146L2.92506 8.3468L3.6665 7.67578ZM9.15967 5.41992L9.53955 6.34496L9.15967 4.41992V5.41992ZM4.17334 5.41992H3.17334V6.41992H4.17334V5.41992ZM4.17334 2V1H3.17334V2H4.17334ZM18.895 2H19.895V1H18.895V2ZM18.897 14.3242L18.5171 13.3992L13.0239 15.655L13.4038 16.5801L13.7837 17.5051L19.2769 15.2493L18.897 14.3242ZM13.4038 16.5801V17.5801H18.3882V16.5801V15.5801H13.4038V16.5801ZM18.3882 16.5801H17.3882V20H18.3882H19.3882V16.5801H18.3882ZM18.3882 20V19H3.6665V20V21H18.3882V20ZM3.6665 20H4.6665V16.5801H3.6665H2.6665V20H3.6665ZM3.6665 16.5801V17.5801H3.69678V16.5801V15.5801H3.6665V16.5801ZM3.69678 16.5801L4.43158 15.9018L4.41986 15.8891L3.68506 16.5674L2.95026 17.2457L2.96197 17.2584L3.69678 16.5801ZM3.68506 16.5674L4.06502 17.4924L16.6344 12.3293L16.2544 11.4043L15.8744 10.4793L3.3051 15.6424L3.68506 16.5674ZM16.2544 11.4043L15.513 12.0753L18.1555 14.9952L18.897 14.3242L19.6384 13.6532L16.9958 10.7333L16.2544 11.4043ZM18.8784 9.87891L18.4985 8.95388L5.92918 14.116L6.30908 15.041L6.68898 15.966L19.2583 10.8039L18.8784 9.87891ZM6.30908 15.041L7.05052 14.37L4.40795 11.4501L3.6665 12.1211L2.92506 12.7921L5.56764 15.712L6.30908 15.041ZM3.6665 12.1211L4.0464 13.0461L16.6157 7.88401L16.2358 6.95898L15.8559 6.03396L3.2866 11.1961L3.6665 12.1211ZM16.2358 6.95898L15.4944 7.63L18.137 10.5499L18.8784 9.87891L19.6199 9.20789L16.9773 6.28797L16.2358 6.95898ZM18.895 5.41992V4.41992H18.8667V5.41992V6.41992H18.895V5.41992ZM18.8667 5.41992L18.1319 6.0982L18.1436 6.1109L18.8784 5.43262L19.6132 4.75434L19.6015 4.74164L18.8667 5.41992ZM18.8784 5.43262L18.4985 4.50761L5.92912 9.6707L6.30908 10.5957L6.68904 11.5207L19.2584 6.35762L18.8784 5.43262ZM6.30908 10.5957L7.05052 9.92469L4.40795 7.00476L3.6665 7.67578L2.92506 8.3468L5.56764 11.2667L6.30908 10.5957ZM3.6665 7.67578L4.04639 8.60082L9.53955 6.34496L9.15967 5.41992L8.77979 4.49489L3.28662 6.75075L3.6665 7.67578ZM9.15967 5.41992V4.41992H4.17334V5.41992V6.41992H9.15967V5.41992ZM4.17334 5.41992H5.17334V2H4.17334H3.17334V5.41992H4.17334ZM4.17334 2V3H18.895V2V1H4.17334V2ZM18.895 2H17.895V5.41992H18.895H19.895V2H18.895Z" fill="black" mask="url(#path-1-inside-1_217_1633)"/>
</g>
<defs>
<clipPath id="clip0_217_1633">
<rect width="24" height="24" fill="white"/>
</clipPath>
</defs>
</svg>
