<svg width="37" height="8" viewBox="0 0 37 8" fill="none" xmlns="http://www.w3.org/2000/svg">
<g id="logo-letter-group" clip-path="url(#clip0_3903_9944)">
<path id="Vector" d="M0.824219 1.46265H2.59279C3.18232 1.46265 3.69515 1.57178 4.13062 1.79004C4.56609 2.00831 4.90159 2.32021 5.13644 2.72575C5.37129 3.13129 5.48837 3.60892 5.48837 4.15795C5.48837 4.70698 5.37129 5.1846 5.13644 5.59014C4.90159 5.99568 4.56609 6.30758 4.13062 6.52585C3.69515 6.74411 3.18232 6.85324 2.59279 6.85324H0.824219V1.46265ZM2.56198 6.00578C3.17752 6.00578 3.65613 5.85084 3.99847 5.53962C4.34014 5.22906 4.51131 4.76828 4.51131 4.15727C4.51131 3.54627 4.34014 3.08548 3.99847 2.77493C3.65681 2.46437 3.17752 2.30876 2.56198 2.30876H1.80265V6.00511H2.56198V6.00578Z" fill="#AEAEB2"/>
<path id="Vector_2" d="M6.14648 1.46265H7.12492V6.85324H6.14648V1.46265Z" fill="#AEAEB2"/>
<path id="Vector_3" d="M8.81455 6.71431C8.50164 6.57082 8.2483 6.36805 8.05522 6.10599C7.86213 5.84394 7.75258 5.54147 7.72656 5.19723L8.6735 5.07395C8.70499 5.39731 8.83098 5.64925 9.05282 5.82845C9.27466 6.00831 9.54717 6.09791 9.87103 6.09791C10.1737 6.09791 10.4215 6.02246 10.6146 5.87089C10.8077 5.71931 10.9042 5.50509 10.9042 5.22755C10.9042 4.95 10.8002 4.72432 10.5913 4.58084C10.3825 4.43735 10.0408 4.31407 9.56634 4.211C9.0446 4.09311 8.64132 3.922 8.35717 3.69902C8.07302 3.47537 7.9306 3.16346 7.9306 2.76331C7.9306 2.48576 8.00866 2.24325 8.16545 2.03576C8.32225 1.8276 8.53587 1.66727 8.80701 1.55477C9.07815 1.4416 9.38353 1.38501 9.72245 1.38501C10.2805 1.38501 10.7255 1.52109 11.0569 1.79325C11.3883 2.0654 11.58 2.43255 11.6321 2.89467L10.7317 2.98696C10.6954 2.71481 10.5907 2.50799 10.4188 2.3672C10.2462 2.22641 10.0121 2.15567 9.71424 2.15567C9.46364 2.15567 9.26028 2.20687 9.10349 2.30994C8.94669 2.41234 8.86864 2.54639 8.86864 2.71009C8.86864 2.92095 8.96929 3.07993 9.1699 3.18771C9.37052 3.2955 9.70876 3.40598 10.1833 3.51915C10.7153 3.64243 11.1302 3.8324 11.428 4.08907C11.7252 4.34573 11.8745 4.70748 11.8745 5.175C11.8745 5.52934 11.7854 5.83855 11.6081 6.10263C11.4308 6.36737 11.1863 6.57149 10.8762 6.71498C10.566 6.85847 10.2202 6.93055 9.83885 6.93055C9.45748 6.93055 9.12677 6.85847 8.81318 6.71498L8.81455 6.71431Z" fill="#AEAEB2"/>
<path id="Vector_4" d="M19.4511 6.66799C19.1327 6.49351 18.8903 6.2483 18.7233 5.93236C18.5562 5.61641 18.4727 5.25331 18.4727 4.84238V1.46265H19.4511V4.82756C19.4511 5.22771 19.5463 5.5349 19.7366 5.74778C19.927 5.96065 20.2104 6.06709 20.5856 6.06709C20.9608 6.06709 21.2443 5.96065 21.4347 5.74778C21.625 5.5349 21.7202 5.22771 21.7202 4.82756V1.46265H22.6986V4.84305C22.6986 5.25398 22.6151 5.61709 22.448 5.93303C22.2809 6.24898 22.0386 6.49419 21.7202 6.66866C21.4018 6.84314 21.0238 6.93072 20.5849 6.93072C20.1461 6.93072 19.7681 6.84381 19.4504 6.66866L19.4511 6.66799Z" fill="#AEAEB2"/>
<path id="Vector_5" d="M23.5137 1.46265H24.4921V6.85324H23.5137V1.46265Z" fill="#AEAEB2"/>
<path id="Vector_6" d="M25.3054 1.46265H28.7645V2.30943H26.2831V3.73422H28.5529V4.581H26.2831V6.00578H28.85V6.85257H25.3047V1.46265H25.3054Z" fill="#AEAEB2"/>
<path id="Vector_7" d="M30.682 2.30943H29.2969V1.46265H33.0456V2.30943H31.6604V6.85324H30.682V2.30943Z" fill="#AEAEB2"/>
<path id="Vector_8" d="M17.5185 5.43234C17.7171 5.02949 17.8157 4.60441 17.8157 4.15778C17.8157 3.61885 17.6945 3.13854 17.4514 2.7175C17.209 2.29647 16.8769 1.96907 16.4572 1.73598C16.4004 1.70432 16.3422 1.67536 16.284 1.64774C15.9492 1.48538 15.5644 1.39444 15.1412 1.38636C15.1132 1.38636 15.0858 1.38501 15.0577 1.38501C15.0385 1.38501 15.0207 1.38501 15.0022 1.38501C14.5024 1.39107 14.0471 1.50762 13.6397 1.73464C13.22 1.9684 12.8886 2.29579 12.6455 2.71615C12.4031 3.13719 12.2812 3.61683 12.2812 4.15643C12.2812 4.65426 12.3833 5.1009 12.5866 5.49633C12.79 5.89177 13.0721 6.21108 13.4322 6.45495C13.7533 6.67187 14.1108 6.81333 14.5058 6.87733C14.3244 7.03968 14.1827 7.24649 14.0943 7.47823L14.0765 7.52337H14.6907L14.6975 7.49979C14.7167 7.43849 14.7551 7.36371 14.8126 7.29298C14.9235 7.15555 15.1056 7.03092 15.3514 7.03092C15.5226 7.03092 15.6698 7.06461 15.8026 7.14073C15.8615 7.17441 15.9177 7.21551 15.9718 7.2667C16.1032 7.38864 16.2251 7.56379 16.3463 7.79957L16.3552 7.81775H17.3953L17.3644 7.7679C17.0413 7.23167 16.6866 6.87733 16.2819 6.69073C16.4312 6.62134 16.5757 6.53377 16.7153 6.42598C17.0522 6.16662 17.3192 5.83586 17.5178 5.43234H17.5185ZM14.1101 5.82508C13.8704 5.68092 13.6794 5.4869 13.5384 5.24304C13.5206 5.21273 13.5041 5.18241 13.4884 5.15142C13.3425 4.86377 13.2693 4.53301 13.2693 4.15778C13.2693 3.78255 13.3425 3.45179 13.4884 3.16414C13.5055 3.13045 13.5233 3.09744 13.5425 3.06511C13.6835 2.82461 13.8732 2.63262 14.1108 2.48981C14.3792 2.32813 14.6907 2.24729 15.0461 2.24729C15.4014 2.24729 15.713 2.32813 15.9814 2.48981C16.2498 2.65148 16.4572 2.87581 16.6037 3.16346C16.6257 3.20792 16.6469 3.25239 16.6654 3.29887C16.7694 3.55351 16.8228 3.83981 16.8228 4.15711C16.8228 4.44543 16.779 4.70681 16.6928 4.94326C16.6674 5.01534 16.6373 5.08406 16.6037 5.15075C16.4579 5.4384 16.2504 5.66273 15.9814 5.82441C15.7123 5.98608 15.4007 6.06692 15.0461 6.06692C14.6914 6.06692 14.3792 5.98608 14.1108 5.82441L14.1101 5.82508Z" fill="#AEAEB2"/>
<path id="Vector_9" d="M36.5401 1.47771L36.5778 1.46357L36.2135 0.855927L36.193 0.823592L35.3015 1.50937L35.4562 0.432871L35.4617 0.393799H34.6935L34.8544 1.50937L33.9629 0.823592L33.5781 1.46357L34.6442 1.88662L33.6151 2.29486L33.5781 2.309L33.9424 2.91664L33.9629 2.94898L34.8544 2.2632L34.6997 3.34037L34.6935 3.37877H35.4617L35.3015 2.2632L36.193 2.94898L36.5778 2.309L35.5117 1.88662L36.5401 1.47771Z" fill="#AEAEB2"/>
</g>
<defs>
<clipPath id="clip0_3903_9944">
<rect width="35.7542" height="7.42437" fill="white" transform="translate(0.824219 0.393799)"/>
</clipPath>
</defs>
</svg>
