<svg width="100" height="20" viewBox="0 0 100 20" fill="none" xmlns="http://www.w3.org/2000/svg">
<path d="M95.8492 16.1303H100.003V19.6037H80.5V16.1303H84.6533V12.9501H81.3803V9.49919H84.3147V4.94315H81.5835V1.46973H98.9191V4.94315H96.1878V9.49919H99.1222V12.9501H95.8492V16.1303ZM88.1295 4.94315V9.49919H92.3731V4.94315H88.1295ZM88.4681 12.9501V16.1303H92.0345V12.9501H88.4681Z" fill="white"/>
<path d="M78.0246 19.6042V0.957031H74.0898V19.6042H78.0246Z" fill="white"/>
<path d="M72.7714 14.8356L68.7364 10.8007L66.2188 13.3184L70.2537 17.3533L72.7714 14.8356Z" fill="white"/>
<path d="M60 17.707C66.332 17.707 71 10.8922 71 5.12533V1.70703H60V5.33461H67.2829V5.77643C67.2829 8.45061 64.3006 13.6507 60 13.6972V17.707Z" fill="white"/>
<path d="M12.582 13.7559L8.04395 16.0986H12.1631V19.6504H0V16.0986H0.0234375L0.0136719 16.085L10.3984 10.7236L12.582 13.7559ZM12.5674 9.13867L2.18262 14.5L0 11.4678L10.3848 6.10645L12.5674 9.13867ZM12.582 4.50879H12.5576L12.5674 4.52246L2.18359 9.88379L0 6.85156L4.53809 4.50879H0.419922L0.418945 0.957031H12.582V4.50879Z" fill="white"/>
<path d="M56.0079 4.67963H57.9349V8.27083H56.0079V14.7963H52.0444V0.957031H56.0079V4.67963ZM49.6576 4.17598C49.6576 9.60659 44.9277 12.1905 38.5117 12.1905V8.92776C42.8693 8.88397 45.8912 7.30734 45.8912 4.78911V4.37306H38.5117V0.957031H49.6576V4.17598ZM43.0007 13.1759V16.3292H56.0079V19.6576H39.2343V13.1759H43.0007Z" fill="white"/>
<path d="M35.8651 0.957031V14.7963H31.9016V0.957031H35.8651ZM23.6024 0.97893C27.2593 0.97893 29.7557 3.21249 29.7557 6.58472C29.7557 9.97885 27.2593 12.1905 23.6024 12.1905C19.9455 12.1905 17.4492 9.97885 17.4492 6.58472C17.4492 3.21249 19.9455 0.97893 23.6024 0.97893ZM23.6024 4.06649C22.1791 4.06649 21.128 4.96429 21.128 6.58472C21.128 8.20514 22.1791 9.10294 23.6024 9.10294C25.0258 9.10294 26.0769 8.20514 26.0769 6.58472C26.0769 4.96429 25.0258 4.06649 23.6024 4.06649ZM22.8579 13.1102V16.3292H35.8651V19.6576H19.0915V13.1102H22.8579Z" fill="white"/>
</svg>
