<svg width="88" height="20" viewBox="0 0 88 20" fill="none" xmlns="http://www.w3.org/2000/svg">
<path d="M82.9435 15.8552H87.4346V19.5083H66.3457V15.8552H70.8369V12.5105H67.2976V8.88123H70.4707V4.08957H67.5173V0.436523H86.263V4.08957H83.3096V8.88123H86.4827V12.5105H82.9435V15.8552ZM74.5958 4.08957V8.88123H79.1846V4.08957H74.5958ZM74.9619 12.5105V15.8552H78.8184V12.5105H74.9619Z" fill="white"/>
<path d="M63.6945 19.5083V0.436523H59.5488V19.5083H63.6945Z" fill="white"/>
<path d="M57.9746 13.5293L53.1963 15.9238H57.5312V19.5566H44.7168V15.9238H44.7432L44.7334 15.9111L55.6748 10.4277L57.9746 13.5293ZM57.959 8.80664L47.0176 14.29L44.7178 11.1885L55.6592 5.70508L57.959 8.80664ZM57.9766 4.06934H57.9473L57.959 4.08496L47.0176 9.56836L44.7178 6.4668L49.502 4.06934H45.1621V0.436523H57.9766V4.06934Z" fill="white"/>
<path d="M40.6256 4.24387H42.6559V7.91685H40.6256V14.5909H36.4497V0.436523H40.6256V4.24387ZM33.9349 3.72876C33.9349 9.28301 28.9514 11.9258 22.1914 11.9258V8.58873C26.7827 8.54394 29.9665 6.93142 29.9665 4.35585V3.93033H22.1914V0.436523H33.9349V3.72876ZM26.9211 12.9336V16.1586H40.6256V19.5629H22.9528V12.9336H26.9211Z" fill="white"/>
<path d="M19.4032 0.4375V14.5919H15.2273V0.4375H19.4032ZM6.48313 0.459897C10.3361 0.459897 12.9663 2.74431 12.9663 6.19332C12.9663 9.66472 10.3361 11.9267 6.48313 11.9267C2.63016 11.9267 0 9.66472 0 6.19332C0 2.74431 2.63016 0.459897 6.48313 0.459897ZM6.48313 3.61776C4.98347 3.61776 3.87603 4.536 3.87603 6.19332C3.87603 7.85063 4.98347 8.76888 6.48313 8.76888C7.98278 8.76888 9.09022 7.85063 9.09022 6.19332C9.09022 4.536 7.98278 3.61776 6.48313 3.61776ZM5.69869 12.8674V16.1596H19.4032V19.5638H1.73037V12.8674H5.69869Z" fill="white"/>
</svg>
