<svg width="16" height="17" viewBox="0 0 16 17" fill="none" xmlns="http://www.w3.org/2000/svg">
<path d="M14.1184 9.49643C14.1184 12.929 11.3413 13.8175 7.91565 13.8175C4.48996 13.8175 1.71289 12.929 1.71289 9.49643C1.71289 6.06388 4.48996 3.28125 7.91565 3.28125C11.3413 3.28125 14.1184 6.06388 14.1184 9.49643Z" fill="#3457FD"/>
<path d="M6.51562 8.17383C6.75846 8.17383 6.95586 8.37049 6.95605 8.61328C6.95605 8.85624 6.75858 9.05371 6.51562 9.05371C6.27281 9.05354 6.07617 8.85613 6.07617 8.61328C6.07637 8.37059 6.27293 8.174 6.51562 8.17383ZM9.41895 8.17383C9.66169 8.17392 9.85819 8.37056 9.8584 8.61328C9.8584 8.85618 9.66182 9.05362 9.41895 9.05371C9.17599 9.05371 8.97852 8.85624 8.97852 8.61328C8.97873 8.37051 9.17612 8.17383 9.41895 8.17383Z" fill="#ADBBFF"/>
<ellipse cx="9.2678" cy="8.46408" rx="0.187717" ry="0.187717" fill="white"/>
<ellipse cx="6.3967" cy="8.46408" rx="0.187717" ry="0.187717" fill="white"/>
</svg>
