<svg width="64" height="64" viewBox="0 0 64 64" fill="none" xmlns="http://www.w3.org/2000/svg">
<rect width="64" height="64" fill="#303033"/>
<path d="M41.5808 38.7033C41.2218 39.5417 40.7967 40.3136 40.3042 41.0231C39.6331 41.9906 39.0834 42.6602 38.6599 43.0321C38.0032 43.6424 37.2998 43.955 36.5464 43.9727C36.0055 43.9727 35.3534 43.8172 34.5941 43.5016C33.8325 43.1876 33.1325 43.0321 32.4925 43.0321C31.8212 43.0321 31.1013 43.1876 30.3312 43.5016C29.56 43.8172 28.9387 43.9816 28.4637 43.9979C27.7413 44.029 27.0212 43.7075 26.3025 43.0321C25.8438 42.6275 25.27 41.9343 24.5826 40.9521C23.8451 39.9032 23.2388 38.687 22.7637 37.3004C22.255 35.8027 22 34.3524 22 32.9482C22 31.3398 22.3438 29.9526 23.0325 28.7901C23.5738 27.8563 24.2939 27.1198 25.1951 26.5791C26.0963 26.0383 27.0701 25.7628 28.1187 25.7452C28.6925 25.7452 29.445 25.9246 30.38 26.2771C31.3125 26.6309 31.9112 26.8103 32.1736 26.8103C32.3699 26.8103 33.0351 26.6005 34.1626 26.1823C35.2288 25.7945 36.1287 25.6339 36.8659 25.6972C38.8635 25.8601 40.3644 26.6561 41.3625 28.0901C39.5759 29.1843 38.6921 30.7169 38.7096 32.6829C38.7258 34.2142 39.2754 35.4885 40.3555 36.5003C40.8451 36.97 41.3918 37.3329 42 37.5907C41.8681 37.9774 41.7288 38.3477 41.5808 38.7033ZM36.9993 20.4801C36.9993 21.6804 36.5654 22.8011 35.7007 23.8384C34.6572 25.0715 33.3949 25.7841 32.0262 25.6717C32.0088 25.5277 31.9987 25.3761 31.9987 25.2169C31.9987 24.0646 32.4949 22.8315 33.3762 21.8232C33.8162 21.3127 34.3758 20.8882 35.0544 20.5496C35.7315 20.2161 36.372 20.0316 36.9744 20C36.9919 20.1605 36.9993 20.3209 36.9993 20.4801Z" fill="white"/>
</svg>
