<svg width="64" height="64" viewBox="0 0 64 64" fill="none" xmlns="http://www.w3.org/2000/svg">
<rect width="64" height="64" fill="white"/>
<path d="M42.56 32.25C42.56 31.47 42.49 30.72 42.36 30H32V34.26H37.92C37.66 35.63 36.88 36.79 35.71 37.57V40.34H39.28C41.36 38.42 42.56 35.6 42.56 32.25Z" fill="#4285F4"/>
<path d="M31.9997 43.0001C34.9697 43.0001 37.4597 42.0201 39.2797 40.3401L35.7097 37.5701C34.7297 38.2301 33.4797 38.6301 31.9997 38.6301C29.1397 38.6301 26.7097 36.7001 25.8397 34.1001H22.1797V36.9401C23.9897 40.5301 27.6997 43.0001 31.9997 43.0001Z" fill="#34A853"/>
<path d="M25.84 34.0901C25.62 33.4301 25.49 32.7301 25.49 32.0001C25.49 31.2701 25.62 30.5701 25.84 29.9101V27.0701H22.18C21.43 28.5501 21 30.2201 21 32.0001C21 33.7801 21.43 35.4501 22.18 36.9301L25.03 34.7101L25.84 34.0901Z" fill="#FBBC05"/>
<path d="M31.9997 25.38C33.6197 25.38 35.0597 25.94 36.2097 27.02L39.3597 23.87C37.4497 22.09 34.9697 21 31.9997 21C27.6997 21 23.9897 23.47 22.1797 27.07L25.8397 29.91C26.7097 27.31 29.1397 25.38 31.9997 25.38Z" fill="#EA4335"/>
</svg>
