<svg width="64" height="64" viewBox="0 0 64 64" fill="none" xmlns="http://www.w3.org/2000/svg">
<rect width="64" height="64" fill="#FEE500"/>
<g clip-path="url(#clip0_3157_7213)">
<path d="M32 54C44.1503 54 54 44.1503 54 32C54 19.8497 44.1503 10 32 10C19.8497 10 10 19.8497 10 32C10 44.1503 19.8497 54 32 54Z" fill="#FEE500"/>
<path d="M32.0637 20.6179C25.2191 20.6179 19.6992 25.0338 19.6992 30.3947C19.6992 33.8745 21.9955 36.9215 25.4399 38.6612L24.2741 43.0155C24.2521 43.0806 24.2488 43.1508 24.2644 43.2177C24.2799 43.2848 24.3139 43.3464 24.3624 43.3952C24.4332 43.4575 24.5242 43.492 24.6186 43.4922C24.6968 43.4861 24.771 43.455 24.8305 43.404L29.847 40.0215C30.5875 40.1236 31.3339 40.1766 32.0815 40.1803C38.9173 40.1803 44.4459 35.7645 44.4459 30.3947C44.4459 25.025 38.8995 20.6179 32.0637 20.6179Z" fill="black" fill-opacity="0.9"/>
<path d="M24.026 28.8491H22.6747C22.5072 28.854 22.3418 28.8111 22.1978 28.7255C22.1338 28.6854 22.0789 28.6326 22.0363 28.5702C21.9937 28.5079 21.9645 28.4375 21.9505 28.3633C21.9462 28.3163 21.9462 28.2691 21.9505 28.2221C21.9463 28.1342 21.9634 28.0465 22.0002 27.9665C22.0372 27.8866 22.0928 27.8167 22.1624 27.7628C22.3164 27.6513 22.5023 27.5924 22.6923 27.595H26.7638C26.9326 27.5891 27.0992 27.6353 27.2407 27.7275C27.3062 27.7658 27.3623 27.8182 27.4051 27.8808C27.4478 27.9434 27.4762 28.0147 27.488 28.0896C27.4923 28.1337 27.4923 28.1781 27.488 28.2221C27.4922 28.3113 27.4752 28.4003 27.4383 28.4816C27.4015 28.563 27.3459 28.6344 27.2761 28.6901C27.1259 28.8015 26.9418 28.8577 26.755 28.8491H25.4479V33.4948C25.4532 33.5936 25.4379 33.6926 25.4029 33.7854C25.3679 33.878 25.3141 33.9625 25.2447 34.0334C25.1783 34.1011 25.0984 34.1541 25.0101 34.1891C24.9219 34.2241 24.8273 34.2404 24.7325 34.2366C24.5666 34.2413 24.4043 34.1882 24.2732 34.0864C24.1485 33.9869 24.0638 33.8459 24.0348 33.6891C24.0261 33.6246 24.0261 33.5593 24.0348 33.4948L24.026 28.8491Z" fill="#FEE500"/>
<path d="M27.8774 27.9393C27.9162 27.794 28.0074 27.6681 28.1335 27.586C28.2678 27.5099 28.4208 27.4732 28.5751 27.4801H28.9107C29.0743 27.4742 29.2364 27.5139 29.3788 27.5949C29.5296 27.6963 29.6368 27.8508 29.679 28.0276L31.4454 33.0176C31.4912 33.1478 31.5295 33.2805 31.5602 33.4151C31.5632 33.471 31.5632 33.5269 31.5602 33.5828C31.5632 33.669 31.5474 33.7546 31.5138 33.834C31.4803 33.9132 31.4298 33.9843 31.3659 34.0421C31.3041 34.1055 31.2298 34.1557 31.1477 34.1891C31.0657 34.2223 30.9776 34.2386 30.889 34.2364C30.7528 34.25 30.616 34.2173 30.5006 34.1436C30.3853 34.0699 30.2981 33.9594 30.2531 33.8303L29.8822 32.7439H27.5594L27.1885 33.8303C27.1446 33.9621 27.0564 34.0747 26.9388 34.1486C26.8212 34.2228 26.6816 34.2538 26.5438 34.2364C26.3944 34.2404 26.2481 34.1937 26.1287 34.104C26.0123 34.0113 25.9337 33.8796 25.9079 33.733C25.9032 33.6831 25.9032 33.6327 25.9079 33.5828C25.8927 33.4952 25.8927 33.4057 25.9079 33.3179C25.9079 33.2209 25.9697 33.1148 26.005 33.0176L27.8774 27.9393ZM28.7605 29.0964L27.9215 31.7459H29.5907L28.7605 29.0964Z" fill="#FEE500"/>
<path d="M31.7625 28.2222C31.7535 28.024 31.8234 27.8303 31.9568 27.6835C32.0246 27.615 32.106 27.5616 32.1958 27.5266C32.2856 27.4916 32.3817 27.4758 32.4778 27.4802C32.6433 27.4783 32.8048 27.5311 32.9372 27.6304C33.0597 27.734 33.1414 27.8781 33.1667 28.0366C33.1755 28.0982 33.1755 28.1607 33.1667 28.2222V32.8678H35.5955C35.7638 32.8656 35.9294 32.9113 36.0724 33.0002C36.1367 33.0398 36.1919 33.0926 36.2346 33.1549C36.2772 33.2173 36.3063 33.288 36.3197 33.3623C36.3197 33.3623 36.3197 33.4505 36.3197 33.4948C36.3239 33.5828 36.3067 33.6703 36.27 33.7502C36.233 33.8303 36.1774 33.9002 36.1078 33.9541C35.9538 34.0654 35.7679 34.1244 35.5779 34.1218H32.5927C32.4026 34.1341 32.2136 34.0846 32.0539 33.9805C31.9111 33.8738 31.816 33.7152 31.789 33.539C31.7825 33.442 31.7825 33.3445 31.789 33.2475L31.7625 28.2222Z" fill="#FEE500"/>
<path d="M36.4794 28.2223C36.4741 28.0247 36.5434 27.8323 36.6736 27.6835C36.8061 27.5633 36.9759 27.4922 37.1546 27.4826C37.333 27.4729 37.5094 27.5252 37.654 27.6305C37.7794 27.7332 37.8641 27.8772 37.8924 28.0367C37.8968 28.0985 37.8968 28.1605 37.8924 28.2223V30.386L40.127 27.8071C40.213 27.7191 40.3045 27.6366 40.4007 27.5599C40.4915 27.5059 40.5956 27.4783 40.701 27.4803C40.8554 27.4795 41.0063 27.5257 41.1337 27.6128C41.1938 27.6533 41.245 27.7054 41.2846 27.7661C41.324 27.8268 41.3508 27.8948 41.3634 27.9661C41.3669 27.9836 41.3669 28.0017 41.3634 28.0192C41.3592 28.0396 41.3592 28.0606 41.3634 28.0809C41.3632 28.1739 41.3387 28.2652 41.2928 28.3459C41.2459 28.4314 41.1896 28.5113 41.1249 28.5843L39.6588 30.1917L41.4252 32.9295V33.0179C41.5169 33.1444 41.5884 33.2846 41.6373 33.4331V33.4771C41.6474 33.5796 41.6327 33.6828 41.5942 33.7783C41.5557 33.8735 41.4947 33.9582 41.4164 34.0246C41.269 34.1362 41.0888 34.1952 40.9042 34.1925C40.7815 34.1976 40.6596 34.1701 40.5509 34.1131C40.4332 34.0341 40.3364 33.9281 40.2682 33.804L38.6255 31.1544L37.8394 31.9758V33.4507C37.8447 33.6482 37.7754 33.8405 37.6452 33.9895C37.5754 34.0577 37.4925 34.1109 37.4012 34.1459C37.3101 34.1806 37.2129 34.1967 37.1154 34.1925C36.9524 34.196 36.7933 34.143 36.6648 34.0425C36.5401 33.943 36.4554 33.8018 36.4264 33.6449C36.4178 33.5805 36.4178 33.5151 36.4264 33.4507L36.4794 28.2223Z" fill="#FEE500"/>
</g>
<defs>
<clipPath id="clip0_3157_7213">
<rect width="44" height="44" fill="white" transform="translate(10 10)"/>
</clipPath>
</defs>
</svg>
