<svg width="13" height="13" viewBox="0 0 13 13" fill="none" xmlns="http://www.w3.org/2000/svg">
<path d="M7.26334 1.56382C7.1914 1.42342 7.08212 1.30559 6.94752 1.22332C6.81292 1.14104 6.65823 1.0975 6.50048 1.0975C6.34272 1.0975 6.18802 1.14104 6.05343 1.22332C5.91883 1.30559 5.80954 1.42342 5.73762 1.56382L1.02333 10.9924C0.957581 11.1229 0.926277 11.268 0.932392 11.414C0.938507 11.56 0.981839 11.7019 1.05827 11.8265C1.13471 11.951 1.2417 12.054 1.36911 12.1255C1.4965 12.197 1.64008 12.2348 1.78619 12.2353H11.2147C11.3609 12.2348 11.5045 12.197 11.6318 12.1255C11.7593 12.054 11.8663 11.951 11.9427 11.8265C12.0191 11.7019 12.0625 11.56 12.0685 11.414C12.0747 11.268 12.0433 11.1229 11.9776 10.9924L7.26334 1.56382Z" stroke="#E8E8E9" stroke-width="0.857143" stroke-linecap="round" stroke-linejoin="round"/>
<path d="M6.5 4.94962V7.73533" stroke="#E8E8E9" stroke-width="0.857143" stroke-linecap="round" stroke-linejoin="round"/>
<path d="M6.49944 10.0925C6.3811 10.0925 6.28516 9.99657 6.28516 9.8782C6.28516 9.75982 6.3811 9.66391 6.49944 9.66391" stroke="#E8E8E9" stroke-width="0.857143" stroke-linecap="round" stroke-linejoin="round"/>
<path d="M6.5 10.0925C6.61835 10.0925 6.71429 9.99657 6.71429 9.8782C6.71429 9.75982 6.61835 9.66391 6.5 9.66391" stroke="#E8E8E9" stroke-width="0.857143" stroke-linecap="round" stroke-linejoin="round"/>
</svg>
