<svg width="141" height="120" viewBox="0 0 141 120" fill="none" xmlns="http://www.w3.org/2000/svg">
<path d="M141 70.7865C141 109.881 109.436 120 70.5 120C31.5639 120 0 109.881 0 70.7865C0 31.6922 31.5639 0 70.5 0C109.436 0 141 31.6922 141 70.7865Z" fill="#D9D9D9"/>
<path d="M78 57C78 51.4772 73.5228 47 68 47C62.4772 47 58 51.4772 58 57" stroke="black" stroke-width="6"/>
<path d="M116 57C116 51.4772 111.523 47 106 47C100.477 47 96 51.4772 96 57" stroke="black" stroke-width="6"/>
<path d="M92 68H58C58 76.0476 59.36 94 74.6909 94C90.0218 94 92 76.0476 92 68Z" stroke="black" stroke-width="6"/>
</svg>
