<svg width="326" height="48" viewBox="0 0 326 48" fill="none" xmlns="http://www.w3.org/2000/svg">
<path d="M12.4989 17.1875C12.4833 21.7812 14.8583 26.7031 19.6239 28.6875L17.4677 31.8125C14.1239 30.3906 11.8114 27.5625 10.5302 24.125C9.2489 27.8594 6.88953 30.9844 3.53015 32.5312L1.2489 29.375C5.96765 27.2656 8.40515 22 8.40515 17.1875V15.4375H2.3739V12.1875H18.4364V15.4375H12.4989V17.1875ZM21.2489 37.875V9.4375H25.2802V37.875H21.2489ZM53.0614 10.7188V13C53.077 15.2188 53.077 17.6719 52.3895 20.9375H56.1552V24.1562H30.1239V20.9375H48.3739C48.9833 18.1094 49.0614 15.9062 49.0927 13.9062H33.3114V10.7188H53.0614ZM33.2177 37.5625V27.1562H52.9677V37.5625H33.2177ZM37.1239 34.375H48.9989V30.2812H37.1239V34.375ZM82.4989 11.7188V25.4375H68.5927V11.7188H82.4989ZM71.9052 37.25V27.8125H75.9364V34.0312H91.7177V37.25H71.9052ZM72.5302 22.2812H78.5302V14.875H72.5302V22.2812ZM86.9677 29.6875V9.46875H90.9677V29.6875H86.9677ZM119.624 9.46875V25.5H115.624V9.46875H119.624ZM95.7177 21.875C100.483 20.4375 102.561 16.7969 102.561 13.25V10.5H106.718V13.25C106.686 16.7031 108.78 20.0156 113.374 21.4375L111.436 24.4688C108.186 23.5 105.936 21.5312 104.655 18.9844C103.358 21.75 101.046 23.9375 97.6552 25L95.7177 21.875ZM100.561 37.5625V26.8125H119.624V37.5625H100.561ZM104.499 34.375H115.718V29.9688H104.499V34.375ZM224.468 22.3438V25.5625H213.468V27.6719C218.405 28.0312 221.343 29.8125 221.374 32.75C221.343 36.0469 217.608 37.8906 211.468 37.875C205.233 37.8906 201.499 36.0469 201.499 32.75C201.499 29.7969 204.452 28.0156 209.499 27.6562V25.5625H198.53V22.3438H224.468ZM199.686 18.1562C204.952 17.6875 207.858 15.75 208.577 13.7812H200.905V10.6562H222.124V13.7812H214.39C215.077 15.7656 217.968 17.6875 223.374 18.1562L221.968 21.2812C216.593 20.7656 212.983 18.75 211.468 15.9844C209.968 18.7344 206.39 20.7812 200.999 21.2812L199.686 18.1562ZM205.561 32.75C205.546 34.125 207.53 34.875 211.468 34.875C215.327 34.875 217.358 34.125 217.374 32.75C217.358 31.3125 215.327 30.625 211.468 30.5938C207.53 30.625 205.546 31.3125 205.561 32.75ZM250.999 9.46875V29.9062H246.999V9.46875H250.999ZM227.624 18.4375C227.624 14.2656 231.03 11.2656 235.405 11.2812C239.765 11.2656 243.171 14.2656 243.186 18.4375C243.171 22.6719 239.765 25.6562 235.405 25.6562C231.03 25.6562 227.624 22.6719 227.624 18.4375ZM231.53 18.4375C231.499 20.8125 233.171 22.1875 235.405 22.1875C237.561 22.1875 239.233 20.8125 239.249 18.4375C239.233 16.125 237.561 14.7344 235.405 14.75C233.171 14.7344 231.499 16.125 231.53 18.4375ZM231.936 37.375V27.8438H235.968V34.1875H251.749V37.375H231.936Z" fill="#1D1E1F"/>
<path d="M157.061 27.3438V37.9062H153.155V30.5625H136.874V27.3438H157.061ZM133.311 25.0938V11.5H140.749V14.6875H137.186V21.875C138.405 21.8281 139.577 21.7031 140.936 21.4375L141.28 24.625C138.921 25.125 137.077 25.0938 134.686 25.0938H133.311ZM142.124 25.0938V11.5H150.124V14.6875H146.093V21.8906C148.093 21.8594 149.358 21.75 150.78 21.4062L151.124 24.5938C149.077 25.0469 147.421 25.0938 143.686 25.0938H142.124ZM149.093 19.6562V16.4688H153.155V9.4375H157.061V26.1562H153.155V19.6562H149.093ZM175.561 11.0312V19.75H166.499V22.4688C171.186 22.4375 174.374 22.2812 177.999 21.625L178.436 24.8125C174.358 25.5469 170.702 25.7344 164.936 25.7188H162.53V16.7188H171.686V14.2188H162.499V11.0312H175.561ZM164.905 31.2188V28.0312H184.061V37.8438H180.061V31.2188H164.905ZM180.061 26.7188V9.46875H184.061V16.25H187.905V19.5312H184.061V26.7188H180.061Z" fill="#2D92FF"/>
<path d="M319.901 32.2745H325.999V37.4333H297.366V32.2745H303.464V27.5511H298.659V22.4257H302.967V15.6589H298.957V10.5H324.408V15.6589H320.398V22.4257H324.707V27.5511H319.901V32.2745ZM308.567 15.6589V22.4257H314.798V15.6589H308.567ZM309.064 27.5511V32.2745H314.301V27.5511H309.064Z" fill="#1D1E1F"/>
<path d="M293.762 37.4333V10.5H288.134V37.4333H293.762Z" fill="#2D92FF"/>
<path fill-rule="evenodd" clip-rule="evenodd" d="M268.599 10.5001H285.998V15.6298H285.963L285.977 15.6495L271.122 23.3934L267.999 19.0135L274.49 15.6298H268.599V10.5001ZM285.397 37.5001H267.999V32.3704H268.034L268.02 32.3508L282.875 24.6068L285.998 28.9867L279.507 32.3704H285.397V37.5001ZM282.854 17.9382L267.999 25.6821L271.122 30.062L285.977 22.3181L282.854 17.9382Z" fill="#2D92FF"/>
</svg>
