<svg width="314" height="37" viewBox="0 0 314 37" fill="none" xmlns="http://www.w3.org/2000/svg">
<path d="M306.085 28.7968H313.379V34.9087H279.128V28.7968H286.423V23.2009H280.674V17.1287H285.828V9.11186H281.031V3H311.476V9.11186H306.68V17.1287H311.833V23.2009H306.085V28.7968ZM292.527 9.11186V17.1287H299.98V9.11186H292.527ZM293.122 23.2009V28.7968H299.385V23.2009H293.122Z" fill="#121212"/>
<path d="M274.818 34.9087V3.00006H268.085V34.9087H274.818Z" fill="#121212"/>
<path fill-rule="evenodd" clip-rule="evenodd" d="M244.718 3H265.53V9.07727H265.489L265.506 9.10043L247.736 18.2749L244 13.0859L251.764 9.07727H244.718V3ZM264.812 34.9876H244V28.9103H244.041L244.025 28.887L261.794 19.7126L265.53 24.9015L257.766 28.9103H264.812V34.9876ZM261.77 11.812L244 20.9865L247.736 26.1754L265.506 17.001L261.77 11.812Z" fill="#3457FD"/>
<path d="M8.79008 7.8411H12.0359V11.0257C12.0359 12.6588 11.8624 14.2612 11.5153 15.8331C11.1887 17.405 10.6886 18.885 10.0149 20.2731C9.36167 21.6408 8.53491 22.8554 7.53464 23.917C6.53436 24.9581 5.37077 25.7848 4.04388 26.3972L1.71671 23.1821C2.90071 22.6309 3.9316 21.9164 4.8094 21.0386C5.7076 20.1608 6.4425 19.181 7.01409 18.099C7.60608 16.9967 8.04498 15.8433 8.33077 14.6389C8.63698 13.4141 8.79008 12.2097 8.79008 11.0257V7.8411ZM9.67808 7.8411H12.8933V11.0257C12.8933 12.1484 13.0362 13.2916 13.3219 14.4552C13.6282 15.5983 14.0671 16.6905 14.6386 17.7316C15.2102 18.7523 15.9349 19.6709 16.8127 20.4874C17.6905 21.304 18.7316 21.9572 19.936 22.4472L17.7007 25.693C16.3534 25.101 15.1796 24.3048 14.1793 23.3046C13.1791 22.3043 12.3421 21.1509 11.6684 19.8444C10.9948 18.5379 10.4946 17.1396 10.168 15.6494C9.8414 14.1388 9.67808 12.5975 9.67808 11.0257V7.8411ZM2.84967 6.0651H18.7724V9.43338H2.84967V6.0651ZM21.4058 3.37048H25.4784V31.7252H21.4058V3.37048ZM32.6718 4.62593H50.6156V7.8411H32.6718V4.62593ZM29.5179 14.8226H55.2087V18.0378H29.5179V14.8226ZM48.1659 4.62593H52.1772V6.89186C52.1772 8.09627 52.1466 9.39255 52.0853 10.7807C52.0241 12.1688 51.7791 13.7815 51.3505 15.6188L47.2779 15.5881C47.727 13.7305 47.9822 12.1178 48.0434 10.7501C48.1251 9.38234 48.1659 8.09627 48.1659 6.89186V4.62593ZM32.5187 21.008H52.0547V31.419H32.5187V21.008ZM48.074 24.1926H36.53V28.2039H48.074V24.1926ZM64.5984 5.57517H78.3471V19.3239H64.5984V5.57517ZM74.3664 8.82096H68.6098V16.0781H74.3664V8.82096ZM82.6647 3.37048H86.7372V23.5189H82.6647V3.37048ZM67.8442 27.867H87.4721V31.1128H67.8442V27.867ZM67.8442 21.7123H71.9168V29.3062H67.8442V21.7123ZM110.221 3.37048H114.293V19.3851H110.221V3.37048ZM95.4311 20.6712H114.293V31.419H95.4311V20.6712ZM110.313 23.8863H99.4424V28.2039H110.313V23.8863ZM97.3908 4.41159H100.759V7.10621C100.759 8.86179 100.463 10.5357 99.8711 12.128C99.2791 13.7203 98.3809 15.1084 97.1765 16.2924C95.972 17.456 94.4308 18.3236 92.5527 18.8952L90.593 15.7106C91.777 15.3432 92.7977 14.8532 93.6551 14.2408C94.5125 13.6284 95.2167 12.9446 95.7679 12.1892C96.3191 11.4135 96.7274 10.597 96.9927 9.73959C97.2581 8.86179 97.3908 7.984 97.3908 7.10621V4.41159ZM98.2176 4.41159H101.525V7.10621C101.525 7.984 101.657 8.83117 101.923 9.64772C102.188 10.4643 102.586 11.24 103.117 11.9749C103.648 12.6894 104.321 13.3222 105.138 13.8734C105.975 14.4246 106.975 14.8737 108.139 15.2207L106.179 18.3746C104.811 17.9868 103.627 17.4254 102.627 16.6905C101.647 15.9556 100.82 15.0982 100.147 14.1183C99.4934 13.1181 99.0035 12.0259 98.6769 10.8419C98.3707 9.65793 98.2176 8.41269 98.2176 7.10621V4.41159ZM190.309 17.6091H194.351V22.6003H190.309V17.6091ZM179.5 16.2312H205.16V19.477H179.5V16.2312ZM192.269 21.4673C195.331 21.4673 197.74 21.9164 199.495 22.8146C201.251 23.6924 202.129 24.9581 202.129 26.6116C202.129 28.2243 201.251 29.4797 199.495 30.3779C197.74 31.2761 195.331 31.7252 192.269 31.7252C189.207 31.7252 186.798 31.2761 185.042 30.3779C183.307 29.4797 182.44 28.2243 182.44 26.6116C182.44 24.9581 183.307 23.6924 185.042 22.8146C186.798 21.9164 189.207 21.4673 192.269 21.4673ZM192.269 24.56C191.003 24.56 189.942 24.6314 189.084 24.7743C188.247 24.9172 187.614 25.1418 187.186 25.448C186.757 25.7338 186.543 26.1217 186.543 26.6116C186.543 27.0607 186.757 27.4383 187.186 27.7446C187.614 28.0508 188.247 28.2753 189.084 28.4182C189.942 28.5611 191.003 28.6326 192.269 28.6326C193.534 28.6326 194.586 28.5611 195.423 28.4182C196.28 28.2753 196.923 28.0508 197.352 27.7446C197.78 27.4383 197.995 27.0607 197.995 26.6116C197.995 26.1217 197.78 25.7338 197.352 25.448C196.923 25.1418 196.28 24.9172 195.423 24.7743C194.586 24.6314 193.534 24.56 192.269 24.56ZM189.544 6.03448H193.157V6.70814C193.157 7.56552 193.004 8.38207 192.697 9.15779C192.391 9.93352 191.932 10.6582 191.32 11.3319C190.728 11.9851 189.982 12.5771 189.084 13.1079C188.186 13.6386 187.145 14.0775 185.961 14.4246C184.777 14.7716 183.46 15.0166 182.011 15.1594L180.602 11.9443C181.848 11.8422 182.95 11.6687 183.909 11.4237C184.889 11.1788 185.726 10.8828 186.42 10.5357C187.135 10.1683 187.716 9.78041 188.166 9.37214C188.635 8.94345 188.982 8.50455 189.207 8.05545C189.431 7.60634 189.544 7.15724 189.544 6.70814V6.03448ZM191.534 6.03448H195.116V6.70814C195.116 7.15724 195.229 7.61655 195.453 8.08607C195.678 8.53517 196.015 8.96386 196.464 9.37214C196.933 9.78041 197.515 10.1683 198.209 10.5357C198.924 10.8828 199.761 11.1788 200.72 11.4237C201.7 11.6687 202.812 11.8422 204.058 11.9443L202.649 15.1594C201.2 15.0166 199.883 14.7716 198.699 14.4246C197.515 14.0775 196.474 13.6488 195.576 13.1385C194.698 12.6077 193.953 12.0157 193.34 11.3625C192.748 10.6888 192.299 9.96414 191.993 9.18841C191.687 8.39227 191.534 7.56552 191.534 6.70814V6.03448ZM181.858 4.53407H202.864V7.74924H181.858V4.53407ZM226.562 3.37048H230.634V23.7332H226.562V3.37048ZM211.741 27.9589H231.369V31.2353H211.741V27.9589ZM211.741 21.7123H215.814V29.3062H211.741V21.7123ZM215.201 5.1771C216.651 5.1771 217.957 5.48331 219.121 6.09572C220.284 6.70814 221.203 7.55531 221.877 8.63724C222.571 9.71917 222.918 10.9644 222.918 12.373C222.918 13.7407 222.571 14.9757 221.877 16.0781C221.203 17.16 220.284 18.0174 219.121 18.6502C217.957 19.2626 216.651 19.5688 215.201 19.5688C213.752 19.5688 212.445 19.2626 211.282 18.6502C210.118 18.0174 209.189 17.16 208.495 16.0781C207.822 14.9757 207.485 13.7407 207.485 12.373C207.485 10.9644 207.822 9.71917 208.495 8.63724C209.189 7.55531 210.118 6.70814 211.282 6.09572C212.445 5.48331 213.752 5.1771 215.201 5.1771ZM215.201 8.66786C214.507 8.66786 213.874 8.82096 213.303 9.12717C212.731 9.41296 212.282 9.83145 211.955 10.3826C211.629 10.9134 211.466 11.5768 211.466 12.373C211.466 13.1283 211.629 13.7815 211.955 14.3327C212.282 14.8634 212.731 15.2819 213.303 15.5881C213.874 15.8739 214.507 16.0168 215.201 16.0168C215.895 16.0168 216.528 15.8739 217.1 15.5881C217.671 15.2819 218.12 14.8634 218.447 14.3327C218.774 13.7815 218.937 13.1283 218.937 12.373C218.937 11.5768 218.774 10.9134 218.447 10.3826C218.12 9.83145 217.671 9.41296 217.1 9.12717C216.528 8.82096 215.895 8.66786 215.201 8.66786Z" fill="black"/>
<path d="M128.399 21.1917H148.425V31.7252H144.413V24.4375H128.399V21.1917ZM144.352 3.37048H148.425V20.0281H144.352V3.37048ZM140.494 10.352H147.72V13.5672H140.494V10.352ZM124.816 15.7412H126.225C127.368 15.7412 128.409 15.7208 129.348 15.68C130.307 15.6392 131.318 15.5065 132.379 15.2819L132.686 18.5583C131.543 18.7829 130.481 18.9156 129.501 18.9564C128.521 18.9972 127.429 19.0177 126.225 19.0177H124.816V15.7412ZM124.816 5.39145H132.226V8.63724H128.827V17.0273H124.816V5.39145ZM133.574 15.7412H135.105C136.309 15.7412 137.309 15.731 138.106 15.7106C138.922 15.6902 139.637 15.6494 140.249 15.5881C140.882 15.5065 141.504 15.3942 142.117 15.2513L142.423 18.4971C141.79 18.64 141.147 18.7523 140.494 18.8339C139.841 18.9156 139.096 18.9666 138.259 18.987C137.422 19.0074 136.37 19.0177 135.105 19.0177H133.574V15.7412ZM133.574 5.39145H141.474V8.63724H137.585V16.9967H133.574V5.39145ZM152.985 16.323H155.373C157.231 16.323 158.884 16.3026 160.334 16.2618C161.804 16.221 163.161 16.1393 164.406 16.0168C165.672 15.8739 166.958 15.6902 168.265 15.4657L168.632 18.7114C167.326 18.9564 166.009 19.1503 164.682 19.2932C163.375 19.4157 161.967 19.4974 160.456 19.5382C158.966 19.579 157.272 19.5994 155.373 19.5994H152.985V16.323ZM152.924 4.90152H165.876V13.6284H156.996V17.8541H152.985V10.6276H161.865V8.14731H152.924V4.90152ZM170.194 3.37048H174.266V20.6099H170.194V3.37048ZM173.133 10.107H178.033V13.4753H173.133V10.107ZM155.343 21.896H174.266V31.7252H170.194V25.1112H155.343V21.896Z" fill="#4400FF"/>
</svg>
