<svg width="208" height="252" viewBox="0 0 208 252" fill="none" xmlns="http://www.w3.org/2000/svg">
<path d="M105.373 141L174.045 159.401L168.672 179.453L100 161.053L105.373 141Z" fill="#D9D9D9"/>
<path d="M112.094 251.269H40.9999V230.509H112.094L112.094 251.269Z" fill="#D9D9D9"/>
<path d="M0 210.34L60.702 179L73.4638 196.725L12.7617 228.065L0 210.34Z" fill="#D9D9D9"/>
<path d="M114.546 216.815L53.8439 248.155L41.0821 230.43L101.784 199.09L114.546 216.815Z" fill="#D9D9D9"/>
<path d="M111.263 167L152.589 221.397L137.326 237.021L96.0001 182.624L111.263 167Z" fill="#D9D9D9"/>
<path d="M188.933 104.868C178.814 142.63 145.707 144.235 108.098 134.158C70.4882 124.08 42.6189 106.137 52.7372 68.3745C62.8556 30.6123 101.547 8.16934 139.156 18.2467C176.765 28.3241 199.051 67.1058 188.933 104.868Z" fill="#D9D9D9"/>
<path d="M99.2927 99.8901L123.965 106.501C126.179 98.2406 130.129 79.5488 119.004 76.5678C107.879 73.5869 101.506 91.6296 99.2927 99.8901Z" stroke="black" stroke-width="6"/>
<circle cx="101.127" cy="60.2023" r="5" fill="black"/>
<circle cx="136.127" cy="68.2023" r="5" fill="black"/>
</svg>
