<svg width="24" height="24" viewBox="0 0 24 24" fill="black" xmlns="http://www.w3.org/2000/svg">
<!-- <path d="M12 0C18.6274 0 24 5.37258 24 12C24 18.6274 18.6274 24 12 24C5.37258 24 0 18.6274 0 12C0 5.37258 5.37258 0 12 0ZM7.5 14.5V16.5H9.5L14.5 11.5L12.5 9.5L7.5 14.5ZM14.875 7.625C14.875 7.625 14.6562 7.34375 14.375 7.625L13.25 8.75L15.25 10.75L16.375 9.625C16.5625 9.4375 16.5 9.25 16.375 9.125L14.875 7.625Z" fill="#D9D9D9"/> -->
<path d="M7.5 14.5V16.5H9.5L14.5 11.5L12.5 9.5L7.5 14.5ZM14.875 7.625C14.875 7.625 14.6562 7.34375 14.375 7.625L13.25 8.75L15.25 10.75L16.375 9.625C16.5625 9.4375 16.5 9.25 16.375 9.125L14.875 7.625Z" fill="current"/>
</svg>
