<svg width="249" height="265" viewBox="0 0 249 265" fill="none" xmlns="http://www.w3.org/2000/svg">
<path d="M195.483 185.305C204.957 220.66 178.803 237.472 143.524 246.926C108.238 256.38 77.1881 254.895 67.7147 219.54C58.2413 184.185 79.1617 147.864 114.447 138.41C149.726 128.957 186.01 149.949 195.483 185.305Z" fill="url(#paint0_linear_1034_4341)"/>
<rect x="96.0459" y="188.999" width="40" height="5" rx="2.5" transform="rotate(-44.6081 96.0459 188.999)" fill="#1D1E1F"/>
<rect width="40" height="5" rx="2.5" transform="matrix(0.9993 0.037415 0.037415 -0.9993 94.0674 177.9)" fill="#1D1E1F"/>
<rect x="85.3677" y="54.7704" width="154" height="66" rx="33" transform="rotate(-10 85.3677 54.7704)" fill="#F0F0F1"/>
<path d="M131.401 72.4655L134.025 87.3434L132.03 87.6951L129.407 72.8172L131.401 72.4655ZM119.768 81.1586C119.182 77.8315 120.085 75.5481 122.057 75.2089C123.846 74.885 125.367 76.3446 126.086 79.0837L127.304 78.8689L126.37 73.5717L128.332 73.2258L130.797 87.2045L128.835 87.5504L127.596 80.5202L126.394 80.7321C126.729 83.6821 125.791 85.6766 123.96 85.9995C121.99 86.3468 120.358 84.5021 119.768 81.1586ZM121.697 80.8185C122.085 83.1102 122.774 84.1519 123.605 83.9885C124.466 83.8535 124.774 82.636 124.362 80.3485C123.968 78.0664 123.261 77.0195 122.403 77.1708C121.569 77.3178 121.279 78.5406 121.697 80.8185ZM145.511 69.9776L148.14 84.8882L146.064 85.2543L144.68 77.4066L142.276 77.8304L141.977 76.1301L144.38 75.7063L143.434 70.3437L145.511 69.9776ZM133.977 75.0288L133.68 73.3448L140.416 72.1571L141.399 77.7322L136.772 78.548L137.286 81.4582C139.335 81.0801 141.055 80.7009 142.917 80.027L143.38 81.6985C141.238 82.4556 139.233 82.8934 136.738 83.3248L135.512 83.541L134.405 77.2629L139.081 76.4384L138.686 74.1985L133.977 75.0288ZM159.179 67.5676L160.185 73.2735L162.294 72.9016L162.597 74.6183L160.488 74.9902L161.796 82.4128L159.704 82.7818L157.086 67.9366L159.179 67.5676ZM149.159 80.3424C152.371 77.9554 153.849 75.2503 153.657 71.8622L148.695 72.7372L148.395 71.0368L155.474 69.7886C156.242 74.2385 155.188 78.3943 150.619 81.7371L149.159 80.3424ZM177.575 64.3407L178.134 67.5125L180.145 67.1579L180.448 68.8746L178.437 69.2292L179.019 72.5317L176.926 72.9008L175.482 64.7097L177.575 64.3407ZM168.519 79.5247C170.355 78.5099 170.919 76.8342 170.666 75.3532L170.542 74.6502L172.553 74.2956L172.677 74.9986C172.882 76.2099 173.592 77.4164 174.957 78.0355C176.036 76.935 176.309 75.5213 176.127 74.3903L176.003 73.6873L178.047 73.3269L178.171 74.03C178.443 75.6255 179.524 76.9268 181.615 77.2156L180.872 78.9312C179.355 78.6929 178.286 77.9374 177.582 76.8563C177.303 78.094 176.615 79.2604 175.353 80.0393C173.872 79.7693 172.833 78.9411 172.146 77.8654C171.828 79.0761 171.091 80.1502 169.853 80.8742L168.519 79.5247ZM167.696 73.8035L166.525 67.1656L168.618 66.7966L169.484 71.7096C171.285 71.3584 173.194 70.8532 175.186 70.1058L175.725 71.7302C173.361 72.6613 171.073 73.2163 168.971 73.5786L167.696 73.8035ZM184.525 64.1772C186.536 63.8227 188.331 65.2087 189.098 67.8381L191.681 67.3826L190.733 62.0037L192.793 61.6405L195.422 76.5511L193.362 76.9143L191.976 69.0503L189.417 69.5014C189.701 72.4015 188.472 74.4218 186.396 74.788C184.14 75.1858 182.161 73.4275 181.601 70.1548C181.012 66.9123 182.269 64.5751 184.525 64.1772ZM183.595 69.8031C183.978 72.0199 184.951 73.0957 186.061 72.8914C187.183 72.7021 187.713 71.3611 187.323 69.1458C186.934 66.9386 185.976 65.8599 184.856 66.0574C183.745 66.2534 183.198 67.5974 183.595 69.8031ZM210.34 70.33L210.643 72.0466L197.024 74.448L196.721 72.7314L199.762 72.1952L199.119 68.5493C197.844 68.0576 196.963 67.1256 196.733 65.8177C196.307 63.4062 198.382 61.4051 201.618 60.8262C204.84 60.2664 207.498 61.4329 207.932 63.8429C208.15 65.1278 207.663 66.2842 206.665 67.1765L207.315 70.8633L210.34 70.33ZM198.793 65.4544C199.049 66.9095 200.606 67.5623 202.739 67.1861C204.84 66.8156 206.12 65.6627 205.872 64.2062C205.6 62.7117 204.008 62.0988 201.909 62.4774C199.774 62.8455 198.529 63.9585 198.793 65.4544ZM201.822 71.8319L205.206 71.2352L204.696 68.3413C204.183 68.5413 203.621 68.6994 203.025 68.8046C202.428 68.9099 201.854 68.9521 201.313 68.9463L201.822 71.8319ZM212.83 59.692L214.079 68.0186L211.987 68.3876L210.313 60.1359L212.83 59.692ZM212.085 70.7639C211.936 70.0147 212.45 69.2921 213.22 69.1648C213.946 69.0283 214.683 69.5304 214.816 70.2825C214.95 71.0427 214.429 71.7668 213.701 71.8951C212.933 72.0306 212.203 71.5271 212.085 70.7639Z" fill="#101010"/>
<rect x="10.0718" width="80" height="58" rx="29" transform="rotate(10 10.0718 0)" fill="#E14942"/>
<path d="M48.2352 28.4796L47.5808 32.1909L49.5918 32.5455L49.2862 34.2786L47.2752 33.924L46.5026 38.3056L44.4099 37.9366L46.1425 28.1106L48.2352 28.4796ZM35.719 31.0097C36.0899 28.8583 38.1194 27.6737 40.4492 28.0845C42.7544 28.491 44.2401 30.2954 43.861 32.4454C43.4847 34.5789 41.4701 35.7746 39.1663 35.36C36.8351 34.9573 35.3346 33.1418 35.719 31.0097ZM35.399 39.8036C38.6198 39.9416 40.4569 38.605 40.7562 36.9552L40.8226 36.5792L42.8826 36.9424L42.8163 37.3184C42.5251 38.9697 43.8025 40.8554 46.9089 41.8331L45.8032 43.3239C43.5272 42.5601 42.0056 41.2466 41.3529 39.6902C40.199 40.9281 38.3199 41.6419 35.9118 41.5797L35.399 39.8036ZM37.779 31.3729C37.5594 32.5227 38.3073 33.3963 39.4777 33.5942C40.6207 33.8042 41.6222 33.2391 41.8336 32.0879C42.0345 30.9011 41.2837 30.0439 40.1378 29.8502C38.9703 29.6359 37.9717 30.1847 37.779 31.3729ZM54.0135 31.0831L52.3393 39.3348L50.2466 38.9658L51.4957 30.6392L54.0135 31.0831ZM49.5266 41.2326C49.6429 40.4776 50.3723 39.9741 51.1392 40.1178C51.8682 40.2379 52.3896 40.962 52.257 41.714C52.1229 42.4743 51.3853 42.9764 50.6578 42.8481C49.8894 42.7126 49.3762 41.99 49.5266 41.2326Z" fill="white"/>
<defs>
<linearGradient id="paint0_linear_1034_4341" x1="95.059" y1="149.42" x2="149.569" y2="226.451" gradientUnits="userSpaceOnUse">
<stop stop-color="#EFEFEF"/>
<stop offset="1" stop-color="#E14942"/>
</linearGradient>
</defs>
</svg>
