<svg width="32" height="33" viewBox="0 0 32 33" fill="none" xmlns="http://www.w3.org/2000/svg">
<path d="M23.5011 7.86633H8.49954C8.15496 7.86633 7.8245 8.00322 7.58085 8.24687C7.3372 8.49052 7.20032 8.82098 7.20032 9.16556V24.1671C7.20032 24.5117 7.3372 24.8421 7.58085 25.0858C7.8245 25.3295 8.15496 25.4663 8.49954 25.4663H23.5011C23.8457 25.4663 24.1761 25.3295 24.4198 25.0858C24.6634 24.8421 24.8003 24.5117 24.8003 24.1671V9.16556C24.8003 8.82098 24.6634 8.49052 24.4198 8.24687C24.1761 8.00322 23.8457 7.86633 23.5011 7.86633ZM12.4461 22.8593H9.79998V14.4541H12.4461V22.8593ZM11.1212 13.2893C10.8211 13.2876 10.5281 13.1971 10.2794 13.0291C10.0307 12.8611 9.83727 12.6231 9.72363 12.3453C9.60999 12.0675 9.58119 11.7622 9.64087 11.4681C9.70055 11.1739 9.84604 10.904 10.059 10.6924C10.2719 10.4809 10.5427 10.3371 10.8373 10.2793C11.1318 10.2215 11.4369 10.2523 11.7139 10.3677C11.991 10.4831 12.2277 10.6781 12.3941 10.9279C12.5605 11.1777 12.6492 11.4712 12.649 11.7713C12.6518 11.9723 12.6142 12.1718 12.5383 12.3579C12.4624 12.544 12.3498 12.7129 12.2072 12.8545C12.0646 12.9962 11.895 13.1077 11.7084 13.1824C11.5219 13.2571 11.3221 13.2935 11.1212 13.2893ZM22.1994 22.8667H19.5545V18.2748C19.5545 16.9206 18.9789 16.5026 18.2358 16.5026C17.4511 16.5026 16.6811 17.0941 16.6811 18.309V22.8667H14.035V14.4602H16.5797V15.625H16.6139C16.8693 15.108 17.764 14.2243 19.1292 14.2243C20.6057 14.2243 22.2007 15.1007 22.2007 17.6673L22.1994 22.8667Z" fill="white"/>
</svg>
