<svg width="24" height="25" viewBox="0 0 24 25" fill="none" xmlns="http://www.w3.org/2000/svg">
<path d="M18.0164 8.34216C17.8701 7.37858 17.0417 6.6665 16.067 6.6665C14.978 6.6665 14.0952 7.5493 14.0952 8.63829V14.4251L16.4222 16.7229C16.6093 16.9077 16.8618 17.0113 17.1248 17.0113H19.3333L18.0164 8.34216Z" fill="#ADBBFF"/>
<path d="M14.0952 14.4251L16.4222 16.7229C16.6093 16.9077 16.8618 17.0113 17.1248 17.0113H19.3333H22C22.5523 17.0113 23 17.459 23 18.0113V20.6665C23 21.2188 22.5523 21.6665 22 21.6665H17.4546C14.9359 21.6665 12.8105 19.7931 12.4942 17.2944L12.128 14.4019C12.0601 13.8652 12.4784 13.3906 13.0193 13.3906C13.358 13.3906 13.6679 13.5811 13.8208 13.8832L14.0952 14.4251Z" fill="#ADBBFF"/>
<rect x="8" y="5.6665" width="1" height="2" rx="0.5" transform="rotate(135 8 5.6665)" fill="#3457FD"/>
<rect width="1" height="2" rx="0.5" transform="matrix(0.707107 0.707107 0.707107 -0.707107 17 5.6665)" fill="#ADBBFF"/>
<rect x="13" y="5.6665" width="1" height="2" rx="0.5" transform="rotate(-180 13 5.6665)" fill="#5270FF"/>
<path d="M6.98355 8.34216C7.12993 7.37858 7.95834 6.6665 8.93298 6.6665C10.022 6.6665 10.9048 7.5493 10.9048 8.63829V14.4251L8.57782 16.7229C8.39066 16.9077 8.13822 17.0113 7.87519 17.0113H5.66667L6.98355 8.34216Z" fill="#3457FD"/>
<path d="M10.9048 14.4251L8.57782 16.7229C8.39066 16.9077 8.13822 17.0113 7.87519 17.0113H5.66667H3C2.44772 17.0113 2 17.459 2 18.0113V20.6665C2 21.2188 2.44772 21.6665 3 21.6665H7.54542C10.0641 21.6665 12.1895 19.7931 12.5058 17.2944L12.872 14.4019C12.9399 13.8652 12.5216 13.3906 11.9807 13.3906C11.642 13.3906 11.3321 13.5811 11.1792 13.8832L10.9048 14.4251Z" fill="#3457FD"/>
</svg>
