<svg width="301" height="48" viewBox="0 0 301 48" fill="none" xmlns="http://www.w3.org/2000/svg">
<path d="M12.1562 17.1875C12.1406 21.7812 14.5156 26.7031 19.2812 28.6875L17.125 31.8125C13.7812 30.3906 11.4688 27.5625 10.1875 24.125C8.90625 27.8594 6.54688 30.9844 3.1875 32.5312L0.90625 29.375C5.625 27.2656 8.0625 22 8.0625 17.1875V15.4375H2.03125V12.1875H18.0938V15.4375H12.1562V17.1875ZM20.9062 37.875V9.4375H24.9375V37.875H20.9062ZM52.7188 10.7188V13C52.7344 15.2188 52.7344 17.6719 52.0469 20.9375H55.8125V24.1562H29.7812V20.9375H48.0312C48.6406 18.1094 48.7188 15.9062 48.75 13.9062H32.9688V10.7188H52.7188ZM32.875 37.5625V27.1562H52.625V37.5625H32.875ZM36.7812 34.375H48.6562V30.2812H36.7812V34.375ZM89.25 9.4375V20.3438H93.2812V23.625H89.25V37.8125H85.25V9.4375H89.25ZM66.5 29.8438C73.2344 26.4688 76.8594 21.9375 77.6094 15.5938H68.125V12.3438H81.6562C81.625 20.8438 78.3125 28.2031 68.75 32.9062L66.5 29.8438ZM111.625 11.3438V14.5312H105.969C105.984 17.8438 108 21.0469 112.531 22.375L110.625 25.5C107.484 24.5469 105.297 22.625 104.047 20.2031C102.781 23.0625 100.469 25.3438 97.0625 26.4688L95.0312 23.3125C99.75 21.8281 101.891 18.1406 101.938 14.5312H96.125V11.3438H111.625ZM98.9688 32.3438C98.9531 28.875 102.703 26.8594 108.719 26.875C114.641 26.8594 118.297 28.875 118.312 32.3438C118.297 35.8281 114.641 37.8906 108.719 37.875C102.703 37.8906 98.9531 35.8281 98.9688 32.3438ZM102.969 32.3438C102.938 33.9688 104.984 34.7812 108.719 34.7812C112.406 34.7812 114.375 33.9688 114.375 32.3438C114.375 30.75 112.406 29.9531 108.719 29.9688C104.984 29.9531 102.938 30.75 102.969 32.3438ZM114.031 26.3125V9.4375H118.031V16.0312H121.875V19.2812H118.031V26.3125H114.031ZM224.75 9.46875V18.1875H228.594V21.4375H224.75V30.6875H220.75V9.46875H224.75ZM202.188 15.5938V12.4375H208.656V9.40625H212.625V12.4375H219.062V15.5938H202.188ZM203.562 22.0938C203.562 18.7969 206.484 16.5938 210.625 16.5938C214.75 16.5938 217.625 18.7969 217.625 22.0938C217.625 25.375 214.75 27.5312 210.625 27.5312C206.484 27.5312 203.562 25.375 203.562 22.0938ZM206.312 37.375V29.0625H210.281V34.1875H225.781V37.375H206.312ZM207.469 22.0938C207.453 23.6562 208.719 24.5 210.625 24.5C212.547 24.5 213.844 23.6562 213.844 22.0938C213.844 20.5156 212.547 19.6406 210.625 19.625C208.719 19.6406 207.453 20.5156 207.469 22.0938Z" fill="#1D1E1F"/>
<path d="M133.562 35V12.375H138.25V21.75H148.062V12.375H152.781V35H148.062V25.625H138.25V35H133.562ZM178.312 23.6875C178.312 31.0781 173.734 35.3125 167.75 35.3125C161.719 35.3125 157.156 31.0469 157.156 23.6875C157.156 16.2969 161.719 12.0625 167.75 12.0625C173.734 12.0625 178.312 16.2969 178.312 23.6875ZM161.938 23.6875C161.938 28.5156 164.234 31.1406 167.75 31.1562C171.234 31.1406 173.547 28.5156 173.531 23.6875C173.547 18.8438 171.234 16.2344 167.75 16.2188C164.234 16.2344 161.938 18.8438 161.938 23.6875ZM180.812 16.25V12.375H199.344V16.25H192.406V35H187.75V16.25H180.812Z" fill="#5270FF"/>
<path d="M294.902 32.2745H301V37.4333H272.367V32.2745H278.465V27.5511H273.66V22.4257H277.968V15.6589H273.958V10.5H299.409V15.6589H295.399V22.4257H299.708V27.5511H294.902V32.2745ZM283.568 15.6589V22.4257H289.799V15.6589H283.568ZM284.066 27.5511V32.2745H289.302V27.5511H284.066Z" fill="#1D1E1F"/>
<path d="M268.763 37.4333V10.5H263.135V37.4333H268.763Z" fill="#5270FF"/>
<path fill-rule="evenodd" clip-rule="evenodd" d="M243.6 10.5001H260.999V15.6298H260.965L260.979 15.6495L246.123 23.3934L243 19.0135L249.491 15.6298H243.6V10.5001ZM260.399 37.5001H243V32.3704H243.035L243.021 32.3508L257.876 24.6068L260.999 28.9867L254.508 32.3704H260.399V37.5001ZM257.855 17.9382L243 25.6821L246.123 30.062L260.979 22.3181L257.855 17.9382Z" fill="#5270FF"/>
</svg>
