<svg width="201" height="32" viewBox="0 0 201 32" fill="none" xmlns="http://www.w3.org/2000/svg">
<path d="M8.10417 12.1249C8.09375 15.1874 9.67708 18.4686 12.8542 19.7915L11.4167 21.8749C9.1875 20.927 7.64583 19.0415 6.79167 16.7499C5.9375 19.2395 4.36458 21.3228 2.125 22.354L0.604167 20.2499C3.75 18.8436 5.375 15.3332 5.375 12.1249V10.9582H1.35417V8.79154H12.0625V10.9582H8.10417V12.1249ZM13.9375 25.9165V6.95821H16.625V25.9165H13.9375ZM35.1458 7.81238V9.33321C35.1563 10.8124 35.1563 12.4478 34.6979 14.6249H37.2083V16.7707H19.8542V14.6249H32.0208C32.4271 12.7395 32.4792 11.2707 32.5 9.93738H21.9792V7.81238H35.1458ZM21.9167 25.7082V18.7707H35.0833V25.7082H21.9167ZM24.5208 23.5832H32.4375V20.854H24.5208V23.5832ZM59.5 6.95821V14.229H62.1875V16.4165H59.5V25.8749H56.8333V6.95821H59.5ZM44.3333 20.5624C48.8229 18.3124 51.2396 15.2915 51.7396 11.0624H45.4167V8.89571H54.4375C54.4167 14.5624 52.2083 19.4686 45.8333 22.604L44.3333 20.5624ZM74.4167 8.22904V10.354H70.6458C70.6563 12.5624 72 14.6978 75.0208 15.5832L73.75 17.6665C71.6563 17.0311 70.1979 15.7499 69.3646 14.1353C68.5208 16.0415 66.9792 17.5624 64.7083 18.3124L63.3542 16.2082C66.5 15.2186 67.9271 12.7603 67.9583 10.354H64.0833V8.22904H74.4167ZM65.9792 22.229C65.9688 19.9165 68.4688 18.5728 72.4792 18.5832C76.4271 18.5728 78.8646 19.9165 78.875 22.229C78.8646 24.552 76.4271 25.927 72.4792 25.9165C68.4688 25.927 65.9688 24.552 65.9792 22.229ZM68.6458 22.229C68.625 23.3124 69.9896 23.854 72.4792 23.854C74.9375 23.854 76.25 23.3124 76.25 22.229C76.25 21.1665 74.9375 20.6353 72.4792 20.6457C69.9896 20.6353 68.625 21.1665 68.6458 22.229ZM76.0208 18.2082V6.95821H78.6875V11.354H81.25V13.5207H78.6875V18.2082H76.0208ZM149.833 6.97904V12.7915H152.396V14.9582H149.833V21.1249H147.167V6.97904H149.833ZM134.792 11.0624V8.95821H139.104V6.93738H141.75V8.95821H146.042V11.0624H134.792ZM135.708 15.3957C135.708 13.1978 137.656 11.729 140.417 11.729C143.167 11.729 145.083 13.1978 145.083 15.3957C145.083 17.5832 143.167 19.0207 140.417 19.0207C137.656 19.0207 135.708 17.5832 135.708 15.3957ZM137.542 25.5832V20.0415H140.188V23.4582H150.521V25.5832H137.542ZM138.313 15.3957C138.302 16.4374 139.146 16.9999 140.417 16.9999C141.698 16.9999 142.563 16.4374 142.563 15.3957C142.563 14.3436 141.698 13.7603 140.417 13.7499C139.146 13.7603 138.302 14.3436 138.313 15.3957Z" fill="#F0F0F1"/>
<path d="M89.0417 23.9999V8.91654H92.1667V15.1665H98.7083V8.91654H101.854V23.9999H98.7083V17.7499H92.1667V23.9999H89.0417ZM118.875 16.4582C118.875 21.3853 115.823 24.2082 111.833 24.2082C107.813 24.2082 104.771 21.3645 104.771 16.4582C104.771 11.5311 107.813 8.70821 111.833 8.70821C115.823 8.70821 118.875 11.5311 118.875 16.4582ZM107.958 16.4582C107.958 19.677 109.49 21.427 111.833 21.4374C114.156 21.427 115.698 19.677 115.688 16.4582C115.698 13.229 114.156 11.4895 111.833 11.479C109.49 11.4895 107.958 13.229 107.958 16.4582ZM120.542 11.4999V8.91654H132.896V11.4999H128.271V23.9999H125.167V11.4999H120.542Z" fill="#5270FF"/>
<path d="M196.602 21.5162H200.667V24.9554H181.578V21.5162H185.643V18.3673H182.44V14.9504H185.312V10.4391H182.639V6.99988H199.606V10.4391H196.933V14.9504H199.805V18.3673H196.602V21.5162ZM189.046 10.4391V14.9504H193.199V10.4391H189.046ZM189.377 18.3673V21.5162H192.868V18.3673H189.377Z" fill="#F0F0F1"/>
<path d="M179.176 24.9554V6.99988H175.423V24.9554H179.176Z" fill="#5270FF"/>
<path fill-rule="evenodd" clip-rule="evenodd" d="M162.4 7H174V10.4198H173.977L173.986 10.4329L164.082 15.5955L162 12.6756L166.328 10.4198H162.4V7ZM173.599 25H162V21.5802H162.023L162.014 21.5671L171.917 16.4045L173.999 19.3244L169.672 21.5802H173.599V25ZM171.904 11.9587L162 17.1213L164.082 20.0412L173.986 14.8786L171.904 11.9587Z" fill="#5270FF"/>
</svg>
