<svg width="290" height="255" viewBox="0 0 290 255" fill="none" xmlns="http://www.w3.org/2000/svg">
<path d="M209.165 209.752C201.577 245.559 170.643 248.685 134.912 241.114C99.176 233.541 72.1744 218.139 79.762 182.331C87.3497 146.524 122.465 123.638 158.201 131.21C193.932 138.782 216.752 173.945 209.165 209.752Z" fill="url(#paint0_linear_1034_4351)"/>
<path fill-rule="evenodd" clip-rule="evenodd" d="M116.133 172.51C118.69 172.925 121.095 171.191 121.509 168.634C121.924 166.076 120.191 163.666 117.634 163.251C115.076 162.836 112.665 164.575 112.25 167.133C111.835 169.69 113.575 172.096 116.133 172.51ZM146.689 177.464C149.247 177.878 151.657 176.146 152.071 173.588C152.486 171.03 150.747 168.619 148.19 168.204C145.632 167.79 143.227 169.529 142.812 172.087C142.397 174.645 144.131 177.049 146.689 177.464Z" fill="#101010"/>
<rect x="79.5" y="34.3928" width="210" height="66" rx="33" fill="#F0F0F1"/>
<path d="M121.224 59.8293V70.6868H119.099V59.8293H121.224ZM108.806 64.594C108.806 62.3777 110.615 60.7839 112.939 60.7922C115.255 60.7839 117.065 62.3777 117.073 64.594C117.065 66.8435 115.255 68.429 112.939 68.429C110.615 68.429 108.806 66.8435 108.806 64.594ZM110.881 64.594C110.864 65.8557 111.752 66.5862 112.939 66.5862C114.085 66.5862 114.973 65.8557 114.981 64.594C114.973 63.3655 114.085 62.6267 112.939 62.635C111.752 62.6267 110.864 63.3655 110.881 64.594ZM111.097 74.6545V69.5911H113.238V72.9612H121.622V74.6545H111.097ZM135.252 59.8127V64.0461H137.294V65.7893H135.252V70.637H133.11V59.8127H135.252ZM123.166 67.4827C126.553 66.5447 128.47 64.7932 128.802 62.6682H123.83V60.9417H131.135C131.126 65.0256 128.578 67.8811 124.046 69.1594L123.166 67.4827ZM125.424 74.6545V69.5247H127.565V72.9612H135.767V74.6545H125.424ZM143.818 63.9299C143.81 66.3704 145.072 68.9851 147.604 70.0393L146.458 71.6995C144.682 70.9441 143.453 69.4417 142.772 67.6155C142.092 69.5994 140.838 71.2595 139.054 72.0813L137.842 70.4045C140.349 69.2839 141.644 66.4866 141.644 63.9299V63.0002H138.439V61.2737H146.973V63.0002H143.818V63.9299ZM148.467 74.9202V59.8127H150.608V74.9202H148.467ZM166.479 71.55V73.2434H152.65V71.55H156.087V68.678H153.796V66.968H155.821V62.718H153.729V61.0247H165.317V62.718H163.192V66.968H165.251V68.678H162.977V71.55H166.479ZM157.946 66.968H161.101V62.718H157.946V66.968ZM158.212 71.55H160.852V68.678H158.212V71.55ZM185.073 68.5286V70.1887H179.163V74.9202H177.071V70.1887H171.244V68.5286H185.073ZM172.871 67.0676V60.3938H174.963V62.137H181.305V60.3938H183.43V67.0676H172.871ZM174.963 65.3743H181.305V63.7971H174.963V65.3743ZM199.782 71.467V73.1936H185.953V71.467H199.782ZM187.53 62.5188V60.8254H198.188V65.8557H189.672V67.5823H198.537V69.2424H187.547V64.1624H196.097V62.5188H187.53ZM212.914 63.9299V65.5901H202.355V60.344H204.464V63.9299H212.914ZM200.629 68.8772V67.217H214.458V68.8772H200.629ZM202.223 74.5881V70.1057H204.348V72.8948H213.014V74.5881H202.223ZM233.035 66.6692V68.3792H227.191V69.4998C229.814 69.6907 231.375 70.637 231.392 72.1975C231.375 73.949 229.391 74.9285 226.129 74.9202C222.817 74.9285 220.833 73.949 220.833 72.1975C220.833 70.6287 222.402 69.6824 225.083 69.4915V68.3792H219.256V66.6692H233.035ZM219.87 64.4446C222.667 64.1956 224.211 63.1663 224.593 62.1204H220.518V60.4602H231.79V62.1204H227.681C228.046 63.1746 229.582 64.1956 232.454 64.4446L231.707 66.1047C228.852 65.8308 226.934 64.76 226.129 63.2908C225.332 64.7517 223.431 65.8391 220.567 66.1047L219.87 64.4446ZM222.991 72.1975C222.983 72.928 224.037 73.3264 226.129 73.3264C228.179 73.3264 229.258 72.928 229.267 72.1975C229.258 71.4338 228.179 71.0686 226.129 71.052C224.037 71.0686 222.983 71.4338 222.991 72.1975Z" fill="#101010"/>
<rect x="248.833" y="59.3928" width="1.33333" height="3.33333" rx="0.666667" fill="#101010"/>
<rect width="1.33333" height="3.33333" rx="0.666667" transform="matrix(1 0 0 -1 248.833 75.3928)" fill="#101010"/>
<rect x="244.833" y="66.7262" width="1.33333" height="3.33333" rx="0.666667" transform="rotate(90 244.833 66.7262)" fill="#101010"/>
<rect width="1.33333" height="3.33333" rx="0.666667" transform="matrix(4.37114e-08 1 1 -4.37114e-08 254.166 66.7262)" fill="#101010"/>
<rect x="245.72" y="64.3928" width="1.33333" height="3.33333" rx="0.666667" transform="rotate(120 245.72 64.3928)" fill="#101010"/>
<rect width="1.33333" height="3.33333" rx="0.666667" transform="matrix(-0.5 -0.866025 -0.866025 0.5 245.808 70.5476)" fill="#101010"/>
<rect width="1.33333" height="3.33333" rx="0.666667" transform="matrix(0.5 0.866025 0.866025 -0.5 253.5 64.3005)" fill="#101010"/>
<rect x="253.5" y="70.5476" width="1.33333" height="3.33333" rx="0.666667" transform="rotate(-60 253.5 70.5476)" fill="#101010"/>
<rect x="247.654" y="62.9462" width="1.33333" height="3.33333" rx="0.666667" transform="rotate(150 247.654 62.9462)" fill="#101010"/>
<rect width="1.33333" height="3.33333" rx="0.666667" transform="matrix(-0.866026 -0.5 -0.5 0.866026 247.654 72.0594)" fill="#101010"/>
<rect width="1.33333" height="3.33333" rx="0.666667" transform="matrix(0.866026 0.5 0.5 -0.866026 251.5 62.9462)" fill="#101010"/>
<rect x="251.5" y="72.0594" width="1.33333" height="3.33333" rx="0.666667" transform="rotate(-30 251.5 72.0594)" fill="#101010"/>
<rect width="124" height="58" rx="29" fill="#3457FD"/>
<path d="M39.4307 22.2998V23.9932H36.4258C36.4424 25.728 37.5132 27.4712 39.9619 28.21L38.8994 29.9033C37.2227 29.3721 36.0522 28.3179 35.3799 26.9897C34.6992 28.4756 33.479 29.6626 31.7109 30.2354L30.6152 28.542C33.1221 27.7617 34.2427 25.8774 34.2842 23.9932H31.1963V22.2998H39.4307ZM32.9893 36.3613V30.7832H42.8672V36.3613H32.9893ZM35.0811 34.668H40.7754V32.4434H35.0811V34.668ZM40.7422 30.1855V21.4199H42.8672V24.8398H44.9092V26.5664H42.8672V30.1855H40.7422ZM51.4502 24.8398C51.4419 27.6123 52.7036 30.3931 55.2686 31.4805L54.0234 33.1738C52.2969 32.3936 51.1016 30.8828 50.4126 29.0151C49.7319 31.0571 48.4951 32.7007 46.6523 33.5391L45.374 31.7793C48.0137 30.667 49.3003 27.77 49.3086 24.8398V22.582H51.4502V24.8398ZM56.082 36.5605V21.4199H58.2236V36.5605H56.082ZM67.9688 22.665V29.9199H60.7139V22.665H67.9688ZM62.457 36.2617V31.3643H64.5654V34.5684H72.7998V36.2617H62.457ZM62.8057 28.2598H65.877V24.3584H62.8057V28.2598ZM70.127 32.4434V21.4199H72.252V25.7695H74.2939V27.5127H72.252V32.4434H70.127ZM88.7871 33.0244V34.7676H74.958V33.0244H78.0459V29.3223C76.8755 28.6167 76.1699 27.5459 76.1699 26.2178C76.1699 23.769 78.5605 22.1587 81.8477 22.1504C85.1182 22.1587 87.5337 23.769 87.542 26.2178C87.5337 27.521 86.853 28.5752 85.7158 29.2808V33.0244H88.7871ZM78.2617 26.2178C78.2617 27.6953 79.6812 28.6084 81.8477 28.6084C83.981 28.6084 85.4419 27.6953 85.4502 26.2178C85.4419 24.6987 83.981 23.8188 81.8477 23.8271C79.6812 23.8188 78.2617 24.6987 78.2617 26.2178ZM80.1377 33.0244H83.5742V30.0859C83.0347 30.1938 82.4536 30.252 81.8477 30.252C81.2417 30.252 80.6689 30.1938 80.1377 30.0942V33.0244ZM91.6094 35.1494C90.8291 35.1494 90.1982 34.5269 90.2148 33.7549C90.1982 32.9912 90.8291 32.3687 91.6094 32.377C92.3481 32.3687 92.9873 32.9912 92.9873 33.7549C92.9873 34.5269 92.3481 35.1494 91.6094 35.1494Z" fill="white"/>
<defs>
<linearGradient id="paint0_linear_1034_4351" x1="135.929" y1="132.233" x2="149.585" y2="225.607" gradientUnits="userSpaceOnUse">
<stop stop-color="#EFEFEF"/>
<stop offset="1" stop-color="#3457FD"/>
</linearGradient>
</defs>
</svg>
