<svg width="201" height="38" viewBox="0 0 201 38" fill="none" xmlns="http://www.w3.org/2000/svg">
<path d="M192.198 30.3465H200.505V37.2933H161.5V30.3465H169.807V23.986H163.261V17.0843H169.129V7.97223H163.667V1.02539H198.338V7.97223H192.876V17.0843H198.744V23.986H192.198V30.3465ZM176.759 7.97223V17.0843H185.246V7.97223H176.759ZM177.436 23.986V30.3465H184.569V23.986H177.436Z" fill="white"/>
<path d="M156.547 37.2944V0H148.678V37.2944H156.547Z" fill="white"/>
<path d="M146.043 27.7572L137.973 19.6873L132.938 24.7227L141.007 32.7926L146.043 27.7572Z" fill="white"/>
<path d="M120.5 33.5002C133.164 33.5002 142.5 19.8707 142.5 8.33683V1.50024H120.5V8.7554H135.066V9.63904C135.066 14.9874 129.101 25.3876 120.5 25.4806V33.5002Z" fill="white"/>
<path d="M25.6631 25.5977L16.5879 30.2832H24.8232V37.3867H0.498047V30.2832H0.546875L0.527344 30.2559L21.2969 19.5332L25.6631 25.5977ZM25.6338 16.3633L4.86523 27.0869L0.498047 21.0215L21.2676 10.2988L25.6338 16.3633ZM25.6631 7.10254H25.6133L25.6338 7.13086L4.86523 17.8535L0.498047 11.7891L9.57617 7.10254H1.33789V0H25.6631V7.10254Z" fill="white"/>
<path d="M112.514 7.44519H116.368V14.6276H112.514V27.6786H104.587V0H112.514V7.44519ZM99.8132 6.4379C99.8132 17.2991 90.3535 22.467 77.5215 22.467V15.9415C86.2367 15.8539 92.2805 12.7006 92.2805 7.66416V6.83206H77.5215V0H99.8132V6.4379ZM86.4995 24.4377V30.7442H112.514V37.4011H78.9667V24.4377H86.4995Z" fill="white"/>
<path d="M72.2302 0V27.6786H64.3033V0H72.2302ZM47.7049 0.0437973C55.0187 0.0437973 60.0114 4.51091 60.0114 11.2554C60.0114 18.0436 55.0187 22.467 47.7049 22.467C40.3911 22.467 35.3984 18.0436 35.3984 11.2554C35.3984 4.51091 40.3911 0.0437973 47.7049 0.0437973ZM47.7049 6.21892C44.8582 6.21892 42.756 8.01453 42.756 11.2554C42.756 14.4962 44.8582 16.2918 47.7049 16.2918C50.5516 16.2918 52.6538 14.4962 52.6538 11.2554C52.6538 8.01453 50.5516 6.21892 47.7049 6.21892ZM46.2159 24.3063V30.7442H72.2302V37.4011H38.6831V24.3063H46.2159Z" fill="white"/>
</svg>
