<svg width="486" height="110" viewBox="0 0 486 110" fill="none" xmlns="http://www.w3.org/2000/svg">
<path d="M460.195 88.1219H485.112V109H368.112V88.1219H393.029V69.0062H373.393V48.2637H390.997V20.8781H374.612V0H478.612V20.8781H462.227V48.2637H479.831V69.0062H460.195V88.1219ZM413.883 20.8781V48.2637H439.341V20.8781H413.883ZM415.914 69.0062V88.1219H437.31V69.0062H415.914Z" fill="white"/>
<path d="M353.385 109V0H330.385V109H353.385Z" fill="white"/>
<path fill-rule="evenodd" clip-rule="evenodd" d="M250.564 0H321.658V20.76H321.519L321.576 20.8394L260.874 52.1792L248.112 34.4539L274.636 20.76H250.564V0ZM319.206 109.269H248.112V88.5091H248.251L248.194 88.4297L308.896 57.0898L321.658 74.8152L295.134 88.5091H319.206V109.269ZM308.814 30.1019L248.112 61.4418L260.874 79.1671L321.576 47.8273L308.814 30.1019Z" fill="#5270FF"/>
<path d="M225.384 21.76H236.648V42.752H225.384V80.896H202.216V0H225.384V21.76ZM188.264 18.816C188.264 50.56 160.616 65.664 123.112 65.664V46.592C148.584 46.336 166.248 37.12 166.248 22.4V19.968H123.112V0H188.264V18.816ZM149.352 71.424V89.856H225.384V109.312H127.336V71.424H149.352Z" fill="white"/>
<path d="M107.648 0V80.896H84.48V0H107.648ZM35.968 0.128006C57.344 0.128006 71.936 13.184 71.936 32.896C71.936 52.736 57.344 65.664 35.968 65.664C14.592 65.664 0 52.736 0 32.896C0 13.184 14.592 0.128006 35.968 0.128006ZM35.968 18.176C27.648 18.176 21.504 23.424 21.504 32.896C21.504 42.368 27.648 47.616 35.968 47.616C44.288 47.616 50.432 42.368 50.432 32.896C50.432 23.424 44.288 18.176 35.968 18.176ZM31.616 71.04V89.856H107.648V109.312H9.6V71.04H31.616Z" fill="white"/>
</svg>
