<svg width="143" height="32" viewBox="0 0 143 32" fill="none" xmlns="http://www.w3.org/2000/svg">
<path d="M134.717 25.7968H142.011V31.9087H107.761V25.7968H115.055V20.2009H109.307V14.1287H114.46V6.11186H109.664V0H140.109V6.11186H135.312V14.1287H140.465V20.2009H134.717V25.7968ZM121.16 6.11186V14.1287H128.612V6.11186H121.16ZM121.754 20.2009V25.7968H128.018V20.2009H121.754Z" fill="#121212"/>
<path d="M103.45 31.9087V0H96.7173V31.9087H103.45Z" fill="#121212"/>
<path fill-rule="evenodd" clip-rule="evenodd" d="M73.3503 0H94.1625V6.07727H94.1215L94.1382 6.10043L76.3683 15.2749L72.6324 10.0859L80.3968 6.07727H73.3503V0ZM93.4445 31.9876H72.6323V25.9103H72.6737L72.6569 25.887L90.4268 16.7126L94.1627 21.9015L86.398 25.9103H93.4445V31.9876ZM90.4023 8.81204L72.6324 17.9865L76.3683 23.1754L94.1382 14.001L90.4023 8.81204Z" fill="#3457FD"/>
<path d="M65.9791 6.37002H69.2766V12.5152H65.9791V23.6815H59.1969V0H65.9791V6.37002ZM55.1126 5.5082C55.1126 14.8009 47.019 19.2225 36.04 19.2225V13.6393C43.4967 13.5644 48.6677 10.8665 48.6677 6.55738V5.84543H36.04V0H55.1126V5.5082ZM43.7215 20.9087V26.3045H65.9791V32H37.2766V20.9087H43.7215Z" fill="#121212"/>
<path d="M31.5129 0V23.6815H24.7307V0H31.5129ZM10.5293 0.0374725C16.7869 0.0374725 21.0585 3.85949 21.0585 9.62998C21.0585 15.4379 16.7869 19.2225 10.5293 19.2225C4.27166 19.2225 0 15.4379 0 9.62998C0 3.85949 4.27166 0.0374725 10.5293 0.0374725ZM10.5293 5.32084C8.09368 5.32084 6.29508 6.85714 6.29508 9.62998C6.29508 12.4028 8.09368 13.9391 10.5293 13.9391C12.9649 13.9391 14.7635 12.4028 14.7635 9.62998C14.7635 6.85714 12.9649 5.32084 10.5293 5.32084ZM9.25527 20.7963V26.3045H31.5129V32H2.8103V20.7963H9.25527Z" fill="#121212"/>
</svg>
