<svg width="120" height="28" viewBox="0 0 120 28" fill="none" xmlns="http://www.w3.org/2000/svg">
<path d="M113.836 22.5722H120V27.9201H91.0581V22.5722H97.2216V17.6758H92.3645V12.3627H96.7192V5.34793H92.666V6.10352e-05H118.392V5.34793H114.339V12.3627H118.694V17.6758H113.836V22.5722ZM102.38 5.34793V12.3627H108.678V5.34793H102.38ZM102.883 17.6758V22.5722H108.175V17.6758H102.883Z" fill="white"/>
<path d="M87.416 27.9201V9.15527e-05H81.7266V27.9201H87.416Z" fill="white"/>
<path fill-rule="evenodd" clip-rule="evenodd" d="M61.9812 6.10352e-05H79.5675V5.31767H79.533L79.5471 5.33795L64.5315 13.3656L61.3747 8.82527L67.9356 5.31767H61.9812V6.10352e-05ZM78.9608 27.9892H61.3745V22.6716H61.4095L61.3953 22.6512L76.411 14.6236L79.5678 19.1639L73.0066 22.6716H78.9608V27.9892ZM76.3903 7.71062L61.3747 15.7382L64.5315 20.2785L79.5471 12.2509L76.3903 7.71062Z" fill="white"/>
<path d="M55.7523 5.57379H58.5386V10.9508H55.7523V20.7213H50.0213V3.05176e-05H55.7523V5.57379ZM46.57 4.81969C46.57 12.9508 39.7308 16.8197 30.4536 16.8197V11.9344C36.7545 11.8689 41.124 9.50821 41.124 5.73773V5.11478H30.4536V3.05176e-05H46.57V4.81969ZM36.9445 18.2951V23.0164H55.7523V28H31.4985V18.2951H36.9445Z" fill="white"/>
<path d="M26.6285 0V20.7213H20.8975V0H26.6285ZM8.89727 0.0327884C14.185 0.0327884 17.7945 3.37704 17.7945 8.42622C17.7945 13.5082 14.185 16.8196 8.89727 16.8196C3.60957 16.8196 0 13.5082 0 8.42622C0 3.37704 3.60957 0.0327884 8.89727 0.0327884ZM8.89727 4.65573C6.83918 4.65573 5.31936 5.99999 5.31936 8.42622C5.31936 10.8524 6.83918 12.1967 8.89727 12.1967C10.9554 12.1967 12.4752 10.8524 12.4752 8.42622C12.4752 5.99999 10.9554 4.65573 8.89727 4.65573ZM7.82073 18.1967V23.0164H26.6285V28H2.37472V18.1967H7.82073Z" fill="white"/>
</svg>
