<svg width="178" height="40" viewBox="0 0 178 40" fill="none" xmlns="http://www.w3.org/2000/svg">
<path d="M168.639 32.246H177.757V39.8858H134.944V32.246H144.061V25.2511H136.876V17.6609H143.318V7.63981H137.322V0H175.378V7.63981H169.383V17.6609H175.824V25.2511H168.639V32.246ZM151.693 7.63981V17.6609H161.008V7.63981H151.693ZM152.436 25.2511V32.246H160.265V25.2511H152.436Z" fill="white"/>
<path d="M129.555 39.8858V0H121.139V39.8858H129.555Z" fill="white"/>
<path fill-rule="evenodd" clip-rule="evenodd" d="M91.9307 0H117.946V7.59658H117.895L117.915 7.62554L95.703 19.0936L91.0332 12.6074L100.739 7.59658H91.9307V0ZM117.048 39.9844H91.0332V32.3878H91.0847L91.0638 32.3587L113.276 20.8907L117.946 27.3769L108.24 32.3878H117.048V39.9844ZM113.246 11.0153L91.0332 22.4833L95.703 28.9695L117.915 17.5014L113.246 11.0153Z" fill="white"/>
<path d="M82.7168 7.96252H86.8386V15.644H82.7168V29.6018H74.2391V0H82.7168V7.96252ZM69.1337 6.88523C69.1337 18.5011 59.0166 24.0281 45.293 24.0281V17.0492C54.6138 16.9555 61.0775 13.5831 61.0775 8.19671V7.30678H45.293V0H69.1337V6.88523ZM54.8948 26.1358V32.8805H82.7168V39.9999H46.8386V26.1358H54.8948Z" fill="white"/>
<path d="M39.6342 0V29.6018H31.1565V0H39.6342ZM13.4047 0.0468405C21.2267 0.0468405 26.5663 4.82435 26.5663 12.0375C26.5663 19.2974 21.2267 24.0281 13.4047 24.0281C5.58273 24.0281 0.243164 19.2974 0.243164 12.0375C0.243164 4.82435 5.58273 0.0468405 13.4047 0.0468405ZM13.4047 6.65104C10.3602 6.65104 8.112 8.57141 8.112 12.0375C8.112 15.5035 10.3602 17.4239 13.4047 17.4239C16.4492 17.4239 18.6975 15.5035 18.6975 12.0375C18.6975 8.57141 16.4492 6.65104 13.4047 6.65104ZM11.8122 25.9953V32.8805H39.6342V39.9999H3.75604V25.9953H11.8122Z" fill="white"/>
</svg>
