<svg width="231" height="123" viewBox="0 0 231 123" fill="none" xmlns="http://www.w3.org/2000/svg">
<path d="M153 97.1629C153 117.687 136.211 123 115.5 123C94.7893 123 78 117.687 78 97.1629C78 76.6384 94.7893 60 115.5 60C136.211 60 153 76.6384 153 97.1629Z" fill="url(#paint0_linear_365_2939)" style="mix-blend-mode:luminosity"/>
<path fill-rule="evenodd" clip-rule="evenodd" d="M124.583 94.5125C126.052 94.5125 127.243 93.3348 127.243 91.8821C127.243 90.4294 126.052 89.2517 124.583 89.2517C123.114 89.2517 121.924 90.4294 121.924 91.8821C121.924 93.3348 123.114 94.5125 124.583 94.5125ZM107.03 94.5126C108.499 94.5126 109.689 93.3349 109.689 91.8822C109.689 90.4294 108.499 89.2518 107.03 89.2518C105.561 89.2518 104.37 90.4294 104.37 91.8822C104.37 93.3349 105.561 94.5126 107.03 94.5126Z" fill="#101010"/>
<rect x="105" y="21.75" width="126" height="36" rx="18" fill="#DBDCDF"/>
<path d="M127.619 35.5225C129.705 35.5225 131.273 36.579 131.279 38.1797C131.273 39.6469 130.036 40.6287 128.291 40.8208V42.4801H132.079V43.6006H123.19V42.4801H126.936V40.8208C125.201 40.6233 123.969 39.6416 123.969 38.1797C123.969 36.579 125.532 35.5225 127.619 35.5225ZM125.314 38.1797C125.314 39.2041 126.258 39.775 127.619 39.7803C128.984 39.775 129.929 39.2041 129.934 38.1797C129.929 37.2086 128.984 36.6057 127.619 36.611C126.258 36.6057 125.314 37.2086 125.314 38.1797ZM137.617 35.8213V36.9311H134.395V38.5318H137.479V39.5989H134.395V41.4344C135.782 41.4184 136.918 41.3597 138.215 41.1569L138.343 42.256C136.86 42.4801 135.537 42.5228 133.84 42.5228H133.018V35.8213H137.617ZM138.93 44.7317V35.021H140.296V38.7025H141.726V39.8444H140.296V44.7317H138.93ZM150.956 39.3748V40.3886H142.067V39.3748H150.956ZM143.081 41.8078V40.8688H149.889V43.1631H144.447V43.718H150.177V44.6464H143.092V42.2987H148.545V41.8078H143.081ZM143.156 36.1201V35.1917H149.879V37.4754H144.532V37.9982H150.049V38.916H143.177V36.611H148.513V36.1201H143.156ZM161.809 35.0317V37.8062H163.047V38.9266H161.809V41.6264H160.443V35.0317H161.809ZM153.934 40.3779C154.643 40.3779 155.449 40.3779 156.292 40.3566V39.8123C155.235 39.6629 154.579 39.1454 154.585 38.4037C154.579 37.502 155.524 36.9471 156.964 36.9525C158.394 36.9471 159.339 37.502 159.344 38.4037C159.339 39.1454 158.688 39.6576 157.647 39.807V40.3086C158.447 40.2659 159.248 40.2072 159.995 40.1111L160.091 41.0502C158.037 41.413 155.785 41.4344 154.072 41.4344L153.934 40.3779ZM154.19 36.7284V35.736H156.292V34.9463H157.647V35.736H159.749V36.7284H154.19ZM155.171 43.067V42.0213H161.809V44.7317H160.443V43.067H155.171ZM155.886 38.4037C155.881 38.7559 156.271 38.964 156.964 38.9586C157.647 38.964 158.037 38.7559 158.042 38.4037C158.037 38.0249 157.647 37.8595 156.964 37.8595C156.271 37.8595 155.881 38.0249 155.886 38.4037ZM171.616 35.0317V42.0106H170.25V35.0317H171.616ZM163.634 38.0943C163.634 36.6697 164.797 35.6453 166.291 35.6506C167.779 35.6453 168.943 36.6697 168.948 38.0943C168.943 39.5402 167.779 40.5593 166.291 40.5593C164.797 40.5593 163.634 39.5402 163.634 38.0943ZM164.968 38.0943C164.957 38.9053 165.528 39.3748 166.291 39.3748C167.027 39.3748 167.598 38.9053 167.603 38.0943C167.598 37.3046 167.027 36.8298 166.291 36.8351C165.528 36.8298 164.957 37.3046 164.968 38.0943ZM165.106 44.561V41.3063H166.483V43.4725H171.872V44.561H165.106ZM177.613 36.5043V37.5821H172.918V36.5043H174.604V35.2878H175.948V36.5043H177.613ZM173.142 40.3246C173.142 38.9747 174.049 38.0249 175.287 38.0196C176.53 38.0249 177.415 38.9747 177.421 40.3246C177.415 41.6798 176.53 42.6402 175.287 42.6402C174.049 42.6402 173.142 41.6798 173.142 40.3246ZM174.337 40.3246C174.337 41.0662 174.721 41.4877 175.287 41.4877C175.831 41.4877 176.22 41.0662 176.226 40.3246C176.22 39.5936 175.831 39.1507 175.287 39.1507C174.721 39.1507 174.337 39.5936 174.337 40.3246ZM177.976 44.3156V35.2131H179.246V38.9693H180.035V35.021H181.326V44.7317H180.035V40.0578H179.246V44.3156H177.976ZM191.229 40.3779V41.4664H187.452V44.7317H186.107V41.4664H182.372V40.3779H191.229ZM182.81 38.7452C184.773 38.5051 185.862 37.5554 186.006 36.6003H183.173V35.5332H190.44V36.6003H187.606C187.745 37.5554 188.818 38.5051 190.813 38.7452L190.322 39.8123C188.615 39.5829 187.393 38.8573 186.806 37.8595C186.214 38.8573 185.003 39.5829 183.311 39.8123L182.81 38.7452ZM194.932 37.4647C194.927 39.0387 195.364 40.6607 196.693 41.5091L195.957 42.5655C195.114 42.0586 194.585 41.2156 194.276 40.2232C193.929 41.3223 193.348 42.2454 192.467 42.7789L191.635 41.7758C193.075 40.8848 193.609 39.1721 193.609 37.5287V35.8533H194.932V37.4647ZM195.668 39.4068V38.297H196.928V35.1597H198.198V44.2836H196.928V39.4068H195.668ZM198.934 44.7317V35.021H200.236V44.7317H198.934ZM210.149 42.4801V43.6006H201.26V42.4801H203.245V40.1005C202.493 39.6469 202.039 38.9586 202.039 38.105C202.039 36.531 203.576 35.4959 205.689 35.4905C207.791 35.4959 209.344 36.531 209.349 38.105C209.344 38.9426 208.906 39.6203 208.175 40.0738V42.4801H210.149ZM203.384 38.105C203.384 39.0547 204.296 39.6416 205.689 39.6416C207.06 39.6416 207.999 39.0547 208.004 38.105C207.999 37.1285 207.06 36.563 205.689 36.5683C204.296 36.563 203.384 37.1285 203.384 38.105ZM204.59 42.4801H206.799V40.5913C206.452 40.6607 206.078 40.698 205.689 40.698C205.299 40.698 204.931 40.6607 204.59 40.5967V42.4801ZM211.963 43.846C211.462 43.846 211.056 43.4459 211.067 42.9497C211.056 42.4588 211.462 42.0586 211.963 42.064C212.438 42.0586 212.849 42.4588 212.849 42.9497C212.849 43.4459 212.438 43.846 211.963 43.846Z" fill="#101010"/>
<rect width="126" height="36" rx="18" fill="#3E3F40"/>
<path d="M26.6523 13.8366C26.6523 16.3763 25.0463 18.137 22.2025 18.9267L21.6689 17.8703C23.7658 17.2994 24.9716 16.2322 25.1957 14.925H22.1918V13.8366H26.6523ZM23.3656 22.8644V19.0974H29.8003V22.8644H23.3656ZM24.6995 21.7972H28.4558V20.1646H24.6995V21.7972ZM26.7164 16.6964V15.5866H28.4451V13.2817H29.8003V18.7133H28.4451V16.6964H26.7164ZM34.1648 14.957C34.1648 16.0402 34.6984 17.0913 35.9896 17.6035L35.2533 18.6493C34.4316 18.3184 33.8607 17.7262 33.5139 16.9952C33.1617 17.8276 32.5482 18.5265 31.6464 18.9054L30.9208 17.8489C32.292 17.262 32.8416 16.0562 32.8416 14.957V13.8366H34.1648V14.957ZM32.6922 20.6768V19.5883H39.4044V22.9817H38.0491V20.6768H32.6922ZM36.0323 19.1081V13.4311H37.3022V15.64H38.1132V13.2817H39.4044V19.1615H38.1132V16.7498H37.3022V19.1081H36.0323ZM51.2067 13.271V18.1584H49.8514V17.4114H47.6318V16.3763H49.8514V15.5226H47.7386C47.1356 16.9792 45.7484 17.9129 43.5981 18.3825L43.1393 17.2727C45.3642 16.8352 46.3887 15.9121 46.5701 14.7436H43.6835V13.6445H48.08C48.08 13.9379 48.0587 14.2207 48.016 14.4875H49.8514V13.271H51.2067ZM44.7506 19.5776V18.5105H51.2067V21.1676H46.1272V21.8079H51.4201V22.8857H44.7613V20.1646H49.8408V19.5776H44.7506ZM57.9295 14.2421V15.0211C57.9188 15.9334 57.9188 17.1286 57.6627 18.7453L56.3182 18.6386C56.5423 17.23 56.5636 16.1896 56.5743 15.3305H52.8927V14.2421H57.9295ZM52.3805 19.9085C52.9247 19.9085 53.533 19.9031 54.1626 19.8871V17.0272H55.5072V19.8444C56.4622 19.8071 57.428 19.7377 58.3243 19.6203L58.4097 20.6341C56.4089 20.9702 54.2106 21.0076 52.5086 20.9969L52.3805 19.9085ZM58.7832 22.9817V13.271H60.1598V17.1766H61.483V18.3078H60.1598V22.9817H58.7832ZM69.5717 13.271V16.9952H70.9483V18.1157H69.5717V22.9604H68.2058V13.271H69.5717ZM61.8031 20.2393C64.1028 19.0868 65.3406 17.5395 65.5967 15.3732H62.358V14.2634H66.9787C66.968 17.166 65.8368 19.679 62.5715 21.285L61.8031 20.2393ZM76.2092 18.948V19.9191H77.255V18.948H78.5142V21.8986C79.592 21.4078 80.0508 20.5007 80.0508 19.6203V18.8733H81.4167V19.6203C81.4114 20.6127 81.8863 21.5518 83.1028 21.9466L82.3985 22.9604C81.5608 22.6723 81.0219 22.1174 80.7124 21.4184C80.3923 22.096 79.8587 22.6563 79.0691 22.9604L78.5142 22.1227V22.875H74.95V18.948H76.2092ZM74.0003 15.9174C73.9896 14.5835 75.0887 13.6391 76.5827 13.6338C77.8152 13.6391 78.8023 14.3221 79.0691 15.3519H80.7018V13.271H82.057V18.4145H80.7018V16.4723H79.0744C78.813 17.5234 77.8206 18.2224 76.5827 18.2224C75.0887 18.2224 73.9896 17.2727 74.0003 15.9174ZM75.2915 15.9174C75.2862 16.6537 75.8197 17.1073 76.5827 17.1126C77.319 17.1073 77.8472 16.6537 77.8526 15.9174C77.8472 15.2025 77.319 14.7596 76.5827 14.7543C75.8197 14.7596 75.2862 15.2025 75.2915 15.9174ZM76.2092 21.8399H77.255V20.9222H76.2092V21.8399ZM85.9947 13.9539C87.3072 13.9539 88.289 15.0317 88.481 16.7818H90.1671V13.271H91.5117V23.0031H90.1671V17.8703H88.4971C88.353 19.7377 87.3499 20.8795 85.9947 20.8795C84.522 20.8795 83.4656 19.5456 83.4763 17.4114C83.4656 15.2932 84.522 13.9539 85.9947 13.9539ZM84.7782 17.4114C84.7728 18.8573 85.269 19.647 85.9947 19.6417C86.7256 19.647 87.2112 18.8573 87.2112 17.4114C87.2112 15.9708 86.7256 15.1811 85.9947 15.1811C85.269 15.1811 84.7728 15.9708 84.7782 17.4114ZM101.649 20.7301V21.8506H92.7602V20.7301H94.745V18.3505C93.9927 17.8969 93.5392 17.2086 93.5392 16.355C93.5392 14.781 95.0758 13.7459 97.1887 13.7405C99.2909 13.7459 100.844 14.781 100.849 16.355C100.844 17.1926 100.406 17.8703 99.6751 18.3238V20.7301H101.649ZM94.8837 16.355C94.8837 17.3047 95.7961 17.8916 97.1887 17.8916C98.56 17.8916 99.499 17.3047 99.5044 16.355C99.499 15.3785 98.56 14.813 97.1887 14.8183C95.7961 14.813 94.8837 15.3785 94.8837 16.355ZM96.0896 20.7301H98.2985V18.8413C97.9517 18.9107 97.5782 18.948 97.1887 18.948C96.7992 18.948 96.4311 18.9107 96.0896 18.8467V20.7301ZM103.463 22.096C102.962 22.096 102.556 21.6959 102.567 21.1997C102.556 20.7088 102.962 20.3086 103.463 20.314C103.938 20.3086 104.349 20.7088 104.349 21.1997C104.349 21.6959 103.938 22.096 103.463 22.096Z" fill="#F6F6F6"/>
<defs>
<linearGradient id="paint0_linear_365_2939" x1="103.266" y1="63.15" x2="121.459" y2="112.918" gradientUnits="userSpaceOnUse">
<stop stop-color="#E8ECFF"/>
<stop offset="1" stop-color="#3457FD"/>
</linearGradient>
</defs>
</svg>
