<svg width="298" height="37" viewBox="0 0 298 37" fill="none" xmlns="http://www.w3.org/2000/svg">
<path d="M290.085 28.7968H297.379V34.9087H263.128V28.7968H270.423V23.2009H264.674V17.1287H269.828V9.11186H265.031V3H295.476V9.11186H290.68V17.1287H295.833V23.2009H290.085V28.7968ZM276.527 9.11186V17.1287H283.98V9.11186H276.527ZM277.122 23.2009V28.7968H283.385V23.2009H277.122Z" fill="#121212"/>
<path d="M258.818 34.9087V3.00006H252.085V34.9087H258.818Z" fill="#121212"/>
<path fill-rule="evenodd" clip-rule="evenodd" d="M228.718 3H249.53V9.07727H249.489L249.506 9.10043L231.736 18.2749L228 13.0859L235.764 9.07727H228.718V3ZM248.812 34.9876H228V28.9103H228.041L228.025 28.887L245.794 19.7126L249.53 24.9015L241.766 28.9103H248.812V34.9876ZM245.77 11.812L228 20.9865L231.736 26.1754L249.506 17.001L245.77 11.812Z" fill="#3457FD"/>
<path d="M8.98198 7.8411H12.2278V11.0257C12.2278 12.6588 12.0543 14.2612 11.7072 15.8331C11.3806 17.405 10.8805 18.885 10.2068 20.2731C9.55357 21.6408 8.72681 22.8554 7.72653 23.917C6.72626 24.9581 5.56267 25.7848 4.23577 26.3972L1.9086 23.1821C3.0926 22.6309 4.1235 21.9164 5.00129 21.0386C5.8995 20.1608 6.63439 19.181 7.20598 18.099C7.79798 16.9967 8.23688 15.8433 8.52267 14.6389C8.82888 13.4141 8.98198 12.2097 8.98198 11.0257V7.8411ZM9.86998 7.8411H13.0852V11.0257C13.0852 12.1484 13.228 13.2916 13.5138 14.4552C13.82 15.5983 14.2589 16.6905 14.8305 17.7316C15.4021 18.7523 16.1268 19.6709 17.0046 20.4874C17.8824 21.304 18.9235 21.9572 20.1279 22.4472L17.8926 25.693C16.5453 25.101 15.3715 24.3048 14.3712 23.3046C13.3709 22.3043 12.534 21.1509 11.8603 19.8444C11.1867 18.5379 10.6865 17.1396 10.3599 15.6494C10.0333 14.1388 9.86998 12.5975 9.86998 11.0257V7.8411ZM3.04157 6.0651H18.9643V9.43338H3.04157V6.0651ZM21.5977 3.37048H25.6703V31.7252H21.5977V3.37048ZM32.8637 4.62593H50.8074V7.8411H32.8637V4.62593ZM29.7098 14.8226H55.4006V18.0378H29.7098V14.8226ZM48.3578 4.62593H52.3691V6.89186C52.3691 8.09627 52.3385 9.39255 52.2772 10.7807C52.216 12.1688 51.971 13.7815 51.5423 15.6188L47.4698 15.5881C47.9189 13.7305 48.1741 12.1178 48.2353 10.7501C48.317 9.38234 48.3578 8.09627 48.3578 6.89186V4.62593ZM32.7106 21.008H52.2466V31.419H32.7106V21.008ZM48.2659 24.1926H36.7219V28.2039H48.2659V24.1926ZM81.4786 3.30924H85.5818V31.664H81.4786V3.30924ZM84.5407 14.1796H89.5319V17.5172H84.5407V14.1796ZM74.0378 6.24883H78.0491C78.0491 9.08634 77.6408 11.7708 76.8243 14.3021C76.0281 16.8334 74.7012 19.1606 72.8436 21.2836C71.0063 23.3862 68.5159 25.2234 65.3721 26.7953L63.0756 23.7026C65.5661 22.4166 67.6176 20.9672 69.2303 19.3545C70.8634 17.7418 72.0679 15.9148 72.8436 13.8734C73.6397 11.8116 74.0378 9.51503 74.0378 6.98372V6.24883ZM64.6372 6.24883H76.1506V9.52524H64.6372V6.24883ZM97.2459 6.52441H100.584V8.30041C100.584 10.0968 100.288 11.8014 99.6955 13.4141C99.1239 15.0268 98.2462 16.4455 97.0622 17.6703C95.8782 18.8748 94.3777 19.773 92.5609 20.365L90.5399 17.1498C92.0914 16.6394 93.357 15.925 94.3369 15.0063C95.3372 14.0673 96.0721 13.016 96.5416 11.8524C97.0111 10.6684 97.2459 9.48441 97.2459 8.30041V6.52441ZM98.0726 6.52441H101.349V8.30041C101.349 9.40276 101.574 10.4745 102.023 11.5156C102.472 12.5363 103.166 13.4549 104.105 14.2714C105.064 15.088 106.31 15.731 107.841 16.2006L105.881 19.3851C104.084 18.8543 102.604 18.0378 101.441 16.9354C100.298 15.8127 99.4506 14.5164 98.8994 13.0466C98.3482 11.5564 98.0726 9.97434 98.0726 8.30041V6.52441ZM91.581 5.23834H106.922V8.48414H91.581V5.23834ZM109.157 3.37048H113.23V20.1812H109.157V3.37048ZM112.128 9.86207H116.996V13.1997H112.128V9.86207ZM103.982 20.6712C105.963 20.6712 107.667 20.8957 109.096 21.3448C110.525 21.7735 111.627 22.3961 112.403 23.2127C113.179 24.0292 113.567 25.0193 113.567 26.1829C113.567 27.3465 113.179 28.3366 112.403 29.1531C111.627 29.9901 110.525 30.6229 109.096 31.0516C107.667 31.5007 105.963 31.7252 103.982 31.7252C102.023 31.7252 100.318 31.5007 98.8688 31.0516C97.4398 30.6229 96.3273 29.9901 95.5311 29.1531C94.7554 28.3366 94.3675 27.3465 94.3675 26.1829C94.3675 25.0193 94.7554 24.0292 95.5311 23.2127C96.3273 22.3961 97.4398 21.7735 98.8688 21.3448C100.318 20.8957 102.023 20.6712 103.982 20.6712ZM103.982 23.8557C102.778 23.8557 101.768 23.9374 100.951 24.1007C100.134 24.264 99.5118 24.5192 99.0831 24.8662C98.6544 25.2132 98.4401 25.6521 98.4401 26.1829C98.4401 26.7341 98.6544 27.1832 99.0831 27.5302C99.5118 27.8772 100.134 28.1426 100.951 28.3263C101.768 28.4897 102.778 28.5713 103.982 28.5713C105.187 28.5713 106.197 28.4897 107.014 28.3263C107.851 28.1426 108.473 27.8772 108.882 27.5302C109.31 27.1832 109.525 26.7341 109.525 26.1829C109.525 25.6521 109.31 25.2132 108.882 24.8662C108.473 24.5192 107.851 24.264 107.014 24.1007C106.197 23.9374 105.187 23.8557 103.982 23.8557ZM138.634 29V7.56552H142.768V29H138.634ZM125.131 29V7.56552H129.264V29H125.131ZM128.713 19.7219V16.3843H139.339V19.7219H128.713ZM155.947 29.3674C153.824 29.3674 151.956 28.8979 150.343 27.9589C148.73 27.0199 147.465 25.7236 146.546 24.0701C145.648 22.3961 145.199 20.467 145.199 18.2828C145.199 16.0985 145.648 14.1796 146.546 12.5261C147.465 10.8521 148.73 9.54566 150.343 8.60662C151.956 7.66759 153.824 7.19807 155.947 7.19807C158.07 7.19807 159.938 7.66759 161.55 8.60662C163.183 9.54566 164.449 10.8521 165.347 12.5261C166.266 14.1796 166.725 16.0985 166.725 18.2828C166.725 20.467 166.266 22.3961 165.347 24.0701C164.449 25.7236 163.183 27.0199 161.55 27.9589C159.938 28.8979 158.07 29.3674 155.947 29.3674ZM155.947 25.6623C157.274 25.6623 158.427 25.3663 159.407 24.7743C160.387 24.1619 161.142 23.3046 161.673 22.2022C162.224 21.0999 162.5 19.7934 162.5 18.2828C162.5 16.7517 162.224 15.4452 161.673 14.3633C161.142 13.261 160.387 12.4138 159.407 11.8218C158.427 11.2298 157.274 10.9338 155.947 10.9338C154.62 10.9338 153.466 11.2298 152.487 11.8218C151.507 12.4138 150.741 13.261 150.19 14.3633C149.659 15.4452 149.394 16.7517 149.394 18.2828C149.394 19.7934 149.659 21.0999 150.19 22.2022C150.741 23.3046 151.507 24.1619 152.487 24.7743C153.466 25.3663 154.62 25.6623 155.947 25.6623ZM173.423 29V10.9032H167.146V7.56552H183.804V10.9032H177.526V29H173.423ZM209.306 3.37048H213.379V24.56H209.306V3.37048ZM212.246 12.0055H217.145V15.3738H212.246V12.0055ZM191.087 6.34069H207.744V9.52524H191.087V6.34069ZM199.416 10.5357C200.783 10.5357 201.988 10.7705 203.029 11.24C204.09 11.6891 204.917 12.3321 205.509 13.1691C206.101 13.9857 206.397 14.9247 206.397 15.9862C206.397 17.0681 206.101 18.0276 205.509 18.8646C204.917 19.6811 204.09 20.3241 203.029 20.7937C201.988 21.2428 200.783 21.4673 199.416 21.4673C198.068 21.4673 196.864 21.2428 195.802 20.7937C194.741 20.3241 193.914 19.6811 193.322 18.8646C192.73 18.0276 192.434 17.0681 192.434 15.9862C192.434 14.9247 192.73 13.9857 193.322 13.1691C193.914 12.3321 194.741 11.6891 195.802 11.24C196.864 10.7705 198.068 10.5357 199.416 10.5357ZM199.416 13.6284C198.517 13.6284 197.783 13.8326 197.211 14.2408C196.639 14.6491 196.354 15.2411 196.354 16.0168C196.354 16.7721 196.639 17.3539 197.211 17.7622C197.783 18.1705 198.517 18.3746 199.416 18.3746C200.334 18.3746 201.069 18.1705 201.62 17.7622C202.192 17.3539 202.478 16.7721 202.478 16.0168C202.478 15.2411 202.192 14.6491 201.62 14.2408C201.069 13.8326 200.334 13.6284 199.416 13.6284ZM197.395 3.33986H201.437V7.87172H197.395V3.33986ZM195.098 27.9589H214.389V31.2353H195.098V27.9589ZM195.098 22.9677H199.201V29.3674H195.098V22.9677Z" fill="black"/>
</svg>
