<svg width="29" height="30" viewBox="0 0 29 30" fill="none" xmlns="http://www.w3.org/2000/svg">
<path d="M20.651 18.445C20.7654 18.6037 20.7119 18.8269 20.5381 18.9165L17.3754 20.5472C17.0772 20.701 17.1865 21.1516 17.522 21.1516H20.1185C20.2952 21.1516 20.4385 21.2949 20.4385 21.4716V24.48C20.4385 24.6568 20.2952 24.8 20.1185 24.8H8.24969C8.07296 24.8 7.92969 24.6568 7.92969 24.48V21.159C7.92969 21.1549 7.93299 21.1516 7.93707 21.1516H7.9415C7.94559 21.1516 7.94799 21.147 7.94567 21.1437C7.94393 21.1411 7.94479 21.1377 7.94751 21.1363L18.378 15.7575C18.5188 15.6848 18.6916 15.7262 18.7843 15.8548L20.651 18.445ZM20.6373 13.7019C20.7517 13.8605 20.6982 14.0838 20.5244 14.1734L10.4198 19.3846C10.279 19.4572 10.1062 19.4159 10.0136 19.2874L8.14597 16.6971C8.03157 16.5384 8.08504 16.3152 8.25889 16.2255L18.3644 11.0152C18.5052 10.9426 18.6779 10.984 18.7706 11.1125L20.6373 13.7019ZM20.8691 9.24C20.8691 9.24458 20.8654 9.24829 20.8608 9.24829H20.8553C20.8509 9.24829 20.8483 9.25328 20.8509 9.25686C20.8528 9.25955 20.8519 9.26332 20.8489 9.26483L10.4198 14.6434C10.279 14.716 10.1062 14.6747 10.0136 14.5462L8.14597 11.9559C8.03157 11.7972 8.08504 11.5739 8.25889 11.4843L11.4234 9.85271C11.7216 9.69895 11.6123 9.24829 11.2768 9.24829H8.68035C8.50362 9.24829 8.36035 9.10502 8.36035 8.92829V5.91985C8.36035 5.74312 8.50362 5.59985 8.68035 5.59985H20.5491C20.7259 5.59985 20.8691 5.74312 20.8691 5.91985V9.24Z" fill="#D7D7D9"/>
</svg>
