<svg width="141" height="120" viewBox="0 0 141 120" fill="none" xmlns="http://www.w3.org/2000/svg">
<path d="M141 70.7865C141 109.881 109.436 120 70.5 120C31.5639 120 0 109.881 0 70.7865C0 31.6922 31.5639 0 70.5 0C109.436 0 141 31.6922 141 70.7865Z" fill="#D9D9D9"/>
<path d="M60 57C60 51.4772 55.5228 47 50 47C44.4772 47 40 51.4772 40 57" stroke="black" stroke-width="6"/>
<path d="M98 57C98 51.4772 93.5228 47 88 47C82.4772 47 78 51.4772 78 57" stroke="black" stroke-width="6"/>
<path d="M87 64H53C53 72.0476 54.36 90 69.6909 90C85.0218 90 87 72.0476 87 64Z" stroke="black" stroke-width="6"/>
</svg>
