<svg width="141" height="235" viewBox="0 0 141 235" fill="none" xmlns="http://www.w3.org/2000/svg">
<path d="M35.4517 125H106.546V145.76H35.4517L35.4517 125Z" fill="#D9D9D9"/>
<path d="M104.094 234.269H32.9999V213.509H104.094L104.094 234.269Z" fill="#D9D9D9"/>
<path d="M33 159.454L93.702 128.114L106.464 145.839L45.7617 177.179L33 159.454Z" fill="#D9D9D9"/>
<path d="M106.546 199.815L45.8439 231.155L33.0821 213.43L93.7842 182.09L106.546 199.815Z" fill="#D9D9D9"/>
<path d="M33 186.442L93.702 155.102L106.464 172.827L45.7617 204.167L33 186.442Z" fill="#D9D9D9"/>
<path d="M141 70.7865C141 109.881 109.436 120 70.5 120C31.5639 120 0 109.881 0 70.7865C0 31.6922 31.5639 0 70.5 0C109.436 0 141 31.6922 141 70.7865Z" fill="#D9D9D9"/>
<path d="M60 57C60 51.4772 55.5228 47 50 47C44.4772 47 40 51.4772 40 57" stroke="black" stroke-width="6"/>
<path d="M98 57C98 51.4772 93.5228 47 88 47C82.4772 47 78 51.4772 78 57" stroke="black" stroke-width="6"/>
<path d="M87 64H53C53 72.0476 54.36 90 69.6909 90C85.0218 90 87 72.0476 87 64Z" stroke="black" stroke-width="6"/>
</svg>
