<svg width="74" height="35" viewBox="0 0 74 35" fill="none" xmlns="http://www.w3.org/2000/svg">
<path d="M65.9907 27.9197H73.7436V34.4161H37.3384V27.9197H45.0914V21.9717H38.9817V15.5176H44.4593V6.99636H39.3609V0.5H71.7211V6.99636H66.6227V15.5176H72.1003V21.9717H65.9907V27.9197ZM51.5803 6.99636V15.5176H59.5018V6.99636H51.5803ZM52.2123 21.9717V27.9197H58.8697V21.9717H52.2123Z" fill="#F0F0F1"/>
<path d="M32.7572 34.4161V0.5H25.6006V34.4161H32.7572Z" fill="current"/>
<path fill-rule="evenodd" clip-rule="evenodd" d="M0.763155 0.499965H22.8846V6.95956H22.8411L22.8589 6.98418L3.97106 16.7358L0.000174386 11.2204L8.25301 6.95956H0.763155V0.499965ZM22.1214 34.4999H-7.43866e-05V28.0403H0.0439727L0.0261399 28.0155L18.9139 18.2639L22.8848 23.7793L14.6317 28.0403H22.1214V34.4999ZM18.888 9.86635L0.000174386 19.6179L3.97106 25.1333L22.8589 15.3817L18.888 9.86635Z" fill="current"/>
</svg>
