<svg width="83" height="19" viewBox="0 0 83 19" fill="none" xmlns="http://www.w3.org/2000/svg">
<path d="M78.0617 15.177H82.2884V18.615H62.4414V15.177H66.6681V12.0293H63.3373V8.61375H66.3235V4.10427H63.544V0.666358H81.1858V4.10427H78.4063V8.61375H81.3925V12.0293H78.0617V15.177ZM70.2056 4.10427V8.61375H74.5242V4.10427H70.2056ZM70.5502 12.0293V15.177H74.1796V12.0293H70.5502Z" fill="white"/>
<path d="M59.9435 18.6151V0.666525H56.042V18.6151H59.9435Z" fill="white"/>
<path fill-rule="evenodd" clip-rule="evenodd" d="M42.5006 0.666731H54.5605V4.08519H54.5352L54.5449 4.09822L44.2479 9.25883L42.0831 6.34007L46.5823 4.08519H42.5006V0.666731ZM54.1419 18.6596H42.082V15.2411H42.1073L42.0976 15.2281L52.3946 10.0675L54.5594 12.9863L50.0602 15.2411H54.1419V18.6596ZM52.3801 5.62343L42.0831 10.784L44.2479 13.7028L54.5449 8.54219L52.3801 5.62343Z" fill="white"/>
<path d="M38.2334 4.24948H40.1441V7.70615H38.2334V13.9872H34.3034V0.666345H38.2334V4.24948ZM31.9366 3.7647C31.9366 8.99186 27.2467 11.479 20.8848 11.479V8.33847C25.2056 8.29631 28.202 6.77875 28.202 4.35487V3.9544H20.8848V0.666345H31.9366V3.7647ZM25.3359 12.4275V15.4626H38.2334V18.6663H21.6013V12.4275H25.3359Z" fill="white"/>
<path d="M18.2606 0.666382V13.9872H14.3305V0.666382H18.2606ZM6.10133 0.68746C9.72739 0.68746 12.2027 2.83734 12.2027 6.08324C12.2027 9.35021 9.72739 11.479 6.10133 11.479C2.47527 11.479 0 9.35021 0 6.08324C0 2.83734 2.47527 0.68746 6.10133 0.68746ZM6.10133 3.65935C4.68999 3.65935 3.64777 4.52352 3.64777 6.08324C3.64777 7.64296 4.68999 8.50712 6.10133 8.50712C7.51267 8.50712 8.55489 7.64296 8.55489 6.08324C8.55489 4.52352 7.51267 3.65935 6.10133 3.65935ZM5.36309 12.3643V15.4626H18.2606V18.6664H1.62847V12.3643H5.36309Z" fill="white"/>
</svg>
