<svg width="32" height="33" viewBox="0 0 32 33" fill="none" xmlns="http://www.w3.org/2000/svg">
<path d="M16.0025 8.79685C18.5677 8.79685 18.8688 8.80828 19.8827 8.85402C20.8203 8.89595 21.3272 9.05222 21.6665 9.18562C22.1162 9.36095 22.4364 9.56678 22.7718 9.90219C23.1072 10.2376 23.3169 10.5578 23.4884 11.0075C23.618 11.3468 23.7781 11.8537 23.82 12.7913C23.8657 13.8052 23.8772 14.1063 23.8772 16.6715C23.8772 19.2367 23.8657 19.5378 23.82 20.5516C23.7781 21.4893 23.6218 21.9962 23.4884 22.3354C23.3131 22.7852 23.1072 23.1054 22.7718 23.4408C22.4364 23.7762 22.1162 23.9858 21.6665 24.1574C21.3272 24.2869 20.8203 24.447 19.8827 24.489C18.8688 24.5347 18.5677 24.5461 16.0025 24.5461C13.4374 24.5461 13.1362 24.5347 12.1224 24.489C11.1847 24.447 10.6778 24.2908 10.3386 24.1574C9.88881 23.982 9.56864 23.7762 9.23322 23.4408C8.89781 23.1054 8.68817 22.7852 8.51665 22.3354C8.38706 21.9962 8.22697 21.4893 8.18505 20.5516C8.13931 19.5378 8.12787 19.2367 8.12787 16.6715C8.12787 14.1063 8.13931 13.8052 8.18505 12.7913C8.22697 11.8537 8.38325 11.3468 8.51665 11.0075C8.69198 10.5578 8.89781 10.2376 9.23322 9.90219C9.56864 9.56678 9.88881 9.35714 10.3386 9.18562C10.6778 9.05603 11.1847 8.89595 12.1224 8.85402C13.1362 8.80447 13.4412 8.79685 16.0025 8.79685ZM16.0025 7.06641C13.3954 7.06641 13.0676 7.07784 12.0423 7.12358C11.0208 7.16932 10.3233 7.33321 9.71348 7.56953C9.08076 7.81347 8.54714 8.14507 8.01353 8.67869C7.47991 9.2123 7.15212 9.74973 6.90437 10.3786C6.66805 10.9885 6.50416 11.686 6.45842 12.7113C6.41268 13.7328 6.40125 14.0606 6.40125 16.6677C6.40125 19.2748 6.41268 19.6026 6.45842 20.6279C6.50416 21.6494 6.66805 22.3469 6.90437 22.9605C7.14831 23.5932 7.47991 24.1269 8.01353 24.6605C8.54714 25.1941 9.08457 25.5219 9.71348 25.7696C10.3233 26.006 11.0208 26.1698 12.0461 26.2156C13.0714 26.2613 13.3954 26.2728 16.0063 26.2728C18.6172 26.2728 18.9412 26.2613 19.9665 26.2156C20.988 26.1698 21.6855 26.006 22.2992 25.7696C22.9319 25.5257 23.4655 25.1941 23.9991 24.6605C24.5328 24.1269 24.8605 23.5894 25.1083 22.9605C25.3446 22.3507 25.5085 21.6532 25.5542 20.6279C25.6 19.6026 25.6114 19.2786 25.6114 16.6677C25.6114 14.0568 25.6 13.7328 25.5542 12.7075C25.5085 11.686 25.3446 10.9885 25.1083 10.3748C24.8644 9.74211 24.5328 9.20849 23.9991 8.67488C23.4655 8.14126 22.9281 7.81347 22.2992 7.56572C21.6893 7.3294 20.9918 7.16551 19.9665 7.11977C18.9374 7.07784 18.6096 7.06641 16.0025 7.06641Z" fill="white"/>
<path d="M16.0027 11.7394C13.2812 11.7394 11.0706 13.9463 11.0706 16.6715C11.0706 19.3968 13.2774 21.6036 16.0027 21.6036C18.7279 21.6036 20.9348 19.3968 20.9348 16.6715C20.9348 13.9463 18.7279 11.7394 16.0027 11.7394ZM16.0027 19.8694C14.2341 19.8694 12.801 18.4363 12.801 16.6677C12.801 14.8991 14.2341 13.466 16.0027 13.466C17.7712 13.466 19.2044 14.8991 19.2044 16.6677C19.2044 18.4363 17.7712 19.8694 16.0027 19.8694Z" fill="white"/>
<path d="M21.1296 12.6922C21.7653 12.6922 22.2807 12.1768 22.2807 11.5411C22.2807 10.9054 21.7653 10.39 21.1296 10.39C20.4939 10.39 19.9785 10.9054 19.9785 11.5411C19.9785 12.1768 20.4939 12.6922 21.1296 12.6922Z" fill="white"/>
</svg>
