<svg width="24" height="24" viewBox="0 0 24 24" fill="none" xmlns="http://www.w3.org/2000/svg">
<path d="M6.49986 7.5C7.05214 7.5 7.49986 7.05228 7.49986 6.5V3.9C7.49986 3.40295 7.9028 3 8.39987 3H20.1C20.5971 3 21 3.40295 21 3.9V15.6C21 16.0971 20.5971 16.5 20.1 16.5H17.5001C16.9479 16.5 16.5001 16.9477 16.5001 17.5V20.0933C16.5001 20.594 16.096 21 15.5934 21H3.90656C3.40578 21 3 20.596 3 20.0933L3.00248 8.40673C3.00259 7.90596 3.40662 7.5 3.90923 7.5H6.49986ZM9.29987 6.5C9.29987 7.05228 9.74759 7.5 10.2999 7.5H15.5936C16.0942 7.5 16.5001 7.90403 16.5001 8.40673V13.7C16.5001 14.2523 16.9479 14.7 17.5001 14.7H18.2C18.7523 14.7 19.2 14.2523 19.2 13.7V5.8C19.2 5.24772 18.7523 4.8 18.2 4.8H10.2999C9.74759 4.8 9.29987 5.24772 9.29987 5.8V6.5ZM8.14513 16.6929C8.53566 17.0834 9.16882 17.0834 9.55934 16.6929L13.3071 12.9452C13.6586 12.5937 13.6586 12.0239 13.3071 11.6724C12.9556 11.3209 12.3858 11.3209 12.0343 11.6724L9.55934 14.1473C9.16882 14.5379 8.53566 14.5379 8.14513 14.1473L7.57942 13.5816C7.22795 13.2302 6.65811 13.2302 6.30664 13.5816C5.95516 13.9331 5.95516 14.503 6.30664 14.8545L8.14513 16.6929Z" fill="#3457FD"/>
</svg>
