<svg width="56" height="56" viewBox="0 0 56 56" fill="none" xmlns="http://www.w3.org/2000/svg">
<path d="M3.3627 25.2956C3.3627 25.2956 5.50505 17.6209 11.6413 11.485C17.7775 5.34904 24.425 11.9962 24.425 11.9962L51.2477 38.819C51.2477 38.819 45.6693 35.4719 40.6488 39.3768C35.6282 43.2817 30.1854 52.1183 30.1854 52.1183L3.3627 25.2956Z" fill="white"/>
<path d="M3.3627 25.2956C3.3627 25.2956 5.50506 17.6209 11.6413 11.485C17.7775 5.34903 26.1449 8.13782 26.1449 8.13782L52.9677 34.9605C52.9677 34.9605 43.996 34.3562 39.5333 38.8189C35.0705 43.2817 30.1854 52.1183 30.1854 52.1183L3.3627 25.2956Z" fill="#ADBBFF"/>
<path d="M3.3627 25.2956C3.3627 25.2956 5.50506 17.6209 11.6413 11.485C17.7775 5.34903 25.452 3.20627 25.452 3.20627L52.2747 30.029C52.2747 30.029 43.996 34.3562 39.5333 38.819C35.0705 43.2817 30.1854 52.1183 30.1854 52.1183L3.3627 25.2956Z" fill="#5270FF"/>
<path d="M3.30787 25.4768C3.30787 25.4768 4.15533 20.9472 8.324 13.8514C12.4927 6.75568 17.5661 0.902629 17.5661 0.902629L46.2457 27.7761C46.2457 27.7761 39.7712 35.609 36.9965 40.6961C34.2217 45.7831 30.1306 52.2995 30.1306 52.2995L3.30787 25.4768Z" fill="#3457FD"/>
</svg>
