<svg width="56" height="56" viewBox="0 0 56 56" fill="none" xmlns="http://www.w3.org/2000/svg">
<path d="M49.4194 31.7531C49.4194 43.767 39.6996 46.8767 27.7097 46.8767C15.7198 46.8767 6 43.767 6 31.7531C6 19.7392 15.7198 10 27.7097 10C39.6996 10 49.4194 19.7392 49.4194 31.7531Z" fill="#3457FD"/>
<path fill-rule="evenodd" clip-rule="evenodd" d="M32.968 30.2022C33.8184 30.2022 34.5077 29.5128 34.5077 28.6625C34.5077 27.8121 33.8184 27.1228 32.968 27.1228C32.1177 27.1228 31.4284 27.8121 31.4284 28.6625C31.4284 29.5128 32.1177 30.2022 32.968 30.2022ZM24.3465 28.6627C24.3465 29.5131 23.6571 30.2024 22.8068 30.2024C21.9564 30.2024 21.2671 29.5131 21.2671 28.6627C21.2671 27.8124 21.9564 27.123 22.8068 27.123C23.6571 27.123 24.3465 27.8124 24.3465 28.6627Z" fill="#ADBBFF"/>
<circle cx="32.4447" cy="28.14" r="0.655664" fill="white"/>
<circle cx="22.3915" cy="28.14" r="0.655664" fill="white"/>
</svg>
