<svg width="28" height="28" viewBox="0 0 28 28" fill="none" xmlns="http://www.w3.org/2000/svg">
<path d="M4.66732 13.9999C4.66732 8.84526 8.84599 4.66659 14.0007 4.66659C19.1553 4.66659 23.334 8.84526 23.334 13.9999C23.334 19.1546 19.1553 23.3333 14.0007 23.3333C8.84599 23.3333 4.66732 19.1546 4.66732 13.9999ZM14.0007 2.33325C7.55733 2.33325 2.33398 7.55659 2.33398 13.9999C2.33398 20.4432 7.55733 25.6666 14.0007 25.6666C20.4439 25.6666 25.6673 20.4432 25.6673 13.9999C25.6673 7.55659 20.4439 2.33325 14.0007 2.33325ZM20.3673 11.0332L18.7174 9.38329L12.834 15.2667L9.57561 12.0083L7.92569 13.6582L12.834 18.5665L20.3673 11.0332Z" fill="#303033"/>
</svg>
