<svg width="219" height="120" viewBox="0 0 219 120" fill="none" xmlns="http://www.w3.org/2000/svg">
<path d="M145.57 94.5536C145.57 114.106 129.674 119.167 110.065 119.167C90.4566 119.167 74.5605 114.106 74.5605 94.5536C74.5605 75.0015 90.4566 59.1514 110.065 59.1514C129.674 59.1514 145.57 75.0015 145.57 94.5536Z" fill="url(#paint0_linear_2146_7831)" style="mix-blend-mode:luminosity"/>
<path d="M102.048 87.0166C103.438 87.0169 104.565 88.1387 104.565 89.5225C104.565 90.9062 103.438 92.0281 102.048 92.0283C100.657 92.0283 99.5293 90.9063 99.5293 89.5225C99.5293 88.1386 100.657 87.0166 102.048 87.0166ZM118.667 87.0166C120.058 87.0166 121.186 88.1386 121.186 89.5225C121.186 90.9063 120.058 92.0283 118.667 92.0283C117.276 92.0282 116.149 90.9063 116.149 89.5225C116.149 88.1386 117.276 87.0167 118.667 87.0166Z" fill="#101010"/>
<rect x="99.5938" y="21.3569" width="118.898" height="33.9709" rx="16.9855" fill="#DBDCDF"/>
<path d="M119.833 33.6154V40.2009H118.544V33.6154H119.833ZM120.075 41.5805V42.6076H113.69V39.5363H114.989V41.5805H120.075ZM114.808 34.1994C116.218 34.1994 117.316 35.1661 117.316 36.5054C117.316 37.8748 116.218 38.8314 114.808 38.8314C113.398 38.8314 112.301 37.8748 112.301 36.5054C112.301 35.1661 113.398 34.1994 114.808 34.1994ZM114.808 35.3171C114.093 35.3071 113.549 35.7602 113.56 36.5054C113.549 37.2706 114.093 37.7137 114.808 37.7137C115.503 37.7137 116.047 37.2706 116.047 36.5054C116.047 35.7602 115.503 35.3071 114.808 35.3171ZM128.342 33.6053V36.1731H129.58V37.2304H128.342V40.1707H127.043V33.6053H128.342ZM125.845 34.29C125.845 36.7672 124.294 38.4992 121.545 39.2745L121.011 38.2575C123.06 37.6835 124.223 36.6212 124.435 35.3373H121.414V34.29H125.845ZM128.654 41.5805V42.6076H122.381V39.496H123.68V41.5805H128.654ZM133.538 36.1026C133.538 37.5828 134.293 39.1637 135.834 39.8082L135.139 40.8152C134.056 40.357 133.311 39.4457 132.903 38.328C132.485 39.5414 131.725 40.5483 130.648 41.0468L129.913 40.0297C131.433 39.3551 132.219 37.6533 132.219 36.1026V35.5387H130.275V34.4914H135.451V35.5387H133.538V36.1026ZM137.656 33.6053V42.7687H136.357V33.6053H137.656ZM147.283 40.7246V41.7517H138.895V40.7246H140.979V38.9825H139.59V37.9453H140.818V35.3675H139.549V34.3404H146.578V35.3675H145.289V37.9453H146.538V38.9825H145.158V40.7246H147.283ZM142.107 37.9453H144.02V35.3675H142.107V37.9453ZM142.268 40.7246H143.869V38.9825H142.268V40.7246ZM156.184 37.7137V38.6703H147.796V37.7137H156.184ZM155.178 39.1235V41.2885H150.042V41.8121H155.449V42.6881H148.763V40.4728H153.909V40.0096H148.753V39.1235H155.178ZM155.167 33.7664V35.9213H150.123V36.4147H155.329V37.2807H148.844V35.1057H153.879V34.6425H148.824V33.7664H155.167ZM163.767 34.1188V35.156H160.736V35.871H163.576V36.888H160.736V37.6332C162.226 37.6332 163.183 37.5878 164.26 37.3814L164.401 38.3985C163.163 38.6099 162.055 38.6502 160.202 38.6401H159.437V34.1188H163.767ZM166.365 39.3651V42.668H160.373V39.3651H166.365ZM161.642 40.362V41.6409H165.096V40.362H161.642ZM166.365 33.6053V35.7501H167.604V36.8074H166.365V38.9624H165.076V33.6053H166.365ZM170.937 35.1963C170.937 36.2133 171.44 37.2102 172.658 37.6936L171.964 38.6804C171.193 38.3682 170.655 37.8043 170.332 37.1095C169.99 37.905 169.416 38.5646 168.56 38.9221L167.875 37.9252C169.164 37.3713 169.688 36.2335 169.688 35.1963V34.139H170.937V35.1963ZM175.881 33.6154V39.1637H174.662V36.888H173.897V39.1134H172.699V33.7563H173.897V35.8408H174.662V33.6154H175.881ZM175.881 39.5665V42.7687H174.602V40.5936H169.547V39.5665H175.881ZM184.148 33.6053V37.1901H185.497V38.2474H184.148V42.7687H182.879V33.6053H184.148ZM182.255 34.9748V36.0019H176.868V34.9748H178.942V33.7463H180.231V34.9748H182.255ZM179.586 36.5154C180.926 36.5154 181.923 37.4217 181.923 38.7005C181.923 39.9794 180.926 40.8857 179.586 40.8857C178.237 40.8857 177.24 39.9794 177.24 38.7005C177.24 37.4217 178.237 36.5154 179.586 36.5154ZM179.586 37.5526C178.942 37.5627 178.469 37.9957 178.469 38.7005C178.469 39.4155 178.942 39.8384 179.586 39.8283C180.231 39.8384 180.694 39.4155 180.694 38.7005C180.694 37.9957 180.231 37.5627 179.586 37.5526ZM188.77 35.9112C188.77 37.3915 189.183 38.9221 190.431 39.7277L189.737 40.7246C188.946 40.2462 188.443 39.4608 188.156 38.5193C187.823 39.5565 187.275 40.4225 186.444 40.9259L185.658 39.9794C187.018 39.1335 187.521 37.5224 187.521 35.9717V34.3907H188.77V35.9112ZM193.775 33.6053V42.7687H192.546V33.6053H193.775ZM191.851 33.7362V42.3458H190.653V37.7439H189.465V36.6967H190.653V33.7362H191.851ZM203.129 40.644V41.7013H194.741V40.644H196.614V38.3985C195.904 37.9755 195.476 37.326 195.476 36.5154C195.476 35.0352 196.926 34.0484 198.92 34.0484C200.904 34.0484 202.364 35.0352 202.374 36.5154C202.369 37.3059 201.951 37.9504 201.266 38.3783V40.644H203.129ZM198.92 35.0654C197.611 35.0654 196.745 35.589 196.745 36.5154C196.745 37.4116 197.611 37.9655 198.92 37.9655C200.219 37.9655 201.095 37.4116 201.105 36.5154C201.095 35.589 200.219 35.0654 198.92 35.0654ZM197.883 40.644H199.967V38.8617C199.64 38.9271 199.288 38.9624 198.92 38.9624C198.553 38.9624 198.205 38.9321 197.883 38.8617V40.644ZM205.737 34.5518L205.606 39.6572H204.318L204.187 34.5518H205.737ZM204.972 41.9329C204.499 41.9329 204.116 41.5503 204.126 41.0871C204.116 40.6239 204.499 40.2513 204.972 40.2513C205.415 40.2513 205.808 40.6239 205.808 41.0871C205.808 41.5503 205.415 41.9329 204.972 41.9329Z" fill="#101010"/>
<rect x="0.509766" y="0.833008" width="118.898" height="33.9709" rx="16.9855" fill="#3E3F40"/>
<path d="M27.2865 13.746V14.3199C27.2865 14.9543 27.2865 15.8707 27.075 17.0085L25.8163 16.8877C25.9774 16.0066 26.0177 15.342 26.0278 14.7932H22.5739V13.746H27.2865ZM25.0107 15.8606V17.6127C25.922 17.5775 26.8585 17.507 27.7195 17.3811L27.7899 18.3075C25.8868 18.66 23.7319 18.6902 22.1409 18.7002L22.0301 17.6731C22.5436 17.6731 23.1226 17.6731 23.7319 17.653V15.8606H25.0107ZM29.532 13.0814V15.8707H30.6397V16.9481H29.532V19.9388H28.2129V13.0814H29.532ZM29.814 21.0565V22.0837H23.3794V19.3246H24.6683V21.0565H29.814ZM38.7357 13.0914V18.2572H37.4468V13.0914H38.7357ZM38.7357 18.6801V22.1441H32.5932V18.6801H38.7357ZM33.862 19.6971V21.117H37.477V19.6971H33.862ZM34.5769 14.3099C34.5668 15.4276 35.2415 16.4849 36.7218 16.9481L36.0974 17.9249C35.0502 17.6178 34.3252 16.9834 33.9123 16.1627C33.4944 17.0538 32.7493 17.7587 31.6567 18.0961L31.0324 17.0891C32.563 16.6259 33.2376 15.4578 33.2376 14.3099V13.4237H34.5769V14.3099ZM44.7775 16.3641V17.4617H48.3321V18.4988H39.9743V17.4617H43.5087V16.3641H44.7775ZM44.1431 19.0023C46.1369 19.0023 47.3251 19.5763 47.3352 20.6236C47.3251 21.6708 46.1369 22.2448 44.1431 22.2448C42.1292 22.2448 40.9309 21.6708 40.9309 20.6236C40.9309 19.5763 42.1292 19.0023 44.1431 19.0023ZM44.1431 19.9791C42.8643 19.9791 42.2299 20.1906 42.2399 20.6236C42.2299 21.0767 42.8643 21.2882 44.1431 21.2882C45.3918 21.2882 46.0362 21.0767 46.0463 20.6236C46.0362 20.1906 45.3918 19.9791 44.1431 19.9791ZM47.5769 13.4741V14.481H45.0897C45.3162 15.1104 46.2527 15.7247 47.9696 15.8807L47.5165 16.8877C45.7895 16.7165 44.6315 16.0771 44.1431 15.1859C43.6547 16.0721 42.5118 16.7165 40.7899 16.8877L40.3368 15.8807C42.0436 15.7247 42.9851 15.1205 43.2167 14.481H40.7396V13.4741H47.5769ZM56.1865 13.4439V16.6662H53.6992V17.5422H57.2438V18.5794H48.8859V17.5422H52.4103V16.6662H49.9231V13.4439H56.1865ZM51.1818 14.4408V15.6592H54.9277V14.4408H51.1818ZM56.2267 19.2541V22.2448H54.9479V20.261H49.8123V19.2541H56.2267ZM65.4707 13.0814V22.2649H64.1717V13.0814H65.4707ZM60.4963 13.7258C61.8758 13.7258 62.9029 14.9946 62.9029 16.9884C62.9029 19.0023 61.8758 20.261 60.4963 20.261C59.0865 20.261 58.0594 19.0023 58.0695 16.9884C58.0594 14.9946 59.0865 13.7258 60.4963 13.7258ZM60.4963 14.8838C59.7813 14.8838 59.3081 15.629 59.3081 16.9884C59.3081 18.3579 59.7813 19.093 60.4963 19.093C61.1911 19.093 61.6644 18.3579 61.6644 16.9884C61.6644 15.629 61.1911 14.8838 60.4963 14.8838ZM71.291 18.4384V19.3548H72.2778V18.4384H73.466V21.2177C74.4831 20.7645 74.9161 19.9086 74.9161 19.0728V18.3679H76.205V19.0728C76.1949 20.0093 76.6481 20.8954 77.796 21.268L77.1314 22.2246C76.3409 21.9527 75.8324 21.4291 75.5404 20.7746C75.2333 21.409 74.7298 21.9376 73.9897 22.2246L73.466 21.4291V22.1441H70.1028V18.4384H71.291ZM71.291 21.1673H72.2778V20.3013H71.291V21.1673ZM71.6434 13.4237C72.8115 13.4237 73.7429 14.0732 73.9997 15.0449H75.5303V13.0814H76.8092V17.9349H75.5303V16.1023H73.9997C73.753 17.0941 72.8165 17.7537 71.6434 17.7537C70.2337 17.7537 69.1965 16.8575 69.2066 15.5786C69.1965 14.3199 70.2337 13.4237 71.6434 13.4237ZM71.6434 14.481C70.9285 14.481 70.4149 14.904 70.425 15.5786C70.4149 16.2734 70.9285 16.6964 71.6434 16.7064C72.3382 16.6964 72.8417 16.2734 72.8417 15.5786C72.8417 14.904 72.3382 14.481 71.6434 14.481ZM80.5249 13.7258C81.7634 13.7258 82.6848 14.7479 82.8711 16.3943H84.4621V13.0814H85.7309V22.2649H84.4621V17.4214H82.8812C82.7452 19.1836 81.8037 20.261 80.5249 20.261C79.1353 20.261 78.1384 19.0023 78.1484 16.9884C78.1384 14.9946 79.1353 13.7258 80.5249 13.7258ZM80.5249 14.8838C79.8401 14.8838 79.3669 15.629 79.3769 16.9884C79.3669 18.3579 79.8401 19.093 80.5249 19.093C81.2197 19.093 81.6728 18.3579 81.6728 16.9884C81.6728 15.629 81.2197 14.8838 80.5249 14.8838ZM95.2971 20.1201V21.1774H86.9091V20.1201H88.782V17.8745C88.0721 17.4516 87.6441 16.8021 87.6441 15.9915C87.6441 14.5113 89.0942 13.5244 91.088 13.5244C93.0717 13.5244 94.5318 14.5113 94.5419 15.9915C94.5368 16.782 94.119 17.4264 93.4342 17.8544V20.1201H95.2971ZM91.088 14.5415C89.7789 14.5415 88.9129 15.0651 88.9129 15.9915C88.9129 16.8877 89.7789 17.4415 91.088 17.4415C92.387 17.4415 93.263 16.8877 93.2731 15.9915C93.263 15.0651 92.387 14.5415 91.088 14.5415ZM90.0508 20.1201H92.1352V18.3377C91.808 18.4032 91.4555 18.4384 91.088 18.4384C90.7204 18.4384 90.373 18.4082 90.0508 18.3377V20.1201ZM97.0089 21.409C96.5357 21.409 96.153 21.0263 96.1631 20.5631C96.153 20.0999 96.5357 19.7273 97.0089 19.7273C97.452 19.7273 97.8447 20.0999 97.8447 20.5631C97.8447 21.0263 97.452 21.409 97.0089 21.409Z" fill="#F6F6F6"/>
<defs>
<linearGradient id="paint0_linear_2146_7831" x1="98.4822" y1="62.1521" x2="115.894" y2="109.493" gradientUnits="userSpaceOnUse">
<stop stop-color="#E8ECFF"/>
<stop offset="1" stop-color="#757575"/>
</linearGradient>
</defs>
</svg>
